<svg width="21" height="21" viewBox="0 0 21 21" fill="none" xmlns="http://www.w3.org/2000/svg">
<mask id="mask0_3254_44407" style="mask-type:alpha" maskUnits="userSpaceOnUse" x="0" y="0" width="21" height="21">
<rect width="21" height="21" fill="#D9D9D9"/>
</mask>
<g mask="url(#mask0_3254_44407)">
<path d="M9.58085 12.3074L8.17407 10.9006C8.04399 10.7705 7.89174 10.704 7.71732 10.7011C7.5429 10.6984 7.38781 10.7649 7.25204 10.9006C7.11627 11.0364 7.04838 11.1923 7.04838 11.3683C7.04838 11.5445 7.11627 11.7004 7.25204 11.8362L9.02719 13.6249C9.18542 13.783 9.36998 13.8621 9.58085 13.8621C9.79173 13.8621 9.97628 13.783 10.1345 13.6249L13.7607 9.99871C13.8908 9.86849 13.9572 9.7139 13.96 9.53497C13.9628 9.35617 13.8964 9.19889 13.7607 9.06312C13.625 8.92735 13.469 8.85947 13.2928 8.85947C13.1168 8.85947 12.9609 8.92735 12.8251 9.06312L9.58085 12.3074ZM10.4996 18.8126C9.46754 18.8126 8.50059 18.6174 7.59876 18.227C6.69678 17.8366 5.91037 17.306 5.23954 16.6352C4.56871 15.9643 4.03809 15.1779 3.6477 14.2759C3.2573 13.3741 3.0621 12.4072 3.0621 11.3751C3.0621 10.343 3.2573 9.37608 3.6477 8.47425C4.03809 7.57227 4.56871 6.78586 5.23954 6.11503C5.91037 5.44419 6.69678 4.91358 7.59876 4.52318C8.50059 4.13279 9.46754 3.93759 10.4996 3.93759C11.5317 3.93759 12.4986 4.13279 13.4004 4.52318C14.3024 4.91358 15.0888 5.44419 15.7597 6.11503C16.4305 6.78586 16.9611 7.57227 17.3515 8.47425C17.7419 9.37608 17.9371 10.343 17.9371 11.3751C17.9371 12.4072 17.7419 13.3741 17.3515 14.2759C16.9611 15.1779 16.4305 15.9643 15.7597 16.6352C15.0888 17.306 14.3024 17.8366 13.4004 18.227C12.4986 18.6174 11.5317 18.8126 10.4996 18.8126ZM2.11316 6.37075C1.98629 6.24402 1.92285 6.09031 1.92285 5.90962C1.92285 5.72908 1.98629 5.57544 2.11316 5.44872L4.57323 2.98865C4.69441 2.86747 4.84666 2.80549 5.02998 2.80272C5.21343 2.7998 5.36853 2.86178 5.49526 2.98865C5.62199 3.11538 5.68535 3.26902 5.68535 3.44956C5.68535 3.63025 5.62199 3.78396 5.49526 3.91068L3.0352 6.37075C2.91401 6.49193 2.76176 6.55391 2.57845 6.55668C2.39499 6.55945 2.23989 6.49748 2.11316 6.37075ZM18.886 6.37075C18.7593 6.49748 18.6057 6.56084 18.4251 6.56084C18.2444 6.56084 18.0907 6.49748 17.964 6.37075L15.5039 3.91068C15.3828 3.7895 15.3208 3.63725 15.318 3.45393C15.3152 3.27048 15.3772 3.11538 15.5039 2.98865C15.6307 2.86178 15.7844 2.79834 15.9651 2.79834C16.1456 2.79834 16.2992 2.86178 16.426 2.98865L18.886 5.44872C19.0072 5.5699 19.0692 5.72215 19.072 5.90547C19.0749 6.08892 19.0129 6.24402 18.886 6.37075Z" fill="#404040"/>
</g>
</svg>
