<svg width="28" height="28" viewBox="0 0 28 28" fill="none" xmlns="http://www.w3.org/2000/svg">
<mask id="mask0_3045_36005" style="mask-type:alpha" maskUnits="userSpaceOnUse" x="0" y="0" width="28" height="28">
<rect width="28" height="28" fill="#D9D9D9"/>
</mask>
<g mask="url(#mask0_3045_36005)">
<path d="M9.12914 15.1667L14.8458 20.8833C15.0791 21.1167 15.191 21.3889 15.1812 21.7C15.1715 22.0111 15.05 22.2833 14.8166 22.5167C14.5833 22.7306 14.3111 22.8424 14 22.8521C13.6889 22.8618 13.4166 22.75 13.1833 22.5167L5.48331 14.8167C5.36664 14.7 5.284 14.5736 5.23539 14.4375C5.18678 14.3014 5.16248 14.1556 5.16248 14C5.16248 13.8445 5.18678 13.6986 5.23539 13.5625C5.284 13.4264 5.36664 13.3 5.48331 13.1833L13.1833 5.48334C13.3972 5.26945 13.6646 5.16251 13.9854 5.16251C14.3062 5.16251 14.5833 5.26945 14.8166 5.48334C15.05 5.71667 15.1666 5.99376 15.1666 6.31459C15.1666 6.63542 15.05 6.91251 14.8166 7.14584L9.12914 12.8333H22.1666C22.4972 12.8333 22.7743 12.9451 22.9979 13.1688C23.2215 13.3924 23.3333 13.6695 23.3333 14C23.3333 14.3306 23.2215 14.6076 22.9979 14.8313C22.7743 15.0549 22.4972 15.1667 22.1666 15.1667H9.12914Z" fill="#1C1B1F"/>
</g>
</svg>
