<svg width="200" height="201" viewBox="0 0 200 201" fill="none" xmlns="http://www.w3.org/2000/svg">
<path d="M70.0077 108.135L59.2674 125.726C57.7814 128.177 57.4899 131.211 58.5051 133.899C59.6048 136.811 62.1007 138.988 65.1418 139.691L73.1975 141.55L70.0077 108.135Z" fill="#FDC9A6"/>
<path d="M65.4013 115.692L70.0086 108.134L71.8758 127.648L65.4013 115.692Z" fill="#005DBB"/>
<path d="M71.8754 127.648L73.1907 141.583L69.6643 140.769C69.4677 140.144 69.311 139.494 69.219 138.86L65.794 118.714C65.6149 117.718 65.5005 116.738 65.3936 115.725L71.8754 127.648Z" fill="#D6A27F"/>
<path d="M150.631 20.906C147.49 19.1586 143.772 18.8796 140.211 20.136C136.761 21.3502 133.795 23.8684 131.93 27.2205C128.498 33.3797 129.622 40.7612 134.256 44.8978L124.093 63.236C123.391 64.5052 123.831 66.1403 125.132 66.8497C125.344 66.9666 125.595 67.0587 125.822 67.111C126.954 67.3724 128.161 66.8674 128.746 65.8097L138.942 47.479C139.168 47.5313 139.387 47.616 139.646 47.6757C145.437 49.0127 151.908 46.0766 155.191 40.1215C159.059 33.1088 157.034 24.4629 150.631 20.906ZM150.505 37.5403C148.531 41.0716 144.917 42.9975 141.6 42.6065L145.212 36.1138C145.913 34.8447 145.473 33.2096 144.172 32.5002C142.902 31.7982 141.267 32.2386 140.558 33.5401L136.946 40.0327C134.861 37.4045 134.61 33.3255 136.552 29.7868C137.784 27.5496 139.695 25.9122 141.92 25.131C143.369 24.6134 144.857 24.514 146.216 24.8277C146.83 24.9697 147.455 25.2161 148 25.5123C151.889 27.7052 153.001 33.0734 150.505 37.5403Z" fill="#FD7422"/>
<path d="M67.4231 72.0981L61.0517 76.0794L45.5227 72.4942L43.1326 82.8469L63.2405 90.2153L67.7202 88.5234L67.4231 72.0981Z" fill="#FDC9A6"/>
<path d="M67.7195 88.5231L72.1993 86.8312L68.9129 101.066C68.6141 102.36 68.3801 103.669 68.1784 104.986L93.8983 110.924L102.462 85.6395L107.466 87.5787L112.855 76.0441L105.049 70.5957C104.021 69.8813 102.844 69.371 101.615 69.0872L84.2092 65.0689C81.621 64.4713 78.9233 64.9389 76.6933 66.3324L67.4224 72.0978L67.7195 88.5231Z" fill="#EAE9E4"/>
<path d="M107.466 87.579L116.129 90.942C118.538 91.873 121.256 91.6145 123.446 90.2459C125.278 89.1013 126.59 87.2573 127.082 85.122L129.906 72.8929L134.287 65.7259L130.305 59.3545L121.346 62.7383L120.151 67.9147L115.172 77.6698L112.823 76.037L107.466 87.579Z" fill="#FDC9A6"/>
<path d="M93.4193 127.17L93.8986 110.924L68.1787 104.986C67.4914 109.734 67.5706 114.557 68.3889 119.278L69.7072 127.148L93.4193 127.17Z" fill="#0A71CD"/>
<path d="M80.6302 17.6941L70.051 14.8087L74.9765 11.4818L71.6496 6.5564L77.5825 6.83569L77.8618 0.902696L85.8349 8.43419L80.6302 17.6941Z" fill="#EAE9E4"/>
<path d="M92.4885 18.2854C91.0448 20.8486 87.8069 21.7367 85.2437 20.2931L80.5976 17.687L85.8023 8.4271L90.4484 11.0332C93.0116 12.4769 93.9321 15.7222 92.4885 18.2854Z" fill="#BBBAB6"/>
<path d="M91.2366 49.2446L87.1748 52.6686C83.7949 55.5004 83.3863 60.5175 86.2181 63.8974C89.0499 67.2773 94.067 67.6859 97.4469 64.8541L96.3727 55.3373L91.2366 49.2446Z" fill="#FDC9A6"/>
<path d="M101.509 61.4298C104.889 58.598 105.297 53.5809 102.465 50.201C99.6335 46.8211 94.6164 46.4125 91.2365 49.2443L96.3726 55.337L97.4468 64.8538L101.509 61.4298Z" fill="#4A4B46"/>
<path d="M93.0999 138L93.4194 127.17L69.7073 127.148L71.8066 139.457C72.3214 142.54 73.7422 145.39 75.8773 147.655C78.0124 149.92 80.7796 151.513 83.8207 152.215L105.044 157.115L107.8 145.177L93.0999 138Z" fill="#FDC9A6"/>
<path d="M117.6 149.961L115.396 159.505L121.966 166.474L124.953 153.533L117.6 149.961Z" fill="#005DBB"/>
<path d="M107.8 145.177L105.044 157.115L115.396 159.505L117.6 149.961L107.8 145.177Z" fill="#EAE9E4"/>
<path d="M150.837 37.7224C153.347 33.2011 152.12 27.7247 148.095 25.4905C144.071 23.2562 138.774 25.1102 136.264 29.6314C133.754 34.1527 134.981 39.6291 139.005 41.8633C143.029 44.0976 148.327 42.2436 150.837 37.7224Z" fill="#EAE9E4"/>
<ellipse cx="98.1162" cy="192.793" rx="39.6602" ry="8.20679" fill="#0C6C4C"/>
</svg>
