<svg width="30" height="30" viewBox="0 0 30 30" fill="none" xmlns="http://www.w3.org/2000/svg">
<g id="variants=community, focus=true">
<mask id="mask0_20_3392" style="mask-type:alpha" maskUnits="userSpaceOnUse" x="0" y="0" width="30" height="30">
<rect id="Bounding box" width="30" height="30" fill="#D9D9D9"/>
</mask>
<g mask="url(#mask0_20_3392)">
<path id="chat" d="M7.59616 21.7405L5.46634 23.8703C5.15064 24.186 4.78565 24.2573 4.37138 24.0841C3.95713 23.9109 3.75 23.6017 3.75 23.1564V6.2597C3.75 5.68438 3.94271 5.20402 4.32812 4.8186C4.71354 4.43319 5.19391 4.24048 5.76922 4.24048H24.2308C24.8061 4.24048 25.2865 4.43319 25.6719 4.8186C26.0573 5.20402 26.25 5.68438 26.25 6.2597V19.7213C26.25 20.2966 26.0573 20.7769 25.6719 21.1624C25.2865 21.5478 24.8061 21.7405 24.2308 21.7405H7.59616ZM8.75 17.3655H16.25C16.4271 17.3655 16.5755 17.3055 16.6953 17.1855C16.8151 17.0656 16.875 16.917 16.875 16.7396C16.875 16.5623 16.8151 16.4139 16.6953 16.2946C16.5755 16.1752 16.4271 16.1155 16.25 16.1155H8.75C8.57292 16.1155 8.42448 16.1755 8.30469 16.2954C8.1849 16.4154 8.125 16.564 8.125 16.7413C8.125 16.9187 8.1849 17.067 8.30469 17.1864C8.42448 17.3058 8.57292 17.3655 8.75 17.3655ZM8.75 13.6155H21.25C21.4271 13.6155 21.5755 13.5555 21.6953 13.4355C21.8151 13.3156 21.875 13.167 21.875 12.9896C21.875 12.8123 21.8151 12.6639 21.6953 12.5446C21.5755 12.4252 21.4271 12.3655 21.25 12.3655H8.75C8.57292 12.3655 8.42448 12.4255 8.30469 12.5454C8.1849 12.6654 8.125 12.814 8.125 12.9913C8.125 13.1687 8.1849 13.317 8.30469 13.4364C8.42448 13.5558 8.57292 13.6155 8.75 13.6155ZM8.75 9.86548H21.25C21.4271 9.86548 21.5755 9.8055 21.6953 9.68554C21.8151 9.5656 21.875 9.41697 21.875 9.23963C21.875 9.0623 21.8151 8.91395 21.6953 8.79457C21.5755 8.67518 21.4271 8.61548 21.25 8.61548H8.75C8.57292 8.61548 8.42448 8.67546 8.30469 8.79542C8.1849 8.91535 8.125 9.06399 8.125 9.24132C8.125 9.41865 8.1849 9.56701 8.30469 9.68638C8.42448 9.80578 8.57292 9.86548 8.75 9.86548Z" fill="#10B981"/>
</g>
</g>
</svg>
