<svg width="30" height="30" viewBox="0 0 30 30" fill="none" xmlns="http://www.w3.org/2000/svg">
<g id="variants=game, focus=false">
<mask id="mask0_20_3389" style="mask-type:alpha" maskUnits="userSpaceOnUse" x="0" y="0" width="30" height="30">
<rect id="Bounding box" width="30" height="30" fill="#D9D9D9"/>
</mask>
<g mask="url(#mask0_20_3389)">
<path id="group" d="M3.44666 21.2425C3.44666 20.6623 3.59686 20.1635 3.89728 19.746C4.1977 19.3287 4.60145 18.9951 5.10853 18.7453C6.19291 18.2291 7.26947 17.8175 8.33822 17.5107C9.40718 17.2038 10.6933 17.0503 12.1967 17.0503C13.6998 17.0503 14.9858 17.2038 16.0548 17.5107C17.1237 17.8175 18.2003 18.2291 19.2845 18.7453C19.7915 18.9951 20.1953 19.3287 20.4957 19.746C20.7963 20.1635 20.9467 20.6623 20.9467 21.2425V22.0022C20.9467 22.321 20.822 22.617 20.5726 22.8903C20.3234 23.1637 20.0154 23.3003 19.6485 23.3003H4.74447C4.37759 23.3003 4.06957 23.1757 3.82041 22.9263C3.57124 22.6771 3.44666 22.3691 3.44666 22.0022V21.2425ZM25.6582 23.3003H23.1676C23.2526 23.1016 23.3203 22.892 23.3707 22.6716C23.4213 22.4512 23.4467 22.2281 23.4467 22.0022V21.1847C23.4467 20.4603 23.3 19.7766 23.0067 19.1335C22.7135 18.4903 22.2977 17.9386 21.7592 17.4782C22.3729 17.6032 22.9643 17.7766 23.5332 17.9985C24.102 18.2206 24.6645 18.4701 25.2207 18.7472C25.7624 19.0197 26.1871 19.3684 26.4948 19.7932C26.8023 20.2182 26.956 20.682 26.956 21.1847V22.0022C26.956 22.3691 26.8314 22.6771 26.5823 22.9263C26.3331 23.1757 26.0251 23.3003 25.6582 23.3003ZM12.1967 14.2616C11.1654 14.2616 10.2826 13.8944 9.54822 13.16C8.81384 12.4257 8.44666 11.5428 8.44666 10.5116C8.44666 9.48035 8.81384 8.59753 9.54822 7.86316C10.2826 7.12878 11.1654 6.7616 12.1967 6.7616C13.2279 6.7616 14.1107 7.12878 14.8451 7.86316C15.5795 8.59753 15.9467 9.48035 15.9467 10.5116C15.9467 11.5428 15.5795 12.4257 14.8451 13.16C14.1107 13.8944 13.2279 14.2616 12.1967 14.2616ZM21.2832 10.5116C21.2832 11.5428 20.916 12.4257 20.1817 13.16C19.4473 13.8944 18.5645 14.2616 17.5332 14.2616C17.4803 14.2616 17.4129 14.2557 17.331 14.2438C17.2494 14.2317 17.1821 14.2185 17.1292 14.2041C17.5527 13.6853 17.8781 13.1099 18.1054 12.4778C18.3329 11.8458 18.4467 11.1894 18.4467 10.5088C18.4467 9.82816 18.3276 9.17774 18.0895 8.55753C17.8516 7.93733 17.5314 7.35795 17.1292 6.81941C17.1964 6.79545 17.2637 6.77983 17.331 6.77253C17.3983 6.76524 17.4657 6.7616 17.5332 6.7616C18.5645 6.7616 19.4473 7.12878 20.1817 7.86316C20.916 8.59753 21.2832 9.48035 21.2832 10.5116ZM4.69666 22.0503H19.6967V21.2425C19.6967 20.9492 19.6233 20.6927 19.4767 20.4732C19.33 20.2538 19.0668 20.0439 18.687 19.8435C17.7543 19.3451 16.771 18.9634 15.7373 18.6982C14.7037 18.433 13.5235 18.3003 12.1967 18.3003C10.8696 18.3003 9.68926 18.433 8.65572 18.6982C7.62197 18.9634 6.63874 19.3451 5.70603 19.8435C5.32624 20.0439 5.06301 20.2538 4.91634 20.4732C4.76988 20.6927 4.69666 20.9492 4.69666 21.2425V22.0503ZM12.1967 13.0116C12.8842 13.0116 13.4727 12.7668 13.9623 12.2772C14.4519 11.7876 14.6967 11.1991 14.6967 10.5116C14.6967 9.8241 14.4519 9.23555 13.9623 8.74597C13.4727 8.25639 12.8842 8.0116 12.1967 8.0116C11.5092 8.0116 10.9206 8.25639 10.431 8.74597C9.94145 9.23555 9.69666 9.8241 9.69666 10.5116C9.69666 11.1991 9.94145 11.7876 10.431 12.2772C10.9206 12.7668 11.5092 13.0116 12.1967 13.0116Z" fill="#1C1B1F"/>
</g>
</g>
</svg>
