<svg width="30" height="30" viewBox="0 0 30 30" fill="none" xmlns="http://www.w3.org/2000/svg">
<g id="variants=my profile, focus=false">
<mask id="mask0_20_3396" style="mask-type:alpha" maskUnits="userSpaceOnUse" x="0" y="0" width="30" height="30">
<rect id="Bounding box" width="30" height="30" fill="#D9D9D9"/>
</mask>
<g mask="url(#mask0_20_3396)">
<path id="person" d="M15.4635 14.1243C14.4323 14.1243 13.5494 13.7571 12.8151 13.0227C12.0807 12.2884 11.7135 11.4056 11.7135 10.3743C11.7135 9.34303 12.0807 8.46021 12.8151 7.72583C13.5494 6.99146 14.4323 6.62427 15.4635 6.62427C16.4948 6.62427 17.3776 6.99146 18.1119 7.72583C18.8463 8.46021 19.2135 9.34303 19.2135 10.3743C19.2135 11.4056 18.8463 12.2884 18.1119 13.0227C17.3776 13.7571 16.4948 14.1243 15.4635 14.1243ZM6.7135 21.8647V21.1051C6.7135 20.589 6.86374 20.1063 7.16422 19.6567C7.4647 19.2072 7.86895 18.8583 8.37697 18.6099C9.55645 18.0442 10.7367 17.6199 11.9178 17.337C13.0989 17.0542 14.2808 16.9127 15.4635 16.9127C16.6462 16.9127 17.8281 17.0542 19.0092 17.337C20.1903 17.6199 21.3706 18.0442 22.55 18.6099C23.0581 18.8583 23.4623 19.2072 23.7628 19.6567C24.0633 20.1063 24.2135 20.589 24.2135 21.1051V21.8647C24.2135 22.2317 24.0889 22.5398 23.8397 22.789C23.5905 23.0382 23.2824 23.1628 22.9154 23.1628H8.01156C7.64458 23.1628 7.33649 23.0382 7.08728 22.789C6.83809 22.5398 6.7135 22.2317 6.7135 21.8647ZM7.9635 21.9127H22.9635V21.1051C22.9635 20.8278 22.8742 20.5674 22.6955 20.3238C22.5168 20.0802 22.2696 19.8743 21.9539 19.706C20.925 19.2076 19.8643 18.8258 18.7715 18.5606C17.6788 18.2954 16.5761 18.1627 15.4635 18.1627C14.3509 18.1627 13.2482 18.2954 12.1555 18.5606C11.0628 18.8258 10.002 19.2076 8.97313 19.706C8.65742 19.8743 8.41022 20.0802 8.23153 20.3238C8.05284 20.5674 7.9635 20.8278 7.9635 21.1051V21.9127ZM15.4635 12.8743C16.151 12.8743 16.7395 12.6295 17.2291 12.1399C17.7187 11.6503 17.9635 11.0618 17.9635 10.3743C17.9635 9.6868 17.7187 9.09826 17.2291 8.60868C16.7395 8.11909 16.151 7.8743 15.4635 7.8743C14.776 7.8743 14.1875 8.11909 13.6979 8.60868C13.2083 9.09826 12.9635 9.6868 12.9635 10.3743C12.9635 11.0618 13.2083 11.6503 13.6979 12.1399C14.1875 12.6295 14.776 12.8743 15.4635 12.8743Z" fill="#525252"/>
</g>
</g>
</svg>
