<svg width="30" height="30" viewBox="0 0 30 30" fill="none" xmlns="http://www.w3.org/2000/svg">
<g id="variants=home, focus=true">
<mask id="mask0_20_3387" style="mask-type:alpha" maskUnits="userSpaceOnUse" x="0" y="0" width="30" height="30">
<rect id="Bounding box" width="30" height="30" fill="#D9D9D9"/>
</mask>
<g mask="url(#mask0_20_3387)">
<path id="home" d="M6.25 23.9344V13.069C6.25 12.7493 6.32151 12.4464 6.46453 12.1604C6.60757 11.8743 6.80529 11.6387 7.05769 11.4536L13.7885 6.35746C14.1407 6.08823 14.5433 5.95361 14.9962 5.95361C15.449 5.95361 15.8542 6.08823 16.2115 6.35746L22.9423 11.4536C23.1947 11.6387 23.3924 11.8743 23.5355 12.1604C23.6785 12.4464 23.75 12.7493 23.75 13.069V23.9344C23.75 24.2693 23.6254 24.5614 23.3762 24.8106C23.127 25.0598 22.8349 25.1844 22.5 25.1844H18.2692C17.9832 25.1844 17.7434 25.0876 17.5499 24.8941C17.3564 24.7006 17.2596 24.4608 17.2596 24.1748V18.2132C17.2596 17.9272 17.1629 17.6874 16.9693 17.4939C16.7758 17.3004 16.5361 17.2036 16.25 17.2036H13.75C13.4639 17.2036 13.2242 17.3004 13.0307 17.4939C12.8371 17.6874 12.7404 17.9272 12.7404 18.2132V24.1748C12.7404 24.4608 12.6436 24.7006 12.4501 24.8941C12.2566 25.0876 12.0168 25.1844 11.7308 25.1844H7.5C7.16506 25.1844 6.87299 25.0598 6.62378 24.8106C6.37459 24.5614 6.25 24.2693 6.25 23.9344Z" fill="#10B981"/>
</g>
</g>
</svg>
