<svg width="30" height="30" viewBox="0 0 30 30" fill="none" xmlns="http://www.w3.org/2000/svg">
<g id="variants=chat, focus=true">
<mask id="mask0_20_3394" style="mask-type:alpha" maskUnits="userSpaceOnUse" x="0" y="0" width="30" height="30">
<rect id="Bounding box" width="30" height="30" fill="#D9D9D9"/>
</mask>
<g mask="url(#mask0_20_3394)">
<path id="forum" d="M9.03843 20.7731C8.76599 20.7731 8.53763 20.6809 8.35334 20.4966C8.16903 20.3124 8.07687 20.084 8.07687 19.8116V18.5616H22.7644L23.5577 19.3548V7.98462H24.8077C25.0801 7.98462 25.3085 8.07676 25.4928 8.26106C25.6771 8.44535 25.7692 8.67371 25.7692 8.94615V22.189C25.7692 22.6343 25.5621 22.9435 25.1478 23.1167C24.7335 23.2899 24.3686 23.2186 24.0529 22.9029L21.9231 20.7731H9.03843ZM8.07687 16.0616L5.94706 18.1914C5.63137 18.5071 5.26639 18.5783 4.85212 18.4051C4.43785 18.232 4.23071 17.9227 4.23071 17.4774V5.19615C4.23071 4.92371 4.32286 4.69535 4.50715 4.51106C4.69146 4.32677 4.91984 4.23462 5.19228 4.23462H20.0961C20.3686 4.23462 20.5969 4.32677 20.7812 4.51106C20.9655 4.69535 21.0577 4.92371 21.0577 5.19615V15.1C21.0577 15.3724 20.9655 15.6008 20.7812 15.7851C20.5969 15.9694 20.3686 16.0616 20.0961 16.0616H8.07687Z" fill="#10B981"/>
</g>
</g>
</svg>
