<svg width="30" height="30" viewBox="0 0 30 30" fill="none" xmlns="http://www.w3.org/2000/svg">
<g id="variants=community, focus=false">
<mask id="mask0_20_3391" style="mask-type:alpha" maskUnits="userSpaceOnUse" x="0" y="0" width="30" height="30">
<rect id="Bounding box" width="30" height="30" fill="#D9D9D9"/>
</mask>
<g mask="url(#mask0_20_3391)">
<path id="chat" d="M7.44882 21.7225L5.31901 23.8523C5.0033 24.1681 4.63831 24.2406 4.22404 24.0699C3.80979 23.8992 3.60266 23.5887 3.60266 23.1384V6.24175C3.60266 5.66644 3.79537 5.18608 4.18079 4.80066C4.5662 4.41524 5.04657 4.22253 5.62188 4.22253H24.0834C24.6588 4.22253 25.1391 4.41524 25.5245 4.80066C25.91 5.18608 26.1027 5.66644 26.1027 6.24175V19.7033C26.1027 20.2786 25.91 20.759 25.5245 21.1444C25.1391 21.5298 24.6588 21.7225 24.0834 21.7225H7.44882ZM6.91516 20.4725H24.0834C24.2757 20.4725 24.452 20.3924 24.6123 20.2322C24.7725 20.0719 24.8527 19.8956 24.8527 19.7033V6.24175C24.8527 6.04946 24.7725 5.87318 24.6123 5.71291C24.452 5.55266 24.2757 5.47253 24.0834 5.47253H5.62188C5.42959 5.47253 5.25331 5.55266 5.09304 5.71291C4.93279 5.87318 4.85266 6.04946 4.85266 6.24175V22.5278L6.91516 20.4725ZM8.60266 17.3475H16.1027C16.2806 17.3475 16.4292 17.2878 16.5486 17.1684C16.668 17.0491 16.7277 16.9004 16.7277 16.7225C16.7277 16.5446 16.668 16.396 16.5486 16.2766C16.4292 16.1572 16.2806 16.0975 16.1027 16.0975H8.60266C8.42477 16.0975 8.27613 16.1572 8.15675 16.2766C8.03736 16.396 7.97766 16.5446 7.97766 16.7225C7.97766 16.9004 8.03736 17.0491 8.15675 17.1684C8.27613 17.2878 8.42477 17.3475 8.60266 17.3475ZM8.60266 13.5975H21.1027C21.2806 13.5975 21.4292 13.5378 21.5486 13.4184C21.668 13.2991 21.7277 13.1504 21.7277 12.9725C21.7277 12.7946 21.668 12.646 21.5486 12.5266C21.4292 12.4072 21.2806 12.3475 21.1027 12.3475H8.60266C8.42477 12.3475 8.27613 12.4072 8.15675 12.5266C8.03736 12.646 7.97766 12.7946 7.97766 12.9725C7.97766 13.1504 8.03736 13.2991 8.15675 13.4184C8.27613 13.5378 8.42477 13.5975 8.60266 13.5975ZM8.60266 9.84753H21.1027C21.2806 9.84753 21.4292 9.78784 21.5486 9.66844C21.668 9.54907 21.7277 9.40043 21.7277 9.22253C21.7277 9.04464 21.668 8.896 21.5486 8.77663C21.4292 8.65723 21.2806 8.59753 21.1027 8.59753H8.60266C8.42477 8.59753 8.27613 8.65723 8.15675 8.77663C8.03736 8.896 7.97766 9.04464 7.97766 9.22253C7.97766 9.40043 8.03736 9.54907 8.15675 9.66844C8.27613 9.78784 8.42477 9.84753 8.60266 9.84753Z" fill="#525252"/>
</g>
</g>
</svg>
