<svg width="30" height="30" viewBox="0 0 30 30" fill="none" xmlns="http://www.w3.org/2000/svg">
<g id="variants=chat, focus=false">
<mask id="mask0_20_3393" style="mask-type:alpha" maskUnits="userSpaceOnUse" x="0" y="0" width="30" height="30">
<rect id="Bounding box" width="30" height="30" fill="#D9D9D9"/>
</mask>
<g mask="url(#mask0_20_3393)">
<path id="forum" d="M8.89109 20.8104C8.61866 20.8104 8.39029 20.7183 8.206 20.534C8.02169 20.3497 7.92953 20.1213 7.92953 19.8489V18.5989H22.6171L23.4103 19.3922V8.02197H24.6603C24.9328 8.02197 25.1611 8.11412 25.3454 8.29841C25.5297 8.4827 25.6219 8.71107 25.6219 8.9835V22.2263C25.6219 22.6716 25.4147 22.9809 25.0005 23.1541C24.5862 23.3272 24.2212 23.256 23.9055 22.9403L21.7757 20.8104H8.89109ZM7.92953 16.0989L5.79972 18.2287C5.48403 18.5444 5.11905 18.6157 4.70478 18.4425C4.29051 18.2693 4.08337 17.9601 4.08337 17.5148V5.2335C4.08337 4.96107 4.17552 4.7327 4.35981 4.54841C4.54412 4.36412 4.7725 4.27197 5.04494 4.27197H19.9488C20.2212 4.27197 20.4496 4.36412 20.6339 4.54841C20.8182 4.7327 20.9103 4.96107 20.9103 5.2335V15.1373C20.9103 15.4098 20.8182 15.6381 20.6339 15.8224C20.4496 16.0068 20.2212 16.0989 19.9488 16.0989H7.92953ZM19.6603 14.8489V5.52197H5.33341V16.5797L7.06416 14.8489H19.6603Z" fill="#525252"/>
</g>
</g>
</svg>
