<svg width="30" height="30" viewBox="0 0 30 30" fill="none" xmlns="http://www.w3.org/2000/svg">
<g id="variants=my profile, focus=true">
<mask id="mask0_20_3395" style="mask-type:alpha" maskUnits="userSpaceOnUse" x="0" y="0" width="30" height="30">
<rect id="Bounding box" width="30" height="30" fill="#D9D9D9"/>
</mask>
<g mask="url(#mask0_20_3395)">
<path id="person" d="M15 14.1182C13.9615 14.1182 13.0769 13.7528 12.3462 13.022C11.6154 12.2913 11.25 11.4067 11.25 10.3682C11.25 9.32972 11.6154 8.44509 12.3462 7.71432C13.0769 6.98355 13.9615 6.61816 15 6.61816C16.0385 6.61816 16.9231 6.98355 17.6538 7.71432C18.3846 8.44509 18.75 9.32972 18.75 10.3682C18.75 11.4067 18.3846 12.2913 17.6538 13.022C16.9231 13.7528 16.0385 14.1182 15 14.1182ZM6.25 21.8586V21.0989C6.25 20.5829 6.40024 20.1002 6.70072 19.6506C7.0012 19.2011 7.40545 18.8522 7.91347 18.6038C9.09295 18.0381 10.2732 17.6138 11.4543 17.3309C12.6354 17.0481 13.8173 16.9066 15 16.9066C16.1827 16.9066 17.3646 17.0481 18.5457 17.3309C19.7268 17.6138 20.9071 18.0381 22.0865 18.6038C22.5946 18.8522 22.9988 19.2011 23.2993 19.6506C23.5998 20.1002 23.75 20.5829 23.75 21.0989V21.8586C23.75 22.2256 23.6254 22.5337 23.3762 22.7829C23.127 23.0321 22.8189 23.1567 22.4519 23.1567H7.54806C7.18108 23.1567 6.87299 23.0321 6.62378 22.7829C6.37459 22.5337 6.25 22.2256 6.25 21.8586Z" fill="#10B981"/>
</g>
</g>
</svg>
