<svg width="30" height="30" viewBox="0 0 30 30" fill="none" xmlns="http://www.w3.org/2000/svg">
<g id="variants=game, focus=true">
<mask id="mask0_20_3390" style="mask-type:alpha" maskUnits="userSpaceOnUse" x="0" y="0" width="30" height="30">
<rect id="Bounding box" width="30" height="30" fill="#D9D9D9"/>
</mask>
<g mask="url(#mask0_20_3390)">
<path id="group" d="M3.10522 21.2425C3.10522 20.6623 3.25543 20.1635 3.55585 19.746C3.85627 19.3287 4.26002 18.9951 4.7671 18.7453C5.85147 18.2291 6.92804 17.8175 7.99679 17.5107C9.06575 17.2038 10.3519 17.0503 11.8552 17.0503C13.3583 17.0503 14.6444 17.2038 15.7134 17.5107C16.7823 17.8175 17.8589 18.2291 18.943 18.7453C19.4501 18.9951 19.8539 19.3287 20.1543 19.746C20.4549 20.1635 20.6052 20.6623 20.6052 21.2425V22.0022C20.6052 22.321 20.4805 22.617 20.2312 22.8903C19.982 23.1637 19.674 23.3003 19.3071 23.3003H4.40304C4.03616 23.3003 3.72814 23.1757 3.47897 22.9263C3.22981 22.6771 3.10522 22.3691 3.10522 22.0022V21.2425ZM22.8262 23.3003C22.9112 23.1016 22.9789 22.892 23.0293 22.6716C23.0799 22.4512 23.1052 22.2281 23.1052 22.0022V21.1847C23.1052 20.4603 22.9586 19.7766 22.6652 19.1335C22.3721 18.4903 21.9563 17.9386 21.4177 17.4782C22.0315 17.6032 22.6228 17.7766 23.1918 17.9985C23.7605 18.2206 24.323 18.4701 24.8793 18.7472C25.421 19.0197 25.8456 19.3684 26.1534 19.7932C26.4609 20.2182 26.6146 20.682 26.6146 21.1847V22.0022C26.6146 22.3691 26.49 22.6771 26.2409 22.9263C25.9917 23.1757 25.6837 23.3003 25.3168 23.3003H22.8262ZM11.8552 14.2616C10.824 14.2616 9.94116 13.8944 9.20679 13.16C8.47241 12.4257 8.10522 11.5428 8.10522 10.5116C8.10522 9.48035 8.47241 8.59753 9.20679 7.86316C9.94116 7.12878 10.824 6.7616 11.8552 6.7616C12.8865 6.7616 13.7693 7.12878 14.5037 7.86316C15.238 8.59753 15.6052 9.48035 15.6052 10.5116C15.6052 11.5428 15.238 12.4257 14.5037 13.16C13.7693 13.8944 12.8865 14.2616 11.8552 14.2616ZM20.9418 10.5116C20.9418 11.5428 20.5746 12.4257 19.8402 13.16C19.1059 13.8944 18.223 14.2616 17.1918 14.2616C17.1389 14.2616 17.0715 14.2557 16.9896 14.2438C16.9079 14.2317 16.8406 14.2185 16.7877 14.2041C17.2113 13.6853 17.5367 13.1099 17.764 12.4778C17.9915 11.8458 18.1052 11.1894 18.1052 10.5088C18.1052 9.82816 17.9862 9.17774 17.748 8.55753C17.5101 7.93733 17.19 7.35795 16.7877 6.81941C16.855 6.79545 16.9223 6.77983 16.9896 6.77253C17.0569 6.76524 17.1243 6.7616 17.1918 6.7616C18.223 6.7616 19.1059 7.12878 19.8402 7.86316C20.5746 8.59753 20.9418 9.48035 20.9418 10.5116Z" fill="#10B981"/>
</g>
</g>
</svg>
