<svg width="30" height="30" viewBox="0 0 30 30" fill="none" xmlns="http://www.w3.org/2000/svg">
<g id="variants=home, focus=false">
<mask id="mask0_20_3386" style="mask-type:alpha" maskUnits="userSpaceOnUse" x="0" y="0" width="30" height="30">
<rect id="Bounding box" width="30" height="30" fill="#D9D9D9"/>
</mask>
<g mask="url(#mask0_20_3386)">
<path id="home" d="M7.9082 23.9331H12.5236V17.5869C12.5236 17.3008 12.6203 17.0611 12.8139 16.8676C13.0074 16.674 13.2471 16.5773 13.5332 16.5773H17.2832C17.5693 16.5773 17.809 16.674 18.0025 16.8676C18.1961 17.0611 18.2928 17.3008 18.2928 17.5869V23.9331H22.9082V13.0677C22.9082 12.9395 22.8802 12.8233 22.8241 12.7191C22.768 12.6149 22.6918 12.5228 22.5957 12.4427L15.8649 7.37055C15.7367 7.25836 15.5845 7.20227 15.4082 7.20227C15.2319 7.20227 15.0797 7.25836 14.9515 7.37055L8.2207 12.4427C8.12456 12.5228 8.04843 12.6149 7.99233 12.7191C7.93624 12.8233 7.9082 12.9395 7.9082 13.0677V23.9331ZM6.6582 23.9331V13.0677C6.6582 12.7479 6.72971 12.4451 6.87273 12.159C7.01578 11.873 7.21349 11.6374 7.46589 11.4523L14.1967 6.35612C14.5489 6.08689 14.9515 5.95227 15.4044 5.95227C15.8572 5.95227 16.2624 6.08689 16.6197 6.35612L23.3505 11.4523C23.6029 11.6374 23.8006 11.873 23.9437 12.159C24.0867 12.4451 24.1582 12.7479 24.1582 13.0677V23.9331C24.1582 24.268 24.0336 24.5601 23.7844 24.8093C23.5352 25.0585 23.2431 25.1831 22.9082 25.1831H18.0524C17.7664 25.1831 17.5266 25.0863 17.3331 24.8928C17.1396 24.6993 17.0428 24.4595 17.0428 24.1735V17.8273H13.7736V24.1735C13.7736 24.4595 13.6768 24.6993 13.4833 24.8928C13.2898 25.0863 13.05 25.1831 12.764 25.1831H7.9082C7.57327 25.1831 7.28119 25.0585 7.03198 24.8093C6.7828 24.5601 6.6582 24.268 6.6582 23.9331Z" fill="#525252"/>
</g>
</g>
</svg>
