<svg width="50" height="51" viewBox="0 0 50 51" fill="none" xmlns="http://www.w3.org/2000/svg">
<g id="btn_kakao" clip-path="url(#clip0_63_3939)">
<g id="Vector">
<path d="M25 50.5C38.8071 50.5 50 39.3071 50 25.5C50 11.6929 38.8071 0.5 25 0.5C11.1929 0.5 0 11.6929 0 25.5C0 39.3071 11.1929 50.5 25 50.5Z" fill="#FEE500"/>
<path d="M25.0723 12.5657C17.2943 12.5657 11.0217 17.5837 11.0217 23.6757C11.0217 27.63 13.6311 31.0925 17.5452 33.0695L16.2205 38.0175C16.1955 38.0915 16.1917 38.1712 16.2094 38.2472C16.2271 38.3235 16.2657 38.3935 16.3208 38.449C16.4012 38.5197 16.5047 38.559 16.6119 38.5592C16.7008 38.5522 16.7851 38.517 16.8527 38.459L22.5533 34.6152C23.3948 34.7313 24.243 34.7915 25.0925 34.7957C32.8605 34.7957 39.143 29.7778 39.143 23.6757C39.143 17.5737 32.8403 12.5657 25.0723 12.5657Z" fill="#392020"/>
</g>
</g>
<defs>
<clipPath id="clip0_63_3939">
<rect width="50" height="50" fill="white" transform="translate(0 0.5)"/>
</clipPath>
</defs>
</svg>
