<svg width="50" height="51" viewBox="0 0 50 51" fill="none" xmlns="http://www.w3.org/2000/svg">
<g id="btn_apple">
<rect y="0.5" width="50" height="50" rx="25" fill="black"/>
<g id="Vector">
<path d="M50 25.5C50 39.3071 38.8071 50.5 25 50.5C11.1929 50.5 0 39.3071 0 25.5C0 11.6929 11.1929 0.5 25 0.5C38.8071 0.5 50 11.6929 50 25.5Z" fill="black"/>
<path d="M35.5869 30.7619C35.1901 31.6702 34.7204 32.5064 34.1762 33.2751C33.4346 34.3232 32.8272 35.0486 32.3592 35.4514C31.6336 36.1126 30.8563 36.4513 30.0238 36.4705C29.4262 36.4705 28.7056 36.302 27.8666 35.9601C27.0249 35.6199 26.2514 35.4514 25.5442 35.4514C24.8025 35.4514 24.007 35.6199 23.1561 35.9601C22.3039 36.302 21.6174 36.4801 21.0925 36.4978C20.2942 36.5315 19.4985 36.1832 18.7043 35.4514C18.1974 35.0132 17.5634 34.2622 16.8038 33.1981C15.9889 32.0618 15.3189 30.7443 14.794 29.2421C14.2318 27.6196 13.95 26.0484 13.95 24.5273C13.95 22.7848 14.33 21.282 15.091 20.0226C15.6891 19.011 16.4848 18.2131 17.4806 17.6273C18.4765 17.0415 19.5525 16.743 20.7112 16.7239C21.3453 16.7239 22.1767 16.9183 23.21 17.3002C24.2403 17.6835 24.9019 17.8778 25.1919 17.8778C25.4088 17.8778 26.1438 17.6506 27.3897 17.1975C28.5679 16.7774 29.5623 16.6034 30.3769 16.6719C32.5843 16.8485 34.2427 17.7108 35.3456 19.2643C33.3714 20.4497 32.3948 22.1099 32.4142 24.2398C32.432 25.8988 33.0394 27.2792 34.2329 28.3754C34.7738 28.8842 35.3779 29.2773 36.05 29.5566C35.9043 29.9756 35.7504 30.3767 35.5869 30.7619ZM30.5243 11.0201C30.5243 12.3204 30.0448 13.5345 29.0893 14.6583C27.9362 15.9942 26.5415 16.7661 25.029 16.6443C25.0098 16.4883 24.9986 16.3241 24.9986 16.1516C24.9986 14.9033 25.547 13.5674 26.5208 12.4751C27.007 11.9221 27.6253 11.4622 28.3751 11.0954C29.1234 10.7341 29.8311 10.5342 30.4967 10.5C30.5161 10.6738 30.5243 10.8477 30.5243 11.0201Z" fill="white"/>
</g>
</g>
</svg>
