<svg width="50" height="50" viewBox="0 0 50 50" fill="none" xmlns="http://www.w3.org/2000/svg">
<g id="btn_google">
<circle id="Ellipse 3" cx="25" cy="25" r="24.5" stroke="#E7E5E4"/>
<g id="Vector">
<path fill-rule="evenodd" clip-rule="evenodd" d="M36.96 25.2832C36.96 24.3997 36.8807 23.5503 36.7335 22.7349H25V27.554H31.7049C31.416 29.1113 30.5383 30.4308 29.2188 31.3141V34.4401H33.2451C35.601 32.2711 36.96 29.0773 36.96 25.2832Z" fill="#4285F4"/>
<path fill-rule="evenodd" clip-rule="evenodd" d="M25 37.4581C28.3638 37.4581 31.1838 36.3427 33.2451 34.4401L29.2188 31.3141C28.1032 32.0616 26.6761 32.5031 25 32.5031C21.7551 32.5031 19.0086 30.3116 18.029 27.3669H13.8667V30.5948C15.9167 34.6664 20.1299 37.4581 25 37.4581Z" fill="#34A853"/>
<path fill-rule="evenodd" clip-rule="evenodd" d="M18.029 27.3669C17.7798 26.6194 17.6383 25.8212 17.6383 25.0001C17.6383 24.1789 17.7798 23.3805 18.029 22.633V19.4051H13.8668C13.023 21.087 12.5417 22.9898 12.5417 25.0001C12.5417 27.0103 13.023 28.9129 13.8667 30.5948L18.029 27.3669Z" fill="#FBBC05"/>
<path fill-rule="evenodd" clip-rule="evenodd" d="M25 17.4967C26.8291 17.4967 28.4713 18.1253 29.7624 19.3598L33.3357 15.7865C31.1781 13.7762 28.358 12.5417 25 12.5417C20.1299 12.5417 15.9167 15.3335 13.8668 19.4051L18.029 22.633C19.0087 19.6883 21.7551 17.4967 25 17.4967Z" fill="#EA4335"/>
</g>
</g>
</svg>
