<svg width="46" height="52" viewBox="0 0 46 52" fill="none" xmlns="http://www.w3.org/2000/svg">
<rect width="46" height="52" rx="6" fill="#F4F4F5"/>
<mask id="mask0_1657_2308" style="mask-type:alpha" maskUnits="userSpaceOnUse" x="13" y="16" width="20" height="20">
<rect x="13" y="16" width="20" height="20" fill="#D9D9D9"/>
</mask>
<g mask="url(#mask0_1657_2308)">
<path d="M22.9992 33.8413C22.8995 33.8413 22.8063 33.8232 22.7198 33.7869C22.6333 33.7505 22.551 33.6934 22.4729 33.6155L17.8783 29.0336C17.7631 28.9183 17.704 28.7733 17.7013 28.5986C17.6986 28.4239 17.755 28.2746 17.8704 28.1507C17.9943 28.0214 18.1428 27.9581 18.3158 27.9609C18.4889 27.9635 18.6374 28.0268 18.7615 28.1507L22.3752 31.7692V26.4392C22.3752 26.2621 22.4351 26.1137 22.555 25.9938C22.6749 25.8741 22.8233 25.8142 23.0004 25.8142C23.1776 25.8142 23.3261 25.8741 23.4456 25.9938C23.5654 26.1137 23.6252 26.2621 23.6252 26.4392V31.7773L27.2598 28.1507C27.3738 28.0353 27.5164 27.9775 27.6875 27.9775C27.8586 27.9775 28.0066 28.0396 28.1315 28.1636C28.2459 28.2772 28.3031 28.4218 28.3031 28.5973C28.3031 28.7729 28.2454 28.9183 28.13 29.0336L23.5275 33.6155C23.4495 33.6934 23.3668 33.7505 23.2796 33.7869C23.1924 33.8232 23.0989 33.8413 22.9992 33.8413ZM23 24.1475C22.8228 24.1475 22.6744 24.0876 22.5548 23.9678C22.4351 23.848 22.3752 23.6996 22.3752 23.5225V22.2725C22.3752 22.0955 22.4351 21.947 22.555 21.8271C22.6749 21.7074 22.8233 21.6475 23.0004 21.6475C23.1776 21.6475 23.3261 21.7074 23.4456 21.8271C23.5654 21.947 23.6252 22.0955 23.6252 22.2725V23.5305C23.6252 23.7053 23.5653 23.8518 23.4454 23.97C23.3256 24.0884 23.1771 24.1475 23 24.1475ZM23 19.9809C22.8228 19.9809 22.6744 19.9209 22.5548 19.8011C22.4351 19.6814 22.3752 19.533 22.3752 19.3559V18.9392C22.3752 18.7621 22.4351 18.6137 22.555 18.4938C22.6749 18.3741 22.8233 18.3142 23.0004 18.3142C23.1776 18.3142 23.3261 18.3741 23.4456 18.4938C23.5654 18.6137 23.6252 18.7621 23.6252 18.9392V19.3638C23.6252 19.5387 23.5653 19.6852 23.4454 19.8034C23.3256 19.9217 23.1771 19.9809 23 19.9809Z" fill="#525252"/>
</g>
</svg>
