<svg width="62" height="60" viewBox="0 0 62 60" fill="none" xmlns="http://www.w3.org/2000/svg">
<rect width="62" height="60" rx="6" fill="#F4F4F5"/>
<mask id="mask0_1657_20340" style="mask-type:alpha" maskUnits="userSpaceOnUse" x="16" y="15" width="30" height="30">
<rect x="16" y="15" width="30" height="30" fill="#D9D9D9"/>
</mask>
<g mask="url(#mask0_1657_20340)">
<path d="M30.999 29.9998C30.8217 29.9998 30.6734 29.9399 30.554 29.8202C30.4346 29.7004 30.3749 29.5519 30.3749 29.3748V21.0792L24.3462 27.1008C24.2291 27.2179 24.0909 27.2736 23.9315 27.268C23.7719 27.2623 23.6298 27.1986 23.5052 27.0767C23.3911 26.9651 23.334 26.823 23.334 26.6505C23.334 26.478 23.3925 26.3332 23.5096 26.2161L30.293 19.4327C30.4022 19.3237 30.5147 19.2471 30.6305 19.203C30.7464 19.1588 30.8705 19.1367 31.003 19.1367C31.1355 19.1367 31.2587 19.1588 31.3724 19.203C31.4862 19.2471 31.5976 19.3237 31.7068 19.4327L38.5143 26.2402C38.6314 26.3533 38.6899 26.4945 38.6899 26.6639C38.6899 26.8333 38.6314 26.9789 38.5143 27.1008C38.3926 27.2387 38.244 27.3036 38.0684 27.2955C37.8929 27.2876 37.7443 27.2227 37.6224 27.1008L31.6249 21.1033V29.3748C31.6249 29.5519 31.5649 29.7004 31.4449 29.8202C31.3249 29.9399 31.1763 29.9998 30.999 29.9998ZM30.999 36.2498C30.8217 36.2498 30.6734 36.1899 30.554 36.0702C30.4346 35.9504 30.3749 35.8019 30.3749 35.6248V33.1248C30.3749 32.9478 30.4349 32.7993 30.5549 32.6795C30.6749 32.5597 30.8236 32.4998 31.0009 32.4998C31.1782 32.4998 31.3265 32.5597 31.4459 32.6795C31.5652 32.7993 31.6249 32.9478 31.6249 33.1248V35.6248C31.6249 35.8019 31.5649 35.9504 31.4449 36.0702C31.3249 36.1899 31.1763 36.2498 30.999 36.2498ZM30.999 41.2498C30.8217 41.2498 30.6734 41.1899 30.554 41.0702C30.4346 40.9504 30.3749 40.8019 30.3749 40.6248V39.3748C30.3749 39.1978 30.4349 39.0493 30.5549 38.9295C30.6749 38.8097 30.8236 38.7498 31.0009 38.7498C31.1782 38.7498 31.3265 38.8097 31.4459 38.9295C31.5652 39.0493 31.6249 39.1978 31.6249 39.3748V40.6248C31.6249 40.8019 31.5649 40.9504 31.4449 41.0702C31.3249 41.1899 31.1763 41.2498 30.999 41.2498Z" fill="#525252"/>
</g>
</svg>
