<svg width="21" height="20" viewBox="0 0 21 20" fill="none" xmlns="http://www.w3.org/2000/svg">
<g id="chat">
<mask id="mask0_3192_35367" style="mask-type:alpha" maskUnits="userSpaceOnUse" x="0" y="0" width="21" height="20">
<rect id="Bounding box" x="0.081543" width="20" height="20" fill="#D9D9D9"/>
</mask>
<g mask="url(#mask0_3192_35367)">
<path id="chat_bubble" d="M5.11367 14.5833L3.44533 16.2514C3.20825 16.4886 2.93554 16.5423 2.62721 16.4126C2.31901 16.2828 2.16492 16.049 2.16492 15.7114V3.58971C2.16492 3.16874 2.31075 2.81242 2.60242 2.52075C2.89408 2.22909 3.2504 2.08325 3.67138 2.08325H16.4918C16.9128 2.08325 17.2691 2.22909 17.5608 2.52075C17.8524 2.81242 17.9983 3.16874 17.9983 3.58971V13.0768C17.9983 13.4978 17.8524 13.8541 17.5608 14.1458C17.2691 14.4374 16.9128 14.5833 16.4918 14.5833H5.11367ZM4.58158 13.3333H16.4918C16.556 13.3333 16.6147 13.3065 16.668 13.253C16.7215 13.1997 16.7483 13.141 16.7483 13.0768V3.58971C16.7483 3.52554 16.7215 3.46679 16.668 3.41346C16.6147 3.35999 16.556 3.33325 16.4918 3.33325H3.67138C3.60721 3.33325 3.54846 3.35999 3.49513 3.41346C3.44165 3.46679 3.41492 3.52554 3.41492 3.58971V14.4872L4.58158 13.3333Z" fill="#171717"/>
</g>
</g>
</svg>
