<svg width="20" height="22" viewBox="0 0 20 22" fill="none" xmlns="http://www.w3.org/2000/svg">
<mask id="mask0_877_30283" style="mask-type:alpha" maskUnits="userSpaceOnUse" x="0" y="0" width="20" height="22">
<rect y="0.666748" width="20" height="20.6667" fill="#D9D9D9"/>
</mask>
<g mask="url(#mask0_877_30283)">
<path d="M6.99984 15.3058L9.99984 12.2058L12.9998 15.3058L14.1665 14.1003L11.1665 11.0003L14.1665 7.90027L12.9998 6.69472L9.99984 9.79472L6.99984 6.69472L5.83317 7.90027L8.83317 11.0003L5.83317 14.1003L6.99984 15.3058ZM9.99984 19.6114C8.84706 19.6114 7.76373 19.3853 6.74984 18.9333C5.73595 18.4812 4.854 17.8676 4.104 17.0926C3.354 16.3176 2.76025 15.4063 2.32275 14.3586C1.88525 13.3109 1.6665 12.1915 1.6665 11.0003C1.6665 9.80907 1.88525 8.68962 2.32275 7.64194C2.76025 6.59425 3.354 5.68291 4.104 4.90791C4.854 4.13291 5.73595 3.51937 6.74984 3.06729C7.76373 2.6152 8.84706 2.38916 9.99984 2.38916C11.1526 2.38916 12.2359 2.6152 13.2498 3.06729C14.2637 3.51937 15.1457 4.13291 15.8957 4.90791C16.6457 5.68291 17.2394 6.59425 17.6769 7.64194C18.1144 8.68962 18.3332 9.80907 18.3332 11.0003C18.3332 12.1915 18.1144 13.3109 17.6769 14.3586C17.2394 15.4063 16.6457 16.3176 15.8957 17.0926C15.1457 17.8676 14.2637 18.4812 13.2498 18.9333C12.2359 19.3853 11.1526 19.6114 9.99984 19.6114Z" fill="#EF4444"/>
</g>
</svg>
