<svg width="14" height="15" viewBox="0 0 14 15" fill="none" xmlns="http://www.w3.org/2000/svg">
<g id="group">
<mask id="mask0_3093_28048" style="mask-type:alpha" maskUnits="userSpaceOnUse" x="0" y="0" width="14" height="15">
<rect id="Bounding box" y="0.5" width="14" height="14" fill="#D9D9D9"/>
</mask>
<g mask="url(#mask0_3093_28048)">
<path id="group_2" d="M1.04883 11.7629V10.4661C1.04883 10.1655 1.12642 9.89719 1.28161 9.66125C1.43678 9.4253 1.64402 9.24172 1.90332 9.11052C2.45769 8.83937 3.01514 8.63032 3.57565 8.48337C4.13618 8.33642 4.75223 8.26294 5.42381 8.26294C6.0954 8.26294 6.71144 8.33642 7.27196 8.48337C7.83248 8.63032 8.38993 8.83937 8.9443 9.11052C9.2036 9.24172 9.41084 9.4253 9.56602 9.66125C9.7212 9.89719 9.79878 10.1655 9.79878 10.4661V11.7629H1.04883ZM10.9655 11.7629V10.3943C10.9655 10.0114 10.8717 9.64651 10.6842 9.29957C10.4967 8.95263 10.2307 8.65495 9.88631 8.40653C10.2774 8.46486 10.6487 8.55517 11.0002 8.67744C11.3517 8.79972 11.6871 8.94424 12.0065 9.11101C12.3079 9.27179 12.5406 9.4613 12.7048 9.67952C12.8689 9.89776 12.951 10.136 12.951 10.3943V11.7629H10.9655ZM5.42381 7.32059C4.86237 7.32059 4.38173 7.12069 3.9819 6.72087C3.58207 6.32104 3.38216 5.84041 3.38216 5.27896C3.38216 4.7175 3.58207 4.23686 3.9819 3.83704C4.38173 3.43722 4.86237 3.2373 5.42381 3.2373C5.98526 3.2373 6.4659 3.43722 6.86573 3.83704C7.26554 4.23686 7.46545 4.7175 7.46545 5.27896C7.46545 5.84041 7.26554 6.32104 6.86573 6.72087C6.4659 7.12069 5.98526 7.32059 5.42381 7.32059ZM10.4606 5.27896C10.4606 5.84041 10.2607 6.32104 9.86088 6.72087C9.46105 7.12069 8.98042 7.32059 8.41897 7.32059C8.35316 7.32059 8.2694 7.31312 8.1677 7.29817C8.06599 7.28321 7.98224 7.26676 7.91643 7.24882C8.14647 6.97225 8.32327 6.66543 8.44681 6.32836C8.57035 5.99129 8.63212 5.64126 8.63212 5.27826C8.63212 4.91527 8.56911 4.56662 8.4431 4.23233C8.31709 3.89804 8.14153 3.59029 7.91643 3.3091C8.00018 3.27918 8.08394 3.25974 8.1677 3.25077C8.25145 3.24179 8.33521 3.2373 8.41897 3.2373C8.98042 3.2373 9.46105 3.43722 9.86088 3.83704C10.2607 4.23686 10.4606 4.7175 10.4606 5.27896ZM1.92381 10.8879H8.92381V10.4661C8.92381 10.3442 8.89334 10.2358 8.83239 10.1408C8.77143 10.0458 8.67477 9.9628 8.5424 9.89175C8.06227 9.64422 7.56793 9.45669 7.05939 9.32917C6.55084 9.20166 6.00565 9.13791 5.42381 9.13791C4.84198 9.13791 4.29678 9.20166 3.78823 9.32917C3.27969 9.45669 2.78536 9.64422 2.30523 9.89175C2.17286 9.9628 2.07619 10.0458 2.01524 10.1408C1.95429 10.2358 1.92381 10.3442 1.92381 10.4661V10.8879ZM5.42381 6.44562C5.74465 6.44562 6.0193 6.33139 6.24777 6.10292C6.47624 5.87444 6.59048 5.59979 6.59048 5.27896C6.59048 4.95812 6.47624 4.68347 6.24777 4.455C6.0193 4.22653 5.74465 4.11229 5.42381 4.11229C5.10298 4.11229 4.82833 4.22653 4.59986 4.455C4.37138 4.68347 4.25715 4.95812 4.25715 5.27896C4.25715 5.59979 4.37138 5.87444 4.59986 6.10292C4.82833 6.33139 5.10298 6.44562 5.42381 6.44562Z" fill="#737373"/>
</g>
</g>
</svg>
