<svg width="14" height="14" viewBox="0 0 14 14" fill="none" xmlns="http://www.w3.org/2000/svg">
<g id="event_repeat">
<mask id="mask0_3093_28080" style="mask-type:alpha" maskUnits="userSpaceOnUse" x="0" y="0" width="14" height="14">
<rect id="Bounding box" width="14" height="14" fill="#D9D9D9"/>
</mask>
<g mask="url(#mask0_3093_28080)">
<path id="event_repeat_2" d="M3.09624 12.5417C2.80158 12.5417 2.55216 12.4396 2.348 12.2355C2.14383 12.0313 2.04175 11.7819 2.04175 11.4872V3.67957C2.04175 3.38491 2.14383 3.1355 2.348 2.93133C2.55216 2.72717 2.80158 2.62508 3.09624 2.62508H3.90394V1.39111H4.80135V2.62508H9.22121V1.39111H10.0962V2.62508H10.9039C11.1986 2.62508 11.448 2.72717 11.6521 2.93133C11.8563 3.1355 11.9584 3.38491 11.9584 3.67957V7.08981H11.0834V6.01291H2.91673V11.4872C2.91673 11.5321 2.93543 11.5732 2.97282 11.6106C3.01022 11.648 3.05136 11.6667 3.09624 11.6667H7.08421V12.5417H3.09624ZM11.0834 13.9103C10.4186 13.9103 9.83336 13.706 9.3278 13.2973C8.82224 12.8886 8.49393 12.375 8.34287 11.7565H9.06753C9.20887 12.188 9.46072 12.5389 9.82307 12.8093C10.1854 13.0796 10.6055 13.2148 11.0834 13.2148C11.6735 13.2148 12.1762 13.0071 12.5917 12.5917C13.0071 12.1762 13.2148 11.6735 13.2148 11.0834C13.2148 10.4933 13.0071 9.99058 12.5917 9.57515C12.1762 9.15971 11.6735 8.95199 11.0834 8.95199C10.7641 8.95199 10.4623 9.02079 10.1781 9.1584C9.89391 9.29601 9.64636 9.48148 9.43547 9.71481H10.4103V10.4103H8.25648V8.25648H8.95199V9.21113C9.22196 8.92471 9.5413 8.69399 9.91 8.51898C10.2787 8.34398 10.6698 8.25648 11.0834 8.25648C11.8642 8.25648 12.5305 8.53244 13.0824 9.08436C13.6344 9.63629 13.9103 10.3026 13.9103 11.0834C13.9103 11.8642 13.6344 12.5305 13.0824 13.0824C12.5305 13.6344 11.8642 13.9103 11.0834 13.9103ZM2.91673 5.13792H11.0834V3.67957C11.0834 3.6347 11.0647 3.59356 11.0273 3.55616C10.9899 3.51876 10.9488 3.50007 10.9039 3.50007H3.09624C3.05136 3.50007 3.01022 3.51876 2.97282 3.55616C2.93543 3.59356 2.91673 3.6347 2.91673 3.67957V5.13792Z" fill="#737373"/>
</g>
</g>
</svg>
