<svg width="16" height="17" viewBox="0 0 16 17" fill="none" xmlns="http://www.w3.org/2000/svg">
<g id="where_to_vote">
<mask id="mask0_772_29865" style="mask-type:alpha" maskUnits="userSpaceOnUse" x="0" y="0" width="16" height="17">
<rect id="Bounding box" y="0.985352" width="16" height="16" fill="#D9D9D9"/>
</mask>
<g mask="url(#mask0_772_29865)">
<path id="where_to_vote_2" d="M7.3003 8.20956L6.71823 7.62749C6.6191 7.52835 6.50307 7.47771 6.37016 7.47557C6.23726 7.47343 6.11911 7.52407 6.0157 7.62749C5.91227 7.7309 5.86056 7.8497 5.86056 7.98389C5.86056 8.11808 5.91227 8.23688 6.0157 8.34029L6.87851 9.21336C6.99902 9.33387 7.13962 9.39412 7.3003 9.39412C7.46097 9.39412 7.60157 9.33387 7.72208 9.21336L10.0182 6.91721C10.1174 6.81807 10.168 6.70035 10.1702 6.56402C10.1723 6.4277 10.1217 6.30783 10.0182 6.20441C9.91482 6.10099 9.79602 6.04929 9.66183 6.04929C9.52765 6.04929 9.40885 6.10099 9.30543 6.20441L7.3003 8.20956ZM13.0323 7.81722C13.0323 8.35141 12.9201 8.90419 12.6958 9.47557C12.4714 10.0469 12.1678 10.6256 11.7849 11.2115C11.402 11.7974 10.9498 12.3813 10.4285 12.9634C9.90711 13.5454 9.34728 14.1121 8.74899 14.6634C8.64387 14.7574 8.52529 14.8279 8.39325 14.8749C8.26119 14.9219 8.13021 14.9454 8.0003 14.9454C7.87038 14.9454 7.74047 14.923 7.61056 14.8781C7.48065 14.8332 7.36313 14.7638 7.258 14.6698C6.65972 14.1185 6.0999 13.5508 5.57853 12.9666C5.05716 12.3824 4.60396 11.7984 4.21891 11.2147C3.83387 10.6309 3.52917 10.0523 3.30481 9.47877C3.08044 8.90526 2.96826 8.35141 2.96826 7.81722C2.96826 6.27878 3.46591 5.03327 4.46121 4.08071C5.4565 3.12814 6.6362 2.65186 8.0003 2.65186C9.3644 2.65186 10.5441 3.12814 11.5394 4.08071C12.5347 5.03327 13.0323 6.27878 13.0323 7.81722Z" fill="#737373"/>
</g>
</g>
</svg>
