<svg width="36" height="36" viewBox="0 0 36 36" fill="none" xmlns="http://www.w3.org/2000/svg">
<path d="M8.85542 19.5134C9.24434 19.114 9.88479 19.1097 10.279 19.5039L15.9333 25.1582C16.3275 25.5524 16.3232 26.1929 15.9238 26.5818L12.3749 30.0373C10.4624 31.9498 7.3124 31.9498 5.3999 30.0373C3.4874 28.1248 3.4874 24.9748 5.3999 23.0623L8.85542 19.5134Z" stroke="#D4D4D4" stroke-width="2.4" stroke-miterlimit="10" stroke-linecap="round" stroke-linejoin="round"/>
<path d="M21.0603 8.87456C21.3169 8.54414 21.7522 8.40844 22.1511 8.53443L25.2664 9.51822C25.5773 9.61637 25.8207 9.85985 25.9189 10.1707L26.9027 13.286C27.0287 13.685 26.893 14.1202 26.5625 14.3768L15.209 23.1961C14.8109 23.5053 14.2449 23.4699 13.8885 23.1135L12.3236 21.5486C11.9672 21.1922 11.9318 20.6262 12.241 20.2281L21.0603 8.87456Z" stroke="#D4D4D4" stroke-width="2.4" stroke-miterlimit="10" stroke-linecap="round" stroke-linejoin="round"/>
<path d="M16.65 25.875L30.9307 19.0592C31.2785 18.8932 31.5 18.5421 31.5 18.1567L31.5 16.6148C31.5 16.2248 31.2732 15.8703 30.9191 15.7069L27.1125 13.95" stroke="#D4D4D4" stroke-width="2.4" stroke-miterlimit="10" stroke-linecap="round" stroke-linejoin="round"/>
<path d="M9.5623 18.7876L16.3821 3.9573C16.5452 3.60247 16.9001 3.3751 17.2906 3.3751L18.791 3.3751C19.197 3.3751 19.5628 3.62064 19.7165 3.99646L21.4873 8.3251" stroke="#D4D4D4" stroke-width="2.4" stroke-miterlimit="10" stroke-linecap="round" stroke-linejoin="round"/>
<path d="M13.8374 28.6875L6.7499 21.6" stroke="#D4D4D4" stroke-width="2.4" stroke-miterlimit="10" stroke-linecap="round" stroke-linejoin="round"/>
</svg>
