<svg width="18" height="19" viewBox="0 0 18 19" fill="none" xmlns="http://www.w3.org/2000/svg">
<g id="groups">
<mask id="mask0_3064_808" style="mask-type:alpha" maskUnits="userSpaceOnUse" x="0" y="0" width="18" height="19">
<rect id="Bounding box" y="0.985352" width="18" height="18" fill="#D9D9D9"/>
</mask>
<g mask="url(#mask0_3064_808)">
<path id="groups_2" d="M0.75 14.4854C0.5375 14.4854 0.359375 14.4135 0.215625 14.2697C0.071875 14.126 0 13.9479 0 13.7354V13.3041C0 12.7666 0.275 12.3291 0.825 11.9916C1.375 11.6541 2.1 11.4854 3 11.4854C3.1625 11.4854 3.31875 11.4885 3.46875 11.4947C3.61875 11.501 3.7625 11.5166 3.9 11.5416C3.725 11.8041 3.59375 12.0791 3.50625 12.3666C3.41875 12.6541 3.375 12.9541 3.375 13.2666V14.4854H0.75ZM5.25 14.4854C5.0375 14.4854 4.85938 14.4135 4.71562 14.2697C4.57188 14.126 4.5 13.9479 4.5 13.7354V13.2666C4.5 12.8666 4.60938 12.501 4.82812 12.1697C5.04688 11.8385 5.35625 11.5479 5.75625 11.2979C6.15625 11.0479 6.63438 10.8604 7.19063 10.7354C7.74688 10.6104 8.35 10.5479 9 10.5479C9.6625 10.5479 10.2719 10.6104 10.8281 10.7354C11.3844 10.8604 11.8625 11.0479 12.2625 11.2979C12.6625 11.5479 12.9688 11.8385 13.1813 12.1697C13.3938 12.501 13.5 12.8666 13.5 13.2666V13.7354C13.5 13.9479 13.4281 14.126 13.2844 14.2697C13.1406 14.4135 12.9625 14.4854 12.75 14.4854H5.25ZM14.625 14.4854V13.2666C14.625 12.9416 14.5844 12.6354 14.5031 12.3479C14.4219 12.0604 14.3 11.7916 14.1375 11.5416C14.275 11.5166 14.4156 11.501 14.5594 11.4947C14.7031 11.4885 14.85 11.4854 15 11.4854C15.9 11.4854 16.625 11.651 17.175 11.9822C17.725 12.3135 18 12.7541 18 13.3041V13.7354C18 13.9479 17.9281 14.126 17.7844 14.2697C17.6406 14.4135 17.4625 14.4854 17.25 14.4854H14.625ZM3 10.7354C2.5875 10.7354 2.23438 10.5885 1.94063 10.2947C1.64688 10.001 1.5 9.64785 1.5 9.23535C1.5 8.81035 1.64688 8.4541 1.94063 8.1666C2.23438 7.8791 2.5875 7.73535 3 7.73535C3.425 7.73535 3.78125 7.8791 4.06875 8.1666C4.35625 8.4541 4.5 8.81035 4.5 9.23535C4.5 9.64785 4.35625 10.001 4.06875 10.2947C3.78125 10.5885 3.425 10.7354 3 10.7354ZM15 10.7354C14.5875 10.7354 14.2344 10.5885 13.9406 10.2947C13.6469 10.001 13.5 9.64785 13.5 9.23535C13.5 8.81035 13.6469 8.4541 13.9406 8.1666C14.2344 7.8791 14.5875 7.73535 15 7.73535C15.425 7.73535 15.7813 7.8791 16.0688 8.1666C16.3563 8.4541 16.5 8.81035 16.5 9.23535C16.5 9.64785 16.3563 10.001 16.0688 10.2947C15.7813 10.5885 15.425 10.7354 15 10.7354ZM9 9.98535C8.375 9.98535 7.84375 9.7666 7.40625 9.3291C6.96875 8.8916 6.75 8.36035 6.75 7.73535C6.75 7.09785 6.96875 6.56348 7.40625 6.13223C7.84375 5.70098 8.375 5.48535 9 5.48535C9.6375 5.48535 10.1719 5.70098 10.6031 6.13223C11.0344 6.56348 11.25 7.09785 11.25 7.73535C11.25 8.36035 11.0344 8.8916 10.6031 9.3291C10.1719 9.7666 9.6375 9.98535 9 9.98535Z" fill="#0EA5E9"/>
</g>
</g>
</svg>
