<svg width="16" height="17" viewBox="0 0 16 17" fill="none" xmlns="http://www.w3.org/2000/svg">
<g id="calendar_clock">
<mask id="mask0_772_29858" style="mask-type:alpha" maskUnits="userSpaceOnUse" x="0" y="0" width="16" height="17">
<rect id="Bounding box" y="0.985352" width="16" height="16" fill="#D9D9D9"/>
</mask>
<g mask="url(#mask0_772_29858)">
<path id="calendar_clock_2" d="M3.53863 15.3187C3.20187 15.3187 2.91683 15.2021 2.6835 14.9687C2.45016 14.7354 2.3335 14.4504 2.3335 14.1136V5.19058C2.3335 4.85382 2.45016 4.56878 2.6835 4.33545C2.91683 4.10211 3.20187 3.98545 3.53863 3.98545H4.46171V3.088C4.46171 2.94271 4.51095 2.82092 4.60941 2.72263C4.70787 2.62434 4.82987 2.5752 4.97543 2.5752C5.12097 2.5752 5.24268 2.62434 5.34055 2.72263C5.4384 2.82092 5.48733 2.94271 5.48733 3.088V3.98545H10.5386V3.07518C10.5386 2.93351 10.5865 2.81476 10.6824 2.71893C10.7783 2.62311 10.8971 2.5752 11.0388 2.5752C11.1805 2.5752 11.2993 2.62311 11.395 2.71893C11.4907 2.81476 11.5386 2.93351 11.5386 3.07518V3.98545H12.4617C12.7984 3.98545 13.0835 4.10211 13.3168 4.33545C13.5501 4.56878 13.6668 4.85382 13.6668 5.19058V8.33288C13.6668 8.47455 13.6189 8.5933 13.523 8.68913C13.4271 8.78495 13.3083 8.83286 13.1666 8.83286C13.0248 8.83286 12.9061 8.78495 12.8104 8.68913C12.7147 8.5933 12.6668 8.47455 12.6668 8.33288V7.85725H3.33348V14.1136C3.33348 14.1649 3.35485 14.2119 3.39758 14.2547C3.44032 14.2974 3.48734 14.3188 3.53863 14.3188H7.61685C7.75851 14.3188 7.87726 14.3667 7.97308 14.4626C8.06891 14.5584 8.11683 14.6772 8.11683 14.819C8.11683 14.9607 8.06891 15.0794 7.97308 15.1751C7.87726 15.2709 7.75851 15.3187 7.61685 15.3187H3.53863ZM12.1284 15.9854C11.2959 15.9854 10.5878 15.6935 10.004 15.1098C9.42026 14.526 9.12838 13.8179 9.12838 12.9854C9.12838 12.153 9.42026 11.4448 10.004 10.8611C10.5878 10.2773 11.2959 9.98545 12.1284 9.98545C12.9608 9.98545 13.6689 10.2773 14.2527 10.8611C14.8365 11.4448 15.1283 12.153 15.1283 12.9854C15.1283 13.8179 14.8365 14.526 14.2527 15.1098C13.6689 15.6935 12.9608 15.9854 12.1284 15.9854ZM12.4232 12.8637V11.3188C12.4232 11.2401 12.3937 11.1713 12.3348 11.1124C12.2758 11.0534 12.207 11.0239 12.1284 11.0239C12.0497 11.0239 11.9809 11.0534 11.9219 11.1124C11.863 11.1713 11.8335 11.2401 11.8335 11.3188V12.8547C11.8335 12.9331 11.848 13.0092 11.8771 13.0827C11.9061 13.1563 11.9519 13.2243 12.0143 13.2867L13.0309 14.3034C13.0891 14.3615 13.1572 14.3916 13.2354 14.3938C13.3136 14.3959 13.3839 14.3658 13.4463 14.3034C13.5087 14.241 13.5399 14.1717 13.5399 14.0957C13.5399 14.0196 13.5087 13.9504 13.4463 13.888L12.4232 12.8637Z" fill="#737373"/>
</g>
</g>
</svg>
