<svg width="18" height="19" viewBox="0 0 18 19" fill="none" xmlns="http://www.w3.org/2000/svg">
<g id="bolt">
<mask id="mask0_3064_8230" style="mask-type:alpha" maskUnits="userSpaceOnUse" x="0" y="0" width="18" height="19">
<rect id="Bounding box" y="0.985352" width="18" height="18" fill="#D9D9D9"/>
</mask>
<g mask="url(#mask0_3064_8230)">
<path id="bolt_2" d="M6.74998 12.2354H4.42498C4.12498 12.2354 3.9031 12.101 3.75935 11.8322C3.6156 11.5635 3.63123 11.3041 3.80623 11.0541L9.41248 2.99161C9.53748 2.81661 9.69998 2.69473 9.89998 2.62598C10.1 2.55723 10.3062 2.56036 10.5187 2.63536C10.7312 2.71036 10.8875 2.84161 10.9875 3.02911C11.0875 3.21661 11.125 3.41661 11.1 3.62911L10.5 8.48536H13.4062C13.7312 8.48536 13.9594 8.62911 14.0906 8.91661C14.2219 9.20411 14.1812 9.47286 13.9687 9.72286L7.79998 17.1104C7.66248 17.2729 7.49373 17.3791 7.29373 17.4291C7.09373 17.4791 6.89998 17.4604 6.71248 17.3729C6.52498 17.2854 6.3781 17.151 6.27185 16.9697C6.1656 16.7885 6.12498 16.5916 6.14998 16.3791L6.74998 12.2354Z" fill="#EAB308"/>
</g>
</g>
</svg>
