<svg width="80" height="81" viewBox="0 0 80 81" fill="none" xmlns="http://www.w3.org/2000/svg">
<mask id="mask0_1996_37954" style="mask-type:alpha" maskUnits="userSpaceOnUse" x="0" y="0" width="80" height="81">
<rect y="0.5" width="80" height="80" fill="#D9D9D9"/>
</mask>
<g mask="url(#mask0_1996_37954)">
<path d="M63.3334 23.2238V37.4996C63.3334 39.3585 63.1701 41.2785 62.8434 43.2596C62.5162 45.2402 61.9615 47.3243 61.1793 49.5121C60.9615 50.1232 60.639 50.5132 60.2118 50.6821C59.7845 50.851 59.3743 50.8607 58.9809 50.7113C58.5876 50.5618 58.2659 50.3107 58.0159 49.9579C57.7659 49.6052 57.7223 49.1852 57.8851 48.6979C58.5684 47.0146 59.0918 45.1974 59.4551 43.2463C59.8184 41.2957 60.0001 39.3802 60.0001 37.4996V23.1596C60.0001 22.7324 59.8826 22.3479 59.6476 22.0063C59.4126 21.664 59.0815 21.4077 58.6543 21.2371L40.7051 14.5704C40.4918 14.4849 40.2568 14.4421 40.0001 14.4421C39.7434 14.4421 39.5084 14.4849 39.2951 14.5704L28.1668 18.7238C27.8545 18.8604 27.5501 18.8915 27.2534 18.8171C26.9562 18.7421 26.6923 18.5893 26.4618 18.3588C26.0429 17.9399 25.8868 17.4249 25.9934 16.8138C26.1006 16.2027 26.4534 15.7818 27.0518 15.5513L38.1151 11.4804C38.7223 11.2454 39.3506 11.1279 40.0001 11.1279C40.6495 11.1279 41.2779 11.2454 41.8851 11.4804L59.8334 18.1471C60.8545 18.5615 61.6931 19.2282 62.3493 20.1471C63.0054 21.066 63.3334 22.0915 63.3334 23.2238ZM40.0001 70.0379C39.7779 70.0379 39.1476 69.9054 38.1093 69.6404C31.4637 67.1404 26.2287 62.9107 22.4043 56.9513C18.5793 50.9918 16.6668 44.5079 16.6668 37.4996V21.8846L10.7184 15.9354C10.4062 15.6238 10.2395 15.2413 10.2184 14.7879C10.1968 14.3352 10.3634 13.9313 10.7184 13.5763C11.0729 13.2218 11.4659 13.0446 11.8976 13.0446C12.3293 13.0446 12.7223 13.2218 13.0768 13.5763L67.1793 67.6788C67.4915 67.991 67.6581 68.3735 67.6793 68.8263C67.7009 69.2796 67.5343 69.6835 67.1793 70.0379C66.8248 70.3929 66.4318 70.5704 66.0001 70.5704C65.5684 70.5704 65.1754 70.3929 64.8209 70.0379L55.0384 60.2563C53.2479 62.414 51.2662 64.2665 49.0934 65.8138C46.9201 67.361 44.5193 68.6365 41.8909 69.6404C41.6004 69.7515 41.2884 69.8457 40.9551 69.9229C40.6218 69.9996 40.3034 70.0379 40.0001 70.0379ZM40.0001 66.8329C42.3718 66.0935 44.7351 64.8585 47.0901 63.1279C49.4445 61.3968 51.3076 59.6532 52.6793 57.8971L20.0001 25.2179V37.4996C20.0001 44.2218 21.889 50.3329 25.6668 55.8329C29.4445 61.3329 34.2223 64.9996 40.0001 66.8329Z" fill="#A3A3A3"/>
</g>
</svg>
