<svg width="80" height="81" viewBox="0 0 80 81" fill="none" xmlns="http://www.w3.org/2000/svg">
<mask id="mask0_3516_40289" style="mask-type:alpha" maskUnits="userSpaceOnUse" x="0" y="0" width="80" height="81">
<rect y="0.5" width="80" height="80" fill="#D9D9D9"/>
</mask>
<g mask="url(#mask0_3516_40289)">
<path d="M69.186 74.4057L53.9043 59.0782H55.321V59.399C55.321 60.2879 55.0174 61.0357 54.4102 61.6423C53.8035 62.2496 53.0557 62.5532 52.1668 62.5532H12.1152C11.1368 62.5532 10.3154 62.2207 9.651 61.5557C8.98655 60.8912 8.65433 60.0698 8.65433 59.0915V57.0657C8.65433 55.5185 9.05489 54.1882 9.856 53.0748C10.6571 51.9621 11.7352 51.0743 13.0902 50.4115C15.9791 49.0315 18.8485 47.9323 21.6985 47.114C24.5491 46.2957 27.9788 45.8865 31.9877 45.8865C34.0643 45.8865 35.8985 46.0071 37.4902 46.2482C39.0824 46.4898 40.5749 46.8093 41.9677 47.2065L33.1477 38.3865C32.951 38.4287 32.7577 38.4498 32.5677 38.4498H31.9877C29.2182 38.4498 26.8591 37.4757 24.9102 35.5273C22.9618 33.5785 21.9877 31.2193 21.9877 28.4498V27.8698C21.9877 27.6798 22.0088 27.4865 22.051 27.2898L7.4685 12.7065C7.1435 12.3821 6.97016 11.9965 6.9485 11.5498C6.92739 11.1032 7.10072 10.696 7.4685 10.3282C7.83572 9.96095 8.23183 9.77734 8.65683 9.77734C9.08239 9.77734 9.47877 9.96095 9.846 10.3282L71.5643 72.0465C71.8893 72.371 72.0624 72.7535 72.0835 73.194C72.1046 73.634 71.9316 74.0379 71.5643 74.4057C71.1966 74.7729 70.8002 74.9565 70.3752 74.9565C69.9502 74.9565 69.5538 74.7729 69.186 74.4057ZM57.4877 47.0273C59.1243 47.3607 60.7013 47.8232 62.2185 48.4148C63.7352 49.0071 65.2352 49.6726 66.7185 50.4115C68.1629 51.1382 69.2954 52.0646 70.116 53.1907C70.936 54.3168 71.346 55.5571 71.346 56.9115V62.3607H71.2502L61.186 52.2965C60.8143 51.2748 60.3241 50.3187 59.7152 49.4282C59.1063 48.5371 58.3638 47.7368 57.4877 47.0273ZM31.9877 49.2198C28.4488 49.2198 25.3013 49.5735 22.5452 50.2807C19.7885 50.9879 17.1666 52.006 14.6793 53.3348C13.6666 53.8693 12.9646 54.429 12.5735 55.014C12.1829 55.5996 11.9877 56.2835 11.9877 57.0657V59.2198H51.9877V57.2257L47.0452 52.2832C44.8913 51.2621 42.606 50.4962 40.1893 49.9857C37.7727 49.4751 35.0388 49.2198 31.9877 49.2198ZM46.0002 37.1107C46.8418 35.854 47.4946 34.4865 47.9585 33.0082C48.4224 31.5293 48.6543 30.0098 48.6543 28.4498C48.6543 26.6298 48.3368 24.8929 47.7018 23.239C47.0674 21.5851 46.2138 20.0401 45.141 18.604C45.3204 18.5401 45.4999 18.4985 45.6793 18.479C45.8588 18.4596 46.0385 18.4498 46.2185 18.4498C48.9874 18.4498 51.3463 19.4243 53.2952 21.3732C55.2441 23.3221 56.2185 25.681 56.2185 28.4498C56.2185 31.0482 55.3454 33.279 53.5993 35.1423C51.8538 37.0057 49.746 38.0871 47.276 38.3865L46.0002 37.1107ZM41.231 32.3415L38.526 29.6365C38.5688 29.4398 38.6007 29.2526 38.6218 29.0748C38.6435 28.8976 38.6543 28.6893 38.6543 28.4498C38.6543 26.6165 38.0016 25.0471 36.696 23.7415C35.3904 22.436 33.821 21.7832 31.9877 21.7832C31.7482 21.7832 31.5399 21.794 31.3627 21.8157C31.1849 21.8368 30.9979 21.8687 30.8018 21.9115L28.096 19.2065C28.7288 18.976 29.3571 18.7923 29.981 18.6557C30.6049 18.5185 31.2738 18.4498 31.9877 18.4498C34.7566 18.4498 37.1154 19.4243 39.0643 21.3732C41.0132 23.3221 41.9877 25.681 41.9877 28.4498C41.9877 29.1637 41.9191 29.8326 41.7818 30.4565C41.6452 31.0804 41.4616 31.7087 41.231 32.3415Z" fill="#A3A3A3"/>
</g>
</svg>
