<svg width="80" height="81" viewBox="0 0 80 81" fill="none" xmlns="http://www.w3.org/2000/svg">
<mask id="mask0_1996_37901" style="mask-type:alpha" maskUnits="userSpaceOnUse" x="0" y="0" width="80" height="81">
<rect y="0.5" width="80" height="80" fill="#D9D9D9"/>
</mask>
<g mask="url(#mask0_1996_37901)">
<path d="M21.6663 63.8381C17.4524 63.8381 13.899 62.3915 11.0063 59.4981C8.11293 56.6054 6.66626 53.052 6.66626 48.8381C6.66626 44.7743 8.02848 41.332 10.7529 38.5115C13.4774 35.6909 16.6665 34.1715 20.3204 33.9531C20.3588 33.1243 20.5893 32.0956 21.0121 30.8673C21.4354 29.6384 21.9226 28.5818 22.4738 27.6973L10.7179 15.9406C10.4057 15.629 10.239 15.2465 10.2179 14.7931C10.1963 14.3404 10.3629 13.9365 10.7179 13.5815C11.0724 13.227 11.4654 13.0498 11.8971 13.0498C12.3288 13.0498 12.7218 13.227 13.0763 13.5815L69.3588 69.864C69.6704 70.1757 69.8401 70.5548 69.8679 71.0015C69.8957 71.4482 69.7213 71.8598 69.3446 72.2365C68.999 72.582 68.6138 72.7581 68.1888 72.7648C67.7638 72.7709 67.3674 72.5968 66.9996 72.2423L58.7046 63.8381H21.6663ZM21.6663 60.5048H55.2429L24.9479 30.2098C24.4524 31.1204 24.0593 32.1951 23.7688 33.434C23.4782 34.6734 23.3329 35.9193 23.3329 37.1715H21.6663C18.444 37.1715 15.694 38.3104 13.4163 40.5881C11.1385 42.8659 9.99959 45.6159 9.99959 48.8381C9.99959 52.0604 11.1385 54.8104 13.4163 57.0882C15.694 59.3659 18.444 60.5048 21.6663 60.5048ZM69.6921 60.6973L67.2946 58.3382C68.1535 57.5176 68.819 56.6001 69.2913 55.5856C69.7635 54.5712 69.9996 53.4331 69.9996 52.1715C69.9996 49.8381 69.194 47.8659 67.5829 46.2548C65.9718 44.6437 63.9996 43.8381 61.6663 43.8381H56.6663V37.1715C56.6663 32.5604 55.0413 28.6298 51.7913 25.3798C48.5413 22.1298 44.6107 20.5048 39.9996 20.5048C38.4996 20.5048 37.0551 20.6854 35.6663 21.0465C34.2774 21.4076 32.944 21.977 31.6663 22.7548L29.2688 20.2931C31.2132 19.1309 33.0049 18.3201 34.6438 17.8606C36.2826 17.4012 38.0679 17.1715 39.9996 17.1715C45.5713 17.1715 50.2974 19.112 54.1779 22.9931C58.059 26.8737 59.9996 31.5998 59.9996 37.1715V40.5048H62.0513C65.2435 40.6076 67.9218 41.7795 70.0863 44.0206C72.2507 46.2623 73.3329 48.9793 73.3329 52.1715C73.3329 53.697 73.0551 55.1768 72.4996 56.6106C71.944 58.0445 71.0082 59.4068 69.6921 60.6973Z" fill="#A3A3A3"/>
</g>
</svg>
