<svg width="20" height="20" viewBox="0 0 20 20" fill="none" xmlns="http://www.w3.org/2000/svg">
<mask id="mask0_3192_34234" style="mask-type:alpha" maskUnits="userSpaceOnUse" x="0" y="0" width="20" height="20">
<rect width="20" height="20" fill="#D9D9D9"/>
</mask>
<g mask="url(#mask0_3192_34234)">
<path d="M9.99212 16.4246C9.81365 16.4246 9.63442 16.3926 9.45442 16.3285C9.27442 16.2644 9.11601 16.164 8.97921 16.0273L7.78212 14.9392C6.30462 13.5919 4.98546 12.2685 3.82462 10.9688C2.66379 9.66903 2.08337 8.27667 2.08337 6.79167C2.08337 5.60903 2.48212 4.61889 3.27962 3.82125C4.07726 3.02375 5.0674 2.625 6.25004 2.625C6.92199 2.625 7.58573 2.77993 8.24129 3.08979C8.89671 3.39965 9.48296 3.90285 10 4.59938C10.5171 3.90285 11.1034 3.39965 11.7588 3.08979C12.4143 2.77993 13.0781 2.625 13.75 2.625C14.9327 2.625 15.9228 3.02375 16.7205 3.82125C17.518 4.61889 17.9167 5.60903 17.9167 6.79167C17.9167 8.29278 17.3264 9.70063 16.1459 11.0152C14.9653 12.3298 13.6491 13.642 12.1971 14.9519L11.0127 16.0273C10.8761 16.164 10.7164 16.2644 10.5338 16.3285C10.351 16.3926 10.1705 16.4246 9.99212 16.4246Z" fill="#F43F5E"/>
</g>
</svg>
