<svg width="20" height="20" viewBox="0 0 20 20" fill="none" xmlns="http://www.w3.org/2000/svg">
<mask id="mask0_3192_34232" style="mask-type:alpha" maskUnits="userSpaceOnUse" x="0" y="0" width="20" height="20">
<rect width="20" height="20" fill="#D9D9D9"/>
</mask>
<g mask="url(#mask0_3192_34232)">
<path d="M9.99212 16.4246C9.81365 16.4246 9.63442 16.3926 9.45442 16.3285C9.27442 16.2644 9.11601 16.164 8.97921 16.0273L7.78212 14.9392C6.30462 13.5919 4.98546 12.2685 3.82462 10.9688C2.66379 9.66903 2.08337 8.27667 2.08337 6.79167C2.08337 5.60903 2.48212 4.61889 3.27962 3.82125C4.07726 3.02375 5.0674 2.625 6.25004 2.625C6.92199 2.625 7.58573 2.77993 8.24129 3.08979C8.89671 3.39965 9.48296 3.90285 10 4.59938C10.5171 3.90285 11.1034 3.39965 11.7588 3.08979C12.4143 2.77993 13.0781 2.625 13.75 2.625C14.9327 2.625 15.9228 3.02375 16.7205 3.82125C17.518 4.61889 17.9167 5.60903 17.9167 6.79167C17.9167 8.29278 17.3264 9.70063 16.1459 11.0152C14.9653 12.3298 13.6491 13.642 12.1971 14.9519L11.0127 16.0273C10.8761 16.164 10.7164 16.2644 10.5338 16.3285C10.351 16.3926 10.1705 16.4246 9.99212 16.4246ZM9.40067 5.86542C8.94983 5.17847 8.47518 4.675 7.97671 4.355C7.47837 4.035 6.90282 3.875 6.25004 3.875C5.41671 3.875 4.72226 4.15278 4.16671 4.70833C3.61115 5.26389 3.33337 5.95833 3.33337 6.79167C3.33337 7.46042 3.54893 8.15965 3.98004 8.88937C4.41115 9.6191 4.95226 10.3445 5.60337 11.0656C6.25449 11.7869 6.9599 12.4915 7.71962 13.1794C8.47921 13.8674 9.18324 14.5069 9.83171 15.0977C9.87976 15.1405 9.93587 15.1619 10 15.1619C10.0642 15.1619 10.1203 15.1405 10.1684 15.0977C10.8168 14.5069 11.5209 13.8674 12.2805 13.1794C13.0402 12.4915 13.7456 11.7869 14.3967 11.0656C15.0478 10.3445 15.5889 9.6191 16.02 8.88937C16.4512 8.15965 16.6667 7.46042 16.6667 6.79167C16.6667 5.95833 16.3889 5.26389 15.8334 4.70833C15.2778 4.15278 14.5834 3.875 13.75 3.875C13.0973 3.875 12.5217 4.035 12.0234 4.355C11.5249 4.675 11.0502 5.17847 10.5994 5.86542C10.5289 5.97222 10.4402 6.05236 10.3334 6.10583C10.2266 6.15917 10.1155 6.18583 10 6.18583C9.88462 6.18583 9.77351 6.15917 9.66671 6.10583C9.5599 6.05236 9.47122 5.97222 9.40067 5.86542Z" fill="#171717"/>
</g>
</svg>
