<svg width="24" height="25" viewBox="0 0 24 25" fill="none" xmlns="http://www.w3.org/2000/svg">
<g id="person_add">
<mask id="mask0_3418_24374" style="mask-type:alpha" maskUnits="userSpaceOnUse" x="0" y="0" width="24" height="25">
<rect id="Bounding box" y="0.5" width="24" height="24" fill="#D9D9D9"/>
</mask>
<g mask="url(#mask0_3418_24374)">
<path id="person_add_2" d="M18 11.5H16C15.7167 11.5 15.4792 11.4042 15.2875 11.2125C15.0958 11.0208 15 10.7833 15 10.5C15 10.2167 15.0958 9.97917 15.2875 9.7875C15.4792 9.59583 15.7167 9.5 16 9.5H18V7.5C18 7.21667 18.0958 6.97917 18.2875 6.7875C18.4792 6.59583 18.7167 6.5 19 6.5C19.2833 6.5 19.5208 6.59583 19.7125 6.7875C19.9042 6.97917 20 7.21667 20 7.5V9.5H22C22.2833 9.5 22.5208 9.59583 22.7125 9.7875C22.9042 9.97917 23 10.2167 23 10.5C23 10.7833 22.9042 11.0208 22.7125 11.2125C22.5208 11.4042 22.2833 11.5 22 11.5H20V13.5C20 13.7833 19.9042 14.0208 19.7125 14.2125C19.5208 14.4042 19.2833 14.5 19 14.5C18.7167 14.5 18.4792 14.4042 18.2875 14.2125C18.0958 14.0208 18 13.7833 18 13.5V11.5ZM9 12.5C7.9 12.5 6.95833 12.1083 6.175 11.325C5.39167 10.5417 5 9.6 5 8.5C5 7.4 5.39167 6.45833 6.175 5.675C6.95833 4.89167 7.9 4.5 9 4.5C10.1 4.5 11.0417 4.89167 11.825 5.675C12.6083 6.45833 13 7.4 13 8.5C13 9.6 12.6083 10.5417 11.825 11.325C11.0417 12.1083 10.1 12.5 9 12.5ZM1 18.5V17.7C1 17.1333 1.14583 16.6125 1.4375 16.1375C1.72917 15.6625 2.11667 15.3 2.6 15.05C3.63333 14.5333 4.68333 14.1458 5.75 13.8875C6.81667 13.6292 7.9 13.5 9 13.5C10.1 13.5 11.1833 13.6292 12.25 13.8875C13.3167 14.1458 14.3667 14.5333 15.4 15.05C15.8833 15.3 16.2708 15.6625 16.5625 16.1375C16.8542 16.6125 17 17.1333 17 17.7V18.5C17 19.05 16.8042 19.5208 16.4125 19.9125C16.0208 20.3042 15.55 20.5 15 20.5H3C2.45 20.5 1.97917 20.3042 1.5875 19.9125C1.19583 19.5208 1 19.05 1 18.5ZM3 18.5H15V17.7C15 17.5167 14.9542 17.35 14.8625 17.2C14.7708 17.05 14.65 16.9333 14.5 16.85C13.6 16.4 12.6917 16.0625 11.775 15.8375C10.8583 15.6125 9.93333 15.5 9 15.5C8.06667 15.5 7.14167 15.6125 6.225 15.8375C5.30833 16.0625 4.4 16.4 3.5 16.85C3.35 16.9333 3.22917 17.05 3.1375 17.2C3.04583 17.35 3 17.5167 3 17.7V18.5ZM9 10.5C9.55 10.5 10.0208 10.3042 10.4125 9.9125C10.8042 9.52083 11 9.05 11 8.5C11 7.95 10.8042 7.47917 10.4125 7.0875C10.0208 6.69583 9.55 6.5 9 6.5C8.45 6.5 7.97917 6.69583 7.5875 7.0875C7.19583 7.47917 7 7.95 7 8.5C7 9.05 7.19583 9.52083 7.5875 9.9125C7.97917 10.3042 8.45 10.5 9 10.5Z" fill="#525252"/>
</g>
</g>
</svg>
