<svg width="18" height="19" viewBox="0 0 18 19" fill="none" xmlns="http://www.w3.org/2000/svg">
<g id="person">
<mask id="mask0_3253_8483" style="mask-type:alpha" maskUnits="userSpaceOnUse" x="0" y="0" width="18" height="19">
<rect id="Bounding box" y="0.5" width="18" height="18" fill="#D9D9D9"/>
</mask>
<g mask="url(#mask0_3253_8483)">
<path id="person_2" d="M8.99951 9.50024C8.17451 9.50024 7.46826 9.20649 6.88076 8.61899C6.29326 8.03149 5.99951 7.32524 5.99951 6.50024C5.99951 5.67524 6.29326 4.96899 6.88076 4.38149C7.46826 3.79399 8.17451 3.50024 8.99951 3.50024C9.82451 3.50024 10.5308 3.79399 11.1183 4.38149C11.7058 4.96899 11.9995 5.67524 11.9995 6.50024C11.9995 7.32524 11.7058 8.03149 11.1183 8.61899C10.5308 9.20649 9.82451 9.50024 8.99951 9.50024ZM2.99951 14.0002V13.4002C2.99951 12.9752 3.10889 12.5846 3.32764 12.2284C3.54639 11.8721 3.83701 11.6002 4.19951 11.4127C4.97451 11.0252 5.76201 10.7346 6.56201 10.5409C7.36201 10.3471 8.17451 10.2502 8.99951 10.2502C9.82451 10.2502 10.637 10.3471 11.437 10.5409C12.237 10.7346 13.0245 11.0252 13.7995 11.4127C14.162 11.6002 14.4526 11.8721 14.6714 12.2284C14.8901 12.5846 14.9995 12.9752 14.9995 13.4002V14.0002C14.9995 14.4127 14.8526 14.7659 14.5589 15.0596C14.2651 15.3534 13.912 15.5002 13.4995 15.5002H4.49951C4.08701 15.5002 3.73389 15.3534 3.44014 15.0596C3.14639 14.7659 2.99951 14.4127 2.99951 14.0002Z" fill="#737373"/>
</g>
</g>
</svg>
