<svg width="20" height="20" viewBox="0 0 20 20" fill="none" xmlns="http://www.w3.org/2000/svg">
<g id="arrow_cool_down">
<mask id="mask0_3444_35410" style="mask-type:alpha" maskUnits="userSpaceOnUse" x="0" y="0" width="20" height="20">
<rect id="Bounding box" width="20" height="20" fill="#D9D9D9"/>
</mask>
<g mask="url(#mask0_3444_35410)">
<path id="arrow_cool_down_2" d="M9.99918 17.8413C9.89945 17.8413 9.80633 17.8231 9.7198 17.7869C9.63327 17.7505 9.55098 17.6933 9.47293 17.6154L4.87834 13.0336C4.76307 12.9183 4.70404 12.7733 4.70126 12.5986C4.69862 12.4238 4.75501 12.2745 4.87043 12.1506C4.99432 12.0213 5.14279 11.9581 5.31584 11.9608C5.4889 11.9635 5.63744 12.0267 5.76147 12.1506L9.37522 15.7692V10.4392C9.37522 10.2621 9.43515 10.1136 9.55501 9.99376C9.67487 9.87404 9.82334 9.81418 10.0004 9.81418C10.1776 9.81418 10.3261 9.87404 10.4456 9.99376C10.5654 10.1136 10.6252 10.2621 10.6252 10.4392V15.7773L14.2598 12.1506C14.3738 12.0352 14.5164 11.9775 14.6875 11.9775C14.8586 11.9775 15.0066 12.0395 15.1315 12.1636C15.2459 12.2772 15.3031 12.4217 15.3031 12.5973C15.3031 12.7729 15.2454 12.9183 15.13 13.0336L10.5275 17.6154C10.4495 17.6933 10.3668 17.7505 10.2796 17.7869C10.1924 17.8231 10.0989 17.8413 9.99918 17.8413ZM10 8.14751C9.82279 8.14751 9.67439 8.08758 9.5548 7.96772C9.43508 7.848 9.37522 7.6996 9.37522 7.52251V6.27251C9.37522 6.09543 9.43515 5.94696 9.55501 5.8271C9.67487 5.70737 9.82334 5.64751 10.0004 5.64751C10.1776 5.64751 10.3261 5.70737 10.4456 5.8271C10.5654 5.94696 10.6252 6.09543 10.6252 6.27251V7.53043C10.6252 7.70529 10.5653 7.85182 10.4454 7.97001C10.3256 8.08835 10.1771 8.14751 10 8.14751ZM10 3.98085C9.82279 3.98085 9.67439 3.92091 9.5548 3.80105C9.43508 3.68133 9.37522 3.53293 9.37522 3.35585V2.93918C9.37522 2.7621 9.43515 2.61362 9.55501 2.49376C9.67487 2.37404 9.82334 2.31418 10.0004 2.31418C10.1776 2.31418 10.3261 2.37404 10.4456 2.49376C10.5654 2.61362 10.6252 2.7621 10.6252 2.93918V3.36376C10.6252 3.53862 10.5653 3.68515 10.4454 3.80334C10.3256 3.92168 10.1771 3.98085 10 3.98085Z" fill="#525252"/>
</g>
</g>
</svg>
