<svg width="20" height="20" viewBox="0 0 20 20" fill="none" xmlns="http://www.w3.org/2000/svg">
<g id="arrow_cool_down">
<mask id="mask0_3444_35445" style="mask-type:alpha" maskUnits="userSpaceOnUse" x="0" y="0" width="20" height="20">
<rect id="Bounding box" x="20" y="20" width="20" height="20" transform="rotate(-180 20 20)" fill="#D9D9D9"/>
</mask>
<g mask="url(#mask0_3444_35445)">
<path id="arrow_cool_down_2" d="M10.0008 2.15874C10.1005 2.15874 10.1937 2.17686 10.2802 2.21311C10.3667 2.2495 10.449 2.30665 10.5271 2.38457L15.1217 6.96645C15.2369 7.08172 15.296 7.22672 15.2987 7.40145C15.3014 7.57617 15.245 7.72547 15.1296 7.84936C15.0057 7.97867 14.8572 8.04193 14.6842 8.03916C14.5111 8.03652 14.3626 7.97325 14.2385 7.84936L10.6248 4.23082L10.6248 9.56082C10.6248 9.73791 10.5649 9.88638 10.445 10.0062C10.3251 10.126 10.1767 10.1858 9.99957 10.1858C9.82235 10.1858 9.67395 10.126 9.55436 10.0062C9.43464 9.88638 9.37478 9.73791 9.37478 9.56082L9.37478 4.2227L5.7402 7.84936C5.62617 7.96478 5.4836 8.02249 5.31249 8.02249C5.14138 8.02249 4.99339 7.96047 4.86853 7.83645C4.75409 7.72283 4.69687 7.57825 4.69687 7.4027C4.69687 7.22714 4.75457 7.08172 4.86999 6.96645L9.47249 2.38457C9.55055 2.30665 9.63318 2.2495 9.72041 2.21311C9.80763 2.17686 9.9011 2.15874 10.0008 2.15874ZM9.99999 11.8525C10.1772 11.8525 10.3256 11.9124 10.4452 12.0323C10.5649 12.152 10.6248 12.3004 10.6248 12.4775V13.7275C10.6248 13.9046 10.5649 14.053 10.445 14.1729C10.3251 14.2926 10.1767 14.3525 9.99957 14.3525C9.82235 14.3525 9.67395 14.2926 9.55436 14.1729C9.43464 14.053 9.37478 13.9046 9.37478 13.7275V12.4696C9.37478 12.2947 9.43471 12.1482 9.55457 12.03C9.67443 11.9117 9.82291 11.8525 9.99999 11.8525ZM9.99999 16.0192C10.1772 16.0192 10.3256 16.0791 10.4452 16.1989C10.5649 16.3187 10.6248 16.4671 10.6248 16.6442V17.0608C10.6248 17.2379 10.5649 17.3864 10.445 17.5062C10.3251 17.626 10.1767 17.6858 9.99957 17.6858C9.82235 17.6858 9.67395 17.626 9.55436 17.5062C9.43464 17.3864 9.37478 17.2379 9.37478 17.0608V16.6362C9.37478 16.4614 9.43471 16.3148 9.55457 16.1967C9.67443 16.0783 9.82291 16.0192 9.99999 16.0192Z" fill="#525252"/>
</g>
</g>
</svg>
