<svg width="20" height="20" viewBox="0 0 20 20" fill="none" xmlns="http://www.w3.org/2000/svg">
<mask id="mask0_2791_42969" style="mask-type:alpha" maskUnits="userSpaceOnUse" x="0" y="0" width="20" height="20">
<rect width="20" height="20" fill="#D9D9D9"/>
</mask>
<g mask="url(#mask0_2791_42969)">
<path d="M11.6668 16.6666V15.6249C11.6668 15.4027 11.712 15.1909 11.8022 14.9895C11.8925 14.7881 12.0141 14.611 12.1668 14.4583L16.271 10.3541C16.396 10.2291 16.5349 10.1388 16.6877 10.0833C16.8404 10.0277 16.9932 9.99992 17.146 9.99992C17.3127 9.99992 17.4724 10.0312 17.6252 10.0937C17.7779 10.1562 17.9168 10.2499 18.0418 10.3749L18.8127 11.1458C18.9238 11.2708 19.0106 11.4096 19.0731 11.5624C19.1356 11.7152 19.1668 11.868 19.1668 12.0208C19.1668 12.1735 19.1391 12.3298 19.0835 12.4895C19.0279 12.6492 18.9377 12.7916 18.8127 12.9166L14.7085 17.0208C14.5557 17.1735 14.3786 17.2916 14.1772 17.3749C13.9759 17.4583 13.7641 17.4999 13.5418 17.4999H12.5002C12.2641 17.4999 12.0661 17.4201 11.9064 17.2603C11.7467 17.1006 11.6668 16.9027 11.6668 16.6666ZM3.3335 15.8333V14.3333C3.3335 13.861 3.45502 13.427 3.69808 13.0312C3.94113 12.6353 4.26405 12.3333 4.66683 12.1249C5.52794 11.6944 6.40294 11.3714 7.29183 11.1562C8.18072 10.9409 9.0835 10.8333 10.0002 10.8333C10.5141 10.8333 11.021 10.8645 11.521 10.927C12.021 10.9895 12.521 11.0902 13.021 11.2291L10.7293 13.5208C10.4932 13.7569 10.3127 14.0277 10.1877 14.3333C10.0627 14.6388 10.0002 14.9583 10.0002 15.2916V16.6666H4.16683C3.93072 16.6666 3.7328 16.5867 3.57308 16.427C3.41336 16.2673 3.3335 16.0694 3.3335 15.8333ZM17.146 12.8333L17.9168 12.0208L17.146 11.2499L16.3543 12.0416L17.146 12.8333ZM10.0002 9.99992C9.0835 9.99992 8.29877 9.67353 7.646 9.02075C6.99322 8.36797 6.66683 7.58325 6.66683 6.66659C6.66683 5.74992 6.99322 4.9652 7.646 4.31242C8.29877 3.65964 9.0835 3.33325 10.0002 3.33325C10.9168 3.33325 11.7016 3.65964 12.3543 4.31242C13.0071 4.9652 13.3335 5.74992 13.3335 6.66659C13.3335 7.58325 13.0071 8.36797 12.3543 9.02075C11.7016 9.67353 10.9168 9.99992 10.0002 9.99992Z" fill="#737373"/>
</g>
</svg>
