<svg width="20" height="20" viewBox="0 0 20 20" fill="none" xmlns="http://www.w3.org/2000/svg">
<mask id="mask0_2791_42968" style="mask-type:alpha" maskUnits="userSpaceOnUse" x="0" y="0" width="20" height="20">
<rect width="20" height="20" fill="#D9D9D9"/>
</mask>
<g mask="url(#mask0_2791_42968)">
<path d="M4.63146 17.25C4.11715 17.25 3.675 17.065 3.305 16.695C2.935 16.325 2.75 15.8828 2.75 15.3685V4.63146C2.75 4.10743 2.935 3.66285 3.305 3.29771C3.675 2.93257 4.11715 2.75 4.63146 2.75H15.3685C15.8926 2.75 16.3372 2.93257 16.7023 3.29771C17.0674 3.66285 17.25 4.10743 17.25 4.63146V15.3685C17.25 15.8828 17.0674 16.325 16.7023 16.695C16.3372 17.065 15.8926 17.25 15.3685 17.25H4.63146ZM4.63146 15.625H9.1875V4.375H4.63146C4.56729 4.375 4.50854 4.40174 4.45521 4.45521C4.40174 4.50854 4.375 4.56729 4.375 4.63146V15.3685C4.375 15.4327 4.40174 15.4915 4.45521 15.5448C4.50854 15.5983 4.56729 15.625 4.63146 15.625ZM10.8125 15.625H15.3685C15.4327 15.625 15.4915 15.5983 15.5448 15.5448C15.5983 15.4915 15.625 15.4327 15.625 15.3685V10H10.8125V15.625ZM10.8125 8.375H15.625V4.63146C15.625 4.56729 15.5983 4.50854 15.5448 4.45521C15.4915 4.40174 15.4327 4.375 15.3685 4.375H10.8125V8.375Z" fill="#737373"/>
</g>
</svg>
