<svg width="14" height="14" viewBox="0 0 14 14" fill="none" xmlns="http://www.w3.org/2000/svg">
<g id="arrow_forward_ios">
<mask id="mask0_3274_34137" style="mask-type:alpha" maskUnits="userSpaceOnUse" x="0" y="0" width="14" height="14">
<rect id="Bounding box" width="14" height="14" fill="#D9D9D9"/>
</mask>
<g mask="url(#mask0_3274_34137)">
<path id="arrow_forward_ios_2" d="M8.44377 6.99992L4.15627 2.71242C4.01044 2.56659 3.93995 2.39402 3.94482 2.19471C3.94968 1.9954 4.02502 1.82284 4.17086 1.677C4.31669 1.53117 4.48926 1.45825 4.68857 1.45825C4.88787 1.45825 5.06044 1.53117 5.20627 1.677L9.68336 6.16867C9.80002 6.28534 9.88752 6.41659 9.94586 6.56242C10.0042 6.70825 10.0334 6.85409 10.0334 6.99992C10.0334 7.14575 10.0042 7.29159 9.94586 7.43742C9.88752 7.58325 9.80002 7.7145 9.68336 7.83117L5.19169 12.3228C5.04586 12.4687 4.87572 12.5392 4.68127 12.5343C4.48683 12.5294 4.31669 12.4541 4.17086 12.3083C4.02502 12.1624 3.95211 11.9898 3.95211 11.7905C3.95211 11.5912 4.02502 11.4187 4.17086 11.2728L8.44377 6.99992Z" fill="#171717"/>
</g>
</g>
</svg>
