<svg width="25" height="24" viewBox="0 0 25 24" fill="none" xmlns="http://www.w3.org/2000/svg">
<g id="notifications">
<mask id="mask0_3321_23044" style="mask-type:alpha" maskUnits="userSpaceOnUse" x="0" y="0" width="25" height="24">
<rect id="Bounding box" x="0.8125" width="24" height="24" fill="#D9D9D9"/>
</mask>
<g mask="url(#mask0_3321_23044)">
<path id="notifications_2" d="M4.8125 19V17H6.8125V10C6.8125 8.61667 7.22917 7.3875 8.0625 6.3125C8.89583 5.2375 9.97917 4.53333 11.3125 4.2V3.5C11.3125 3.08333 11.4583 2.72917 11.75 2.4375C12.0417 2.14583 12.3958 2 12.8125 2C13.2292 2 13.5833 2.14583 13.875 2.4375C14.1667 2.72917 14.3125 3.08333 14.3125 3.5V4.2C15.6458 4.53333 16.7292 5.2375 17.5625 6.3125C18.3958 7.3875 18.8125 8.61667 18.8125 10V17H20.8125V19H4.8125ZM12.8125 22C12.2625 22 11.7917 21.8042 11.4 21.4125C11.0083 21.0208 10.8125 20.55 10.8125 20H14.8125C14.8125 20.55 14.6167 21.0208 14.225 21.4125C13.8333 21.8042 13.3625 22 12.8125 22ZM8.8125 17H16.8125V10C16.8125 8.9 16.4208 7.95833 15.6375 7.175C14.8542 6.39167 13.9125 6 12.8125 6C11.7125 6 10.7708 6.39167 9.9875 7.175C9.20417 7.95833 8.8125 8.9 8.8125 10V17Z" fill="#1C1B1F"/>
</g>
</g>
</svg>
