<svg width="25" height="24" viewBox="0 0 25 24" fill="none" xmlns="http://www.w3.org/2000/svg">
<g id="settings">
<mask id="mask0_3321_23047" style="mask-type:alpha" maskUnits="userSpaceOnUse" x="0" y="0" width="25" height="24">
<rect id="Bounding box" x="0.8125" width="24" height="24" fill="#D9D9D9"/>
</mask>
<g mask="url(#mask0_3321_23047)">
<path id="settings_2" d="M11.638 22C11.188 22 10.8005 21.85 10.4755 21.55C10.1505 21.25 9.95464 20.8833 9.88797 20.45L9.66297 18.8C9.4463 18.7167 9.24214 18.6167 9.05047 18.5C8.8588 18.3833 8.6713 18.2583 8.48797 18.125L6.93797 18.775C6.5213 18.9583 6.10464 18.975 5.68797 18.825C5.2713 18.675 4.9463 18.4083 4.71297 18.025L3.53797 15.975C3.30464 15.5917 3.23797 15.1833 3.33797 14.75C3.43797 14.3167 3.66297 13.9583 4.01297 13.675L5.33797 12.675C5.3213 12.5583 5.31297 12.4458 5.31297 12.3375V11.6625C5.31297 11.5542 5.3213 11.4417 5.33797 11.325L4.01297 10.325C3.66297 10.0417 3.43797 9.68333 3.33797 9.25C3.23797 8.81667 3.30464 8.40833 3.53797 8.025L4.71297 5.975C4.9463 5.59167 5.2713 5.325 5.68797 5.175C6.10464 5.025 6.5213 5.04167 6.93797 5.225L8.48797 5.875C8.6713 5.74167 8.86297 5.61667 9.06297 5.5C9.26297 5.38333 9.46297 5.28333 9.66297 5.2L9.88797 3.55C9.95464 3.11667 10.1505 2.75 10.4755 2.45C10.8005 2.15 11.188 2 11.638 2H13.988C14.438 2 14.8255 2.15 15.1505 2.45C15.4755 2.75 15.6713 3.11667 15.738 3.55L15.963 5.2C16.1796 5.28333 16.3838 5.38333 16.5755 5.5C16.7671 5.61667 16.9546 5.74167 17.138 5.875L18.688 5.225C19.1046 5.04167 19.5213 5.025 19.938 5.175C20.3546 5.325 20.6796 5.59167 20.913 5.975L22.088 8.025C22.3213 8.40833 22.388 8.81667 22.288 9.25C22.188 9.68333 21.963 10.0417 21.613 10.325L20.288 11.325C20.3046 11.4417 20.313 11.5542 20.313 11.6625V12.3375C20.313 12.4458 20.2963 12.5583 20.263 12.675L21.588 13.675C21.938 13.9583 22.163 14.3167 22.263 14.75C22.363 15.1833 22.2963 15.5917 22.063 15.975L20.863 18.025C20.6296 18.4083 20.3046 18.675 19.888 18.825C19.4713 18.975 19.0546 18.9583 18.638 18.775L17.138 18.125C16.9546 18.2583 16.763 18.3833 16.563 18.5C16.363 18.6167 16.163 18.7167 15.963 18.8L15.738 20.45C15.6713 20.8833 15.4755 21.25 15.1505 21.55C14.8255 21.85 14.438 22 13.988 22H11.638ZM11.813 20H13.788L14.138 17.35C14.6546 17.2167 15.1338 17.0208 15.5755 16.7625C16.0171 16.5042 16.4213 16.1917 16.788 15.825L19.263 16.85L20.238 15.15L18.088 13.525C18.1713 13.2917 18.2296 13.0458 18.263 12.7875C18.2963 12.5292 18.313 12.2667 18.313 12C18.313 11.7333 18.2963 11.4708 18.263 11.2125C18.2296 10.9542 18.1713 10.7083 18.088 10.475L20.238 8.85L19.263 7.15L16.788 8.2C16.4213 7.81667 16.0171 7.49583 15.5755 7.2375C15.1338 6.97917 14.6546 6.78333 14.138 6.65L13.813 4H11.838L11.488 6.65C10.9713 6.78333 10.4921 6.97917 10.0505 7.2375C9.6088 7.49583 9.20464 7.80833 8.83797 8.175L6.36297 7.15L5.38797 8.85L7.53797 10.45C7.45464 10.7 7.3963 10.95 7.36297 11.2C7.32964 11.45 7.31297 11.7167 7.31297 12C7.31297 12.2667 7.32964 12.525 7.36297 12.775C7.3963 13.025 7.45464 13.275 7.53797 13.525L5.38797 15.15L6.36297 16.85L8.83797 15.8C9.20464 16.1833 9.6088 16.5042 10.0505 16.7625C10.4921 17.0208 10.9713 17.2167 11.488 17.35L11.813 20ZM12.863 15.5C13.8296 15.5 14.6546 15.1583 15.338 14.475C16.0213 13.7917 16.363 12.9667 16.363 12C16.363 11.0333 16.0213 10.2083 15.338 9.525C14.6546 8.84167 13.8296 8.5 12.863 8.5C11.8796 8.5 11.0505 8.84167 10.3755 9.525C9.70047 10.2083 9.36297 11.0333 9.36297 12C9.36297 12.9667 9.70047 13.7917 10.3755 14.475C11.0505 15.1583 11.8796 15.5 12.863 15.5Z" fill="#1C1B1F"/>
</g>
</g>
</svg>
