<svg width="25" height="24" viewBox="0 0 25 24" fill="none" xmlns="http://www.w3.org/2000/svg">
<g id="search">
<mask id="mask0_3321_23041" style="mask-type:alpha" maskUnits="userSpaceOnUse" x="0" y="0" width="25" height="24">
<rect id="Bounding box" x="0.8125" width="24" height="24" fill="#D9D9D9"/>
</mask>
<g mask="url(#mask0_3321_23041)">
<path id="search_2" d="M20.4125 21L14.1125 14.7C13.6125 15.1 13.0375 15.4167 12.3875 15.65C11.7375 15.8833 11.0458 16 10.3125 16C8.49583 16 6.95833 15.3708 5.7 14.1125C4.44167 12.8542 3.8125 11.3167 3.8125 9.5C3.8125 7.68333 4.44167 6.14583 5.7 4.8875C6.95833 3.62917 8.49583 3 10.3125 3C12.1292 3 13.6667 3.62917 14.925 4.8875C16.1833 6.14583 16.8125 7.68333 16.8125 9.5C16.8125 10.2333 16.6958 10.925 16.4625 11.575C16.2292 12.225 15.9125 12.8 15.5125 13.3L21.8125 19.6L20.4125 21ZM10.3125 14C11.5625 14 12.625 13.5625 13.5 12.6875C14.375 11.8125 14.8125 10.75 14.8125 9.5C14.8125 8.25 14.375 7.1875 13.5 6.3125C12.625 5.4375 11.5625 5 10.3125 5C9.0625 5 8 5.4375 7.125 6.3125C6.25 7.1875 5.8125 8.25 5.8125 9.5C5.8125 10.75 6.25 11.8125 7.125 12.6875C8 13.5625 9.0625 14 10.3125 14Z" fill="#1C1B1F"/>
</g>
</g>
</svg>
