<svg width="60" height="60" viewBox="0 0 60 60" fill="none" xmlns="http://www.w3.org/2000/svg">
<g id="bolt">
<mask id="mask0_3047_26902" style="mask-type:alpha" maskUnits="userSpaceOnUse" x="0" y="0" width="60" height="60">
<rect id="Bounding box" width="60" height="60" fill="#D9D9D9"/>
</mask>
<g mask="url(#mask0_3047_26902)">
<path id="bolt_2" d="M25.3834 34.9996H17.9219C17.2424 34.9996 16.7512 34.704 16.4483 34.1126C16.1454 33.5213 16.1895 32.9532 16.5805 32.4083L30.6527 12.0236C30.9091 11.6647 31.2263 11.4267 31.6046 11.3097C31.9828 11.1927 32.3818 11.2111 32.8017 11.365C33.2216 11.5188 33.5261 11.772 33.7152 12.1246C33.9043 12.4772 33.9732 12.8634 33.9219 13.2833L32.1623 27.4996H41.1286C41.8274 27.4996 42.3234 27.8185 42.6166 28.4563C42.9099 29.0942 42.8306 29.6855 42.3786 30.2304L26.7199 48.9901C26.4539 49.3074 26.1318 49.5093 25.7536 49.5958C25.3754 49.6824 25.002 49.6439 24.6334 49.4804C24.2648 49.317 23.9836 49.0694 23.7897 48.7376C23.5958 48.4059 23.5244 48.0301 23.5757 47.6103L25.3834 34.9996Z" fill="#FACC15"/>
</g>
</g>
</svg>
