<svg width="84" height="64" viewBox="0 0 84 64" fill="none" xmlns="http://www.w3.org/2000/svg">
<g id="AdobeStock_521117453 1">
<g id="flat">
<path id="Vector" d="M64.6271 47.8378H77.5024C78.6552 47.8378 79.7968 48.0648 80.8618 48.506C81.9269 48.9471 82.8947 49.5938 83.7098 50.4089C84.525 51.2241 85.1716 52.1918 85.6128 53.2569C86.0539 54.322 86.281 55.4635 86.2809 56.6163V68.9063H55.8486V56.6163C55.8486 55.4635 56.0757 54.322 56.5168 53.2569C56.958 52.1918 57.6046 51.2241 58.4198 50.4089C59.2349 49.5938 60.2027 48.9471 61.2677 48.506C62.3328 48.0648 63.4743 47.8378 64.6271 47.8378Z" fill="#007AF6"/>
<path id="Vector_2" d="M71.065 47.8378C76.2366 47.8378 80.4289 43.6455 80.4289 38.4739C80.4289 33.3024 76.2366 29.1101 71.065 29.1101C65.8935 29.1101 61.7012 33.3024 61.7012 38.4739C61.7012 43.6455 65.8935 47.8378 71.065 47.8378Z" fill="#007AF6"/>
<path id="Vector_3" d="M65.1053 54.7418V68.9062H55.8486V56.6156C55.8487 54.6404 56.5149 52.7229 57.7394 51.173C58.9639 49.6232 60.6753 48.5315 62.5969 48.0744C64.2173 49.9171 65.1092 52.288 65.1053 54.7418Z" fill="#005DBB"/>
<path id="Vector_4" d="M77.8525 59.5424V68.9063H80.665V59.5424C80.665 59.1694 80.5169 58.8117 80.2532 58.548C79.9894 58.2843 79.6317 58.1361 79.2588 58.1361C78.8858 58.1361 78.5281 58.2843 78.2644 58.548C78.0007 58.8117 77.8525 59.1694 77.8525 59.5424Z" fill="#007AF6"/>
<path id="Vector_5" d="M77.8525 59.5424V68.9063H80.665V59.5424C80.665 59.1694 80.5169 58.8117 80.2532 58.548C79.9894 58.2843 79.6317 58.1361 79.2588 58.1361C78.8858 58.1361 78.5281 58.2843 78.2644 58.548C78.0007 58.8117 77.8525 59.1694 77.8525 59.5424Z" fill="#005DBB"/>
<path id="Vector_6" d="M26.3725 47.8378H13.4973C12.3444 47.8378 11.2029 48.0648 10.1378 48.506C9.07278 48.9471 8.10503 49.5938 7.28987 50.4089C6.4747 51.2241 5.82808 52.1918 5.38693 53.2569C4.94577 54.322 4.71873 55.4635 4.71875 56.6163V68.9063H35.1511V56.6163C35.1511 55.4635 34.924 54.322 34.4829 53.2569C34.0417 52.1918 33.3951 51.2241 32.5799 50.4089C31.7648 49.5938 30.797 48.9471 29.732 48.506C28.6669 48.0648 27.5254 47.8378 26.3725 47.8378Z" fill="#007AF6"/>
<path id="Vector_7" d="M19.9352 47.8378C25.1067 47.8378 29.299 43.6455 29.299 38.4739C29.299 33.3024 25.1067 29.1101 19.9352 29.1101C14.7636 29.1101 10.5713 33.3024 10.5713 38.4739C10.5713 43.6455 14.7636 47.8378 19.9352 47.8378Z" fill="#007AF6"/>
<path id="Vector_8" d="M35.1522 56.6156V68.9062H25.8955V54.7418C25.8916 52.288 26.7835 49.9171 28.4039 48.0744C30.3255 48.5315 32.0369 49.6232 33.2614 51.173C34.4859 52.7229 35.1521 54.6404 35.1522 56.6156Z" fill="#005DBB"/>
<path id="Vector_9" d="M13.1475 59.5424V68.9063H10.335V59.5424C10.335 59.1694 10.4831 58.8117 10.7468 58.548C11.0106 58.2843 11.3683 58.1361 11.7412 58.1361C12.1142 58.1361 12.4719 58.2843 12.7356 58.548C12.9993 58.8117 13.1475 59.1694 13.1475 59.5424Z" fill="#007AF6"/>
<path id="Vector_10" d="M37.4629 58.115V68.9062H34.6504V58.115C34.6504 57.7421 34.7985 57.3844 35.0623 57.1207C35.326 56.8569 35.6837 56.7088 36.0566 56.7088C36.4296 56.7088 36.7873 56.8569 37.051 57.1207C37.3147 57.3844 37.4629 57.7421 37.4629 58.115Z" fill="#009CF7"/>
<path id="Vector_11" d="M56.3496 58.115V68.9062H53.5371V58.115C53.5371 57.7421 53.6853 57.3844 53.949 57.1207C54.2127 56.8569 54.5704 56.7088 54.9434 56.7088C55.3163 56.7088 55.674 56.8569 55.9377 57.1207C56.2015 57.3844 56.3496 57.7421 56.3496 58.115Z" fill="#009CF7"/>
<path id="Vector_12" d="M52.9191 44.6245H38.0803C35.397 44.6245 32.8236 45.6905 30.9262 47.5879C29.0288 49.4852 27.9629 52.0587 27.9629 54.742V68.9062H63.0365V54.742C63.0365 52.0587 61.9706 49.4852 60.0732 47.5879C58.1758 45.6905 55.6024 44.6245 52.9191 44.6245Z" fill="#007AF6"/>
<path id="Vector_13" d="M45.4999 44.6247C51.4601 44.6247 56.2918 39.793 56.2918 33.8328C56.2918 27.8726 51.4601 23.0409 45.4999 23.0409C39.5397 23.0409 34.708 27.8726 34.708 33.8328C34.708 39.793 39.5397 44.6247 45.4999 44.6247Z" fill="#007AF6"/>
<path id="Vector_14" d="M37.4629 58.115V68.9062H34.6504V58.115C34.6504 57.7421 34.7985 57.3844 35.0623 57.1207C35.326 56.8569 35.6837 56.7088 36.0566 56.7088C36.4296 56.7088 36.7873 56.8569 37.051 57.1207C37.3147 57.3844 37.4629 57.7421 37.4629 58.115Z" fill="#005DBB"/>
<path id="Vector_15" d="M56.3496 58.115V68.9062H53.5371V58.115C53.5371 57.7421 53.6853 57.3844 53.949 57.1207C54.2127 56.8569 54.5704 56.7088 54.9434 56.7088C55.3163 56.7088 55.674 56.8569 55.9377 57.1207C56.2015 57.3844 56.3496 57.7421 56.3496 58.115Z" fill="#005DBB"/>
<path id="Vector_16" d="M13.1475 59.5424V68.9063H10.335V59.5424C10.335 59.1694 10.4831 58.8117 10.7468 58.548C11.0106 58.2843 11.3683 58.1361 11.7412 58.1361C12.1142 58.1361 12.4719 58.2843 12.7356 58.548C12.9993 58.8117 13.1475 59.1694 13.1475 59.5424Z" fill="#005DBB"/>
</g>
</g>
</svg>
