<svg width="75" height="61" viewBox="0 0 75 61" fill="none" xmlns="http://www.w3.org/2000/svg">
<g id="AdobeStock_521268299 1">
<g id="flat">
<path id="Vector" d="M69.9987 35C69.6943 34.9996 69.4005 34.8881 69.1724 34.6865C68.9443 34.4849 68.7977 34.2069 68.76 33.9048L67.1975 21.4048C67.1757 21.2413 67.1865 21.0751 67.2293 20.9157C67.2721 20.7564 67.346 20.6071 67.4468 20.4764C67.5476 20.3458 67.6732 20.2364 67.8165 20.1545C67.9597 20.0727 68.1178 20.02 68.2815 19.9996C68.4452 19.9791 68.6114 19.9913 68.7704 20.0353C68.9294 20.0794 69.0781 20.1545 69.2079 20.2563C69.3377 20.3582 69.4461 20.4847 69.5268 20.6286C69.6075 20.7725 69.6589 20.931 69.6781 21.0948L71.2406 33.5948C71.2817 33.9238 71.1904 34.2556 70.9869 34.5173C70.7834 34.7789 70.4842 34.949 70.1553 34.9902C70.1033 34.9967 70.051 35 69.9987 35Z" fill="#6EE7F5"/>
<path id="Vector_2" d="M65.2736 59.7913C65.0671 59.791 64.8638 59.7396 64.6819 59.6416C64.5001 59.5436 64.3453 59.4021 64.2315 59.2297C64.1176 59.0574 64.0483 58.8595 64.0296 58.6537C64.0108 58.448 64.0434 58.2409 64.1243 58.0508L70.008 44.2433C70.138 43.9383 70.3838 43.6974 70.6914 43.5737C70.9989 43.4499 71.3431 43.4534 71.6481 43.5834C71.9531 43.7133 72.194 43.9592 72.3177 44.2667C72.4415 44.5743 72.438 44.9184 72.308 45.2234L66.4241 59.0313C66.328 59.2568 66.1677 59.4491 65.9631 59.5842C65.7586 59.7194 65.5188 59.7914 65.2736 59.7913Z" fill="#6EE7F5"/>
<path id="Vector_3" d="M13.7489 57.5C13.4702 57.4998 13.1996 57.4064 12.9801 57.2348C12.7605 57.0632 12.6046 56.8232 12.5371 56.5528L10.0371 46.5528C9.9594 46.2321 10.0116 45.8937 10.1824 45.6114C10.3532 45.329 10.6287 45.1257 10.9488 45.0457C11.2689 44.9657 11.6077 45.0155 11.8913 45.1842C12.1748 45.353 12.3801 45.627 12.4624 45.9466L14.9624 55.9466C15.0083 56.1309 15.0116 56.3233 14.9721 56.5091C14.9326 56.695 14.8512 56.8693 14.7343 57.0191C14.6173 57.1688 14.4678 57.2899 14.297 57.3732C14.1263 57.4566 13.9388 57.4999 13.7489 57.5Z" fill="#2CBFF4"/>
<path id="Vector_4" d="M23.7496 15C23.4527 15.0001 23.1654 14.8946 22.9392 14.7022C22.713 14.5098 22.5627 14.2432 22.5152 13.9501C22.4676 13.657 22.526 13.3566 22.6797 13.1026C22.8335 12.8486 23.0727 12.6576 23.3545 12.5639L34.6045 8.81391C34.918 8.71281 35.2587 8.73953 35.5526 8.88828C35.8465 9.03702 36.0698 9.29575 36.174 9.60824C36.2781 9.92073 36.2548 10.2617 36.1089 10.557C35.9631 10.8524 35.7065 11.0782 35.3951 11.1855L24.1451 14.9355C24.0176 14.9781 23.8841 14.9999 23.7496 15Z" fill="#6EE7F5"/>
<path id="Vector_5" d="M63.75 41.25H56.25C55.9185 41.25 55.6005 41.1183 55.3661 40.8839C55.1317 40.6495 55 40.3315 55 40C55 39.6685 55.1317 39.3505 55.3661 39.1161C55.6005 38.8817 55.9185 38.75 56.25 38.75H63.75C64.0815 38.75 64.3995 38.8817 64.6339 39.1161C64.8683 39.3505 65 39.6685 65 40C65 40.3315 64.8683 40.6495 64.6339 40.8839C64.3995 41.1183 64.0815 41.25 63.75 41.25Z" fill="#2CBFF4"/>
<path id="Vector_6" d="M40 25C39.6685 25 39.3505 24.8683 39.1161 24.6339C38.8817 24.3995 38.75 24.0815 38.75 23.75V15C38.75 14.6685 38.8817 14.3505 39.1161 14.1161C39.3505 13.8817 39.6685 13.75 40 13.75C40.3315 13.75 40.6495 13.8817 40.8839 14.1161C41.1183 14.3505 41.25 14.6685 41.25 15V23.75C41.25 24.0815 41.1183 24.3995 40.8839 24.6339C40.6495 24.8683 40.3315 25 40 25Z" fill="#2CBFF4"/>
<path id="Vector_7" d="M29.375 30.625C29.2108 30.6252 29.0482 30.593 28.8966 30.5302C28.7449 30.4673 28.6071 30.3751 28.4911 30.2589L18.4911 20.2589C18.2567 20.0245 18.125 19.7065 18.125 19.375C18.125 19.0435 18.2567 18.7255 18.4911 18.4911C18.7256 18.2567 19.0435 18.125 19.375 18.125C19.7066 18.125 20.0245 18.2567 20.2589 18.4911L30.2589 28.4911C30.4338 28.6659 30.5528 28.8886 30.6011 29.1311C30.6493 29.3736 30.6245 29.6249 30.5299 29.8534C30.4353 30.0818 30.2751 30.277 30.0695 30.4144C29.8639 30.5517 29.6223 30.625 29.375 30.625Z" fill="#2CBFF4"/>
<path id="Vector_8" d="M23.75 41.25H16.25C15.9185 41.25 15.6005 41.1183 15.3661 40.8839C15.1317 40.6495 15 40.3315 15 40C15 39.6685 15.1317 39.3505 15.3661 39.1161C15.6005 38.8817 15.9185 38.75 16.25 38.75H23.75C24.0815 38.75 24.3995 38.8817 24.6339 39.1161C24.8683 39.3505 25 39.6685 25 40C25 40.3315 24.8683 40.6495 24.6339 40.8839C24.3995 41.1183 24.0815 41.25 23.75 41.25Z" fill="#6EE7F5"/>
<path id="Vector_9" d="M20 61.25C19.7528 61.25 19.5111 61.1767 19.3056 61.0394C19.1 60.902 18.9398 60.7068 18.8452 60.4784C18.7505 60.2499 18.7258 59.9986 18.774 59.7561C18.8223 59.5136 18.9413 59.2909 19.1161 59.1161L27.8661 50.3661C28.1006 50.1317 28.4185 50 28.75 50C29.0816 50 29.3995 50.1317 29.634 50.3661C29.8684 50.6005 30.0001 50.9185 30.0001 51.25C30.0001 51.5815 29.8684 51.8995 29.634 52.1339L20.884 60.8839C20.768 61.0002 20.6302 61.0923 20.4785 61.1552C20.3268 61.218 20.1642 61.2502 20 61.25Z" fill="#6EE7F5"/>
<path id="Vector_10" d="M60.6782 61.9281C60.514 61.9284 60.3514 61.8963 60.1997 61.8335C60.048 61.7708 59.9102 61.6787 59.7943 61.5625L50.3661 52.1344C50.25 52.0183 50.158 51.8805 50.0952 51.7288C50.0323 51.5772 50 51.4146 50 51.2505C50 51.0863 50.0323 50.9238 50.0952 50.7721C50.158 50.6204 50.25 50.4826 50.3661 50.3666C50.4822 50.2505 50.62 50.1584 50.7717 50.0956C50.9233 50.0328 51.0859 50.0004 51.25 50.0004C51.4142 50.0004 51.5767 50.0328 51.7284 50.0956C51.8801 50.1584 52.0179 50.2505 52.1339 50.3666L61.5625 59.7942C61.7374 59.969 61.8564 60.1918 61.9046 60.4343C61.9529 60.6767 61.9281 60.9281 61.8335 61.1565C61.7389 61.3849 61.5787 61.5801 61.3731 61.7175C61.1675 61.8548 60.9259 61.9281 60.6786 61.9281H60.6782Z" fill="#6EE7F5"/>
<path id="Vector_11" d="M51.25 30C51.0028 30 50.7611 29.9267 50.5556 29.7894C50.35 29.652 50.1898 29.4568 50.0952 29.2284C50.0005 28.9999 49.9758 28.7486 50.024 28.5061C50.0723 28.2636 50.1913 28.0409 50.3661 27.8661L59.7411 18.4911C59.8572 18.375 59.995 18.2829 60.1467 18.2201C60.2983 18.1573 60.4609 18.125 60.625 18.125C60.7892 18.125 60.9518 18.1573 61.1034 18.2201C61.2551 18.2829 61.3929 18.375 61.509 18.4911C61.625 18.6072 61.7171 18.745 61.7799 18.8966C61.8427 19.0483 61.8751 19.2108 61.8751 19.375C61.8751 19.5392 61.8427 19.7017 61.7799 19.8534C61.7171 20.005 61.625 20.1428 61.509 20.2589L52.134 29.6339C52.018 29.7501 51.8802 29.8423 51.7285 29.9052C51.5768 29.968 51.4142 30.0002 51.25 30Z" fill="#6EE7F5"/>
<path id="Vector_12" d="M40 56.25C48.9746 56.25 56.25 48.9746 56.25 40C56.25 31.0254 48.9746 23.75 40 23.75C31.0254 23.75 23.75 31.0254 23.75 40C23.75 48.9746 31.0254 56.25 40 56.25Z" fill="#D18D28"/>
<path id="Vector_13" d="M13.75 23.75C19.2728 23.75 23.75 19.2728 23.75 13.75C23.75 8.22715 19.2728 3.75 13.75 3.75C8.22715 3.75 3.75 8.22715 3.75 13.75C3.75 19.2728 8.22715 23.75 13.75 23.75Z" fill="#0BAFEA"/>
<path id="Vector_14" d="M20 21.25V21.5578C18.2259 22.9769 16.0218 23.75 13.75 23.75C11.4782 23.75 9.27405 22.9769 7.5 21.5578V21.25C7.50025 20.2555 7.89542 19.3018 8.59862 18.5986C9.30183 17.8954 10.2555 17.5002 11.25 17.5H16.25C17.2445 17.5002 18.1982 17.8954 18.9014 18.5986C19.6046 19.3018 19.9998 20.2555 20 21.25Z" fill="#0276B4"/>
<path id="Vector_15" d="M13.75 17.5C15.8211 17.5 17.5 15.8211 17.5 13.75C17.5 11.6789 15.8211 10 13.75 10C11.6789 10 10 11.6789 10 13.75C10 15.8211 11.6789 17.5 13.75 17.5Z" fill="#0296E5"/>
<path id="Vector_16" d="M16.25 17.5H11.25C10.2555 17.5002 9.30183 17.8954 8.59862 18.5986C7.89542 19.3018 7.50025 20.2555 7.5 21.25V21.5578C9.27405 22.9769 11.4782 23.75 13.75 23.75C16.0218 23.75 18.2259 22.9769 20 21.5578V21.25C19.9998 20.2555 19.6046 19.3018 18.9014 18.5986C18.1982 17.8954 17.2445 17.5002 16.25 17.5Z" fill="#0296E5"/>
<path id="Vector_17" d="M13.75 76.25C19.2728 76.25 23.75 71.7729 23.75 66.25C23.75 60.7272 19.2728 56.25 13.75 56.25C8.22715 56.25 3.75 60.7272 3.75 66.25C3.75 71.7729 8.22715 76.25 13.75 76.25Z" fill="#02A437"/>
<path id="Vector_18" d="M45 38.75C45.0001 37.9606 44.8134 37.1824 44.4549 36.479C44.0965 35.7757 43.5767 35.1672 42.9379 34.7033C42.2991 34.2395 41.5596 33.9335 40.7799 33.8104C40.0001 33.6872 39.2023 33.7505 38.4517 33.9949C37.7011 34.2394 37.019 34.6581 36.4613 35.2168C35.9036 35.7754 35.4861 36.4582 35.243 37.2093C34.9999 37.9603 34.9381 38.7583 35.0626 39.5378C35.1871 40.3173 35.4944 41.0563 35.9594 41.6942C36.9463 43.0188 37.4859 44.6232 37.5 46.275H42.5C42.4979 44.642 43.0254 43.0524 44.0033 41.7447C44.6518 40.8811 45.0017 39.83 45 38.75Z" fill="#FBB540"/>
<path id="Vector_19" d="M37.5 46.275H42.5V48.75C42.5 49.413 42.2366 50.0489 41.7678 50.5178C41.2989 50.9866 40.663 51.25 40 51.25C39.337 51.25 38.7011 50.9866 38.2322 50.5178C37.7634 50.0489 37.5 49.413 37.5 48.75V46.275Z" fill="#CBCBCB"/>
<path id="Vector_20" d="M40 31.25C39.6685 31.25 39.3505 31.1183 39.1161 30.8839C38.8817 30.6495 38.75 30.3315 38.75 30V27.5C38.75 27.1685 38.8817 26.8505 39.1161 26.6161C39.3505 26.3817 39.6685 26.25 40 26.25C40.3315 26.25 40.6495 26.3817 40.8839 26.6161C41.1183 26.8505 41.25 27.1685 41.25 27.5V30C41.25 30.3315 41.1183 30.6495 40.8839 30.8839C40.6495 31.1183 40.3315 31.25 40 31.25Z" fill="#FBB540"/>
<path id="Vector_21" d="M35 32.5C34.8358 32.5002 34.6732 32.468 34.5215 32.4052C34.3699 32.3423 34.2321 32.2501 34.1161 32.1339L32.8661 30.8839C32.6317 30.6495 32.5 30.3315 32.5 30C32.5 29.6685 32.6317 29.3505 32.8661 29.1161C33.1006 28.8817 33.4185 28.75 33.75 28.75C34.0816 28.75 34.3995 28.8817 34.6339 29.1161L35.8839 30.3661C36.0588 30.5409 36.1778 30.7636 36.2261 31.0061C36.2743 31.2486 36.2495 31.4999 36.1549 31.7284C36.0603 31.9568 35.9001 32.152 35.6945 32.2894C35.4889 32.4267 35.2473 32.5 35 32.5Z" fill="#FBB540"/>
<path id="Vector_22" d="M45 32.5C44.7528 32.5 44.5111 32.4267 44.3056 32.2894C44.1 32.152 43.9398 31.9568 43.8452 31.7284C43.7505 31.5 43.7258 31.2486 43.774 31.0061C43.8223 30.7636 43.9413 30.5409 44.1161 30.3661L45.3661 29.1161C45.4822 29 45.62 28.9079 45.7717 28.8451C45.9233 28.7823 46.0859 28.75 46.25 28.75C46.4142 28.75 46.5768 28.7823 46.7284 28.8451C46.8801 28.9079 47.0179 29 47.134 29.1161C47.25 29.2322 47.3421 29.37 47.4049 29.5216C47.4677 29.6733 47.5001 29.8358 47.5001 30C47.5001 30.1642 47.4677 30.3267 47.4049 30.4784C47.3421 30.63 47.25 30.7678 47.134 30.8839L45.884 32.1339C45.768 32.2501 45.6302 32.3423 45.4785 32.4052C45.3268 32.468 45.1642 32.5002 45 32.5Z" fill="#FBB540"/>
<path id="Vector_23" d="M10 46.25C13.4518 46.25 16.25 43.4518 16.25 40C16.25 36.5482 13.4518 33.75 10 33.75C6.54822 33.75 3.75 36.5482 3.75 40C3.75 43.4518 6.54822 46.25 10 46.25Z" fill="#FBB540"/>
<path id="Vector_24" d="M70 46.25C73.4518 46.25 76.25 43.4518 76.25 40C76.25 36.5482 73.4518 33.75 70 33.75C66.5482 33.75 63.75 36.5482 63.75 40C63.75 43.4518 66.5482 46.25 70 46.25Z" fill="#FBB540"/>
<path id="Vector_25" d="M40 15C42.7614 15 45 12.7614 45 10C45 7.23858 42.7614 5 40 5C37.2386 5 35 7.23858 35 10C35 12.7614 37.2386 15 40 15Z" fill="#FBB540"/>
<path id="Vector_26" d="M42.5 46.25H37.5V47.5H42.5V46.25Z" fill="#A8A8A8"/>
<path id="Vector_27" d="M66.25 23.6167C71.7728 23.6167 76.25 19.1396 76.25 13.6167C76.25 8.09387 71.7728 3.61672 66.25 3.61672C60.7272 3.61672 56.25 8.09387 56.25 13.6167C56.25 19.1396 60.7272 23.6167 66.25 23.6167Z" fill="#FF3444"/>
<path id="Vector_28" d="M66.25 17.3667C68.3211 17.3667 70 15.6878 70 13.6167C70 11.5457 68.3211 9.86672 66.25 9.86672C64.1789 9.86672 62.5 11.5457 62.5 13.6167C62.5 15.6878 64.1789 17.3667 66.25 17.3667Z" fill="#961B20"/>
<path id="Vector_29" d="M68.75 17.3667H63.75C62.7555 17.367 61.8018 17.7621 61.0986 18.4653C60.3954 19.1686 60.0002 20.1222 60 21.1167V21.4245C61.7741 22.8436 63.9782 23.6167 66.25 23.6167C68.5218 23.6167 70.7259 22.8436 72.5 21.4245V21.1167C72.4998 20.1222 72.1046 19.1686 71.4014 18.4653C70.6982 17.7621 69.7445 17.367 68.75 17.3667Z" fill="#961B20"/>
<path id="Vector_30" d="M66.25 76.25C71.7728 76.25 76.25 71.7729 76.25 66.25C76.25 60.7272 71.7728 56.25 66.25 56.25C60.7272 56.25 56.25 60.7272 56.25 66.25C56.25 71.7729 60.7272 76.25 66.25 76.25Z" fill="#FFD6DB"/>
</g>
</g>
</svg>
