<svg width="101" height="78" viewBox="0 0 101 78" fill="none" xmlns="http://www.w3.org/2000/svg">
<g id="AdobeStock_446203071 1">
<path id="Vector" d="M48.1252 73.9062L43.9143 86.5605C43.3342 88.3223 43.592 90.2773 44.6233 91.8242C45.7404 93.5 47.6311 94.5097 49.6506 94.5097H55.0002L48.1252 73.9062Z" fill="#FDC9A6"/>
<path id="Vector_2" d="M46.3203 79.3418L48.125 73.9062L52.1426 85.9375L46.3203 79.3418Z" fill="#005DBB"/>
<path id="Vector_3" d="M86.2602 7.17578C84.0258 6.53125 81.641 6.89648 79.5785 8.20703C77.5805 9.47461 76.0766 11.4941 75.3891 13.8789C74.1215 18.2617 75.9047 22.752 79.4281 24.6856L75.6898 37.7266C75.432 38.6289 75.9477 39.5957 76.8715 39.8535C77.0219 39.8965 77.1938 39.918 77.3441 39.918C78.0961 39.918 78.7836 39.4238 78.9984 38.6719L82.7582 25.6309C82.9086 25.6309 83.059 25.6524 83.2309 25.6524C87.0766 25.6524 90.7289 22.8594 91.932 18.627C93.35 13.6426 90.8148 8.48633 86.2602 7.17578ZM88.602 17.6816C87.8715 20.1953 85.8734 21.9356 83.725 22.1719L85.057 17.5527C85.3148 16.6504 84.7992 15.6836 83.8754 15.4258C82.973 15.168 82.0063 15.6836 81.7484 16.6074L80.4164 21.2266C78.7191 19.8731 77.9672 17.3379 78.6762 14.8242C79.1273 13.2344 80.0941 11.9238 81.3832 11.1074C82.2211 10.5703 83.1449 10.291 84.0473 10.291C84.4555 10.291 84.8852 10.3555 85.2719 10.4629C88.0434 11.2793 89.5258 14.502 88.602 17.6816Z" fill="#FD7422"/>
<path id="Vector_4" d="M41.25 51.5625L37.8125 55H27.5V61.875L41.25 63.5938L43.8281 61.875L41.25 51.5625Z" fill="#FDC9A6"/>
<path id="Vector_5" d="M43.8281 61.875L46.4062 60.1562V69.6094C46.4062 70.4688 46.4492 71.3281 46.5137 72.1875H63.5938L65.3125 55L68.75 55.4941L70.4688 47.4375L64.7539 45.1387C64.002 44.8379 63.1855 44.6875 62.3691 44.6875H50.8105C49.0918 44.6875 47.459 45.375 46.2559 46.5781L41.25 51.5625L43.8281 61.875Z" fill="#EAE9E4"/>
<path id="Vector_6" d="M68.75 55.4941L74.7012 56.3535C76.3555 56.5898 78.0313 56.0312 79.2129 54.8496C80.2012 53.8613 80.7598 52.5078 80.7598 51.0898V42.9688L82.4785 37.8125L79.041 34.375L73.8848 37.8125V41.25L72.166 48.125L70.4473 47.4375L68.75 55.4941Z" fill="#FDC9A6"/>
<path id="Vector_7" d="M65.6563 82.5L63.5938 72.1875H46.5137C46.7715 75.2812 47.5234 78.3105 48.7266 81.168L50.7031 85.9375L65.6563 82.5Z" fill="#0A71CD"/>
<path id="Vector_8" d="M41.6582 15.3398L34.5684 15.0605L37.1895 12.2461L34.375 9.625L38.1563 8.9375L37.4687 5.15625L43.5918 8.74414L41.6582 15.3398Z" fill="#EAE9E4"/>
<path id="Vector_9" d="M49.2207 13.9863C48.6836 15.8125 46.7715 16.8437 44.9453 16.3066L41.6367 15.3398L43.5703 8.74414L46.8789 9.71094C48.7051 10.248 49.7578 12.1602 49.2207 13.9863Z" fill="#BBBAB6"/>
<path id="Vector_10" d="M52.937 33.6875L50.8745 36.4375C49.1558 38.7148 49.6284 41.9375 51.9058 43.6562C54.1831 45.375 57.4058 44.9023 59.1245 42.625L57.062 36.7812L52.937 33.6875Z" fill="#FDC9A6"/>
<path id="Vector_11" d="M61.1875 39.875C62.9062 37.5976 62.4336 34.375 60.1562 32.6562C57.8789 30.9375 54.6562 31.4101 52.9375 33.6875L57.0625 36.7812L59.125 42.625L61.1875 39.875Z" fill="#4A4B46"/>
<path id="Vector_12" d="M88.8374 17.7478C89.762 14.5319 88.191 11.2578 85.3286 10.4349C82.4662 9.61204 79.3964 11.552 78.4718 14.7679C77.5473 17.9838 79.1183 21.2579 81.9807 22.0808C84.843 22.9036 87.9129 20.9637 88.8374 17.7478Z" fill="#EAE9E4"/>
</g>
</svg>
