<svg width="46" height="52" viewBox="0 0 46 52" fill="none" xmlns="http://www.w3.org/2000/svg">
<rect width="46" height="52" rx="6" fill="#F4F4F5"/>
<mask id="mask0_2881_38404" style="mask-type:alpha" maskUnits="userSpaceOnUse" x="13" y="16" width="20" height="20">
<rect x="33" y="16" width="20" height="20" transform="rotate(90 33 16)" fill="#D9D9D9"/>
</mask>
<g mask="url(#mask0_2881_38404)">
<path d="M14.75 26.0002C14.75 25.8891 14.7708 25.7849 14.8125 25.6877C14.8542 25.5904 14.9167 25.5002 15 25.4168L19.6458 20.7502C19.7986 20.5974 19.9931 20.521 20.2292 20.521C20.4653 20.521 20.6667 20.5974 20.8333 20.7502C21 20.9168 21.0833 21.1147 21.0833 21.3439C21.0833 21.5731 21 21.771 20.8333 21.9377L17.5833 25.1668H22.7292C22.9653 25.1668 23.1632 25.2467 23.3229 25.4064C23.4826 25.5661 23.5625 25.7641 23.5625 26.0002C23.5625 26.2363 23.4826 26.4342 23.3229 26.5939C23.1632 26.7536 22.9653 26.8335 22.7292 26.8335H17.5833L20.8333 30.0835C20.9861 30.2363 21.0625 30.4272 21.0625 30.6564C21.0625 30.8856 20.9792 31.0835 20.8125 31.2502C20.6597 31.4029 20.4653 31.4793 20.2292 31.4793C19.9931 31.4793 19.7986 31.4029 19.6458 31.2502L15 26.5835C14.9167 26.5002 14.8542 26.4099 14.8125 26.3127C14.7708 26.2154 14.75 26.1113 14.75 26.0002ZM25.2292 26.0002C25.2292 25.7641 25.309 25.5661 25.4688 25.4064C25.6285 25.2467 25.8264 25.1668 26.0625 25.1668H26.8958C27.1319 25.1668 27.3299 25.2467 27.4896 25.4064C27.6493 25.5661 27.7292 25.7641 27.7292 26.0002C27.7292 26.2363 27.6493 26.4342 27.4896 26.5939C27.3299 26.7536 27.1319 26.8335 26.8958 26.8335H26.0625C25.8264 26.8335 25.6285 26.7536 25.4688 26.5939C25.309 26.4342 25.2292 26.2363 25.2292 26.0002ZM29.3958 26.0002C29.3958 25.7641 29.4757 25.5661 29.6354 25.4064C29.7951 25.2467 29.9931 25.1668 30.2292 25.1668C30.4653 25.1668 30.6632 25.2467 30.8229 25.4064C30.9826 25.5661 31.0625 25.7641 31.0625 26.0002C31.0625 26.2363 30.9826 26.4342 30.8229 26.5939C30.6632 26.7536 30.4653 26.8335 30.2292 26.8335C29.9931 26.8335 29.7951 26.7536 29.6354 26.5939C29.4757 26.4342 29.3958 26.2363 29.3958 26.0002Z" fill="#525252"/>
</g>
</svg>
