<svg width="46" height="52" viewBox="0 0 46 52" fill="none" xmlns="http://www.w3.org/2000/svg">
<rect width="46" height="52" rx="6" fill="#F4F4F5"/>
<mask id="mask0_2881_38414" style="mask-type:alpha" maskUnits="userSpaceOnUse" x="13" y="16" width="20" height="20">
<rect x="13" y="36" width="20" height="20" transform="rotate(-90 13 36)" fill="#D9D9D9"/>
</mask>
<g mask="url(#mask0_2881_38414)">
<path d="M31.25 25.9998C31.25 26.1109 31.2292 26.2151 31.1875 26.3123C31.1458 26.4096 31.0833 26.4998 31 26.5832L26.3542 31.2498C26.2014 31.4026 26.0069 31.479 25.7708 31.479C25.5347 31.479 25.3333 31.4026 25.1667 31.2498C25 31.0832 24.9167 30.8853 24.9167 30.6561C24.9167 30.4269 25 30.229 25.1667 30.0623L28.4167 26.8332H23.2708C23.0347 26.8332 22.8368 26.7533 22.6771 26.5936C22.5174 26.4339 22.4375 26.2359 22.4375 25.9998C22.4375 25.7637 22.5174 25.5658 22.6771 25.4061C22.8368 25.2464 23.0347 25.1665 23.2708 25.1665H28.4167L25.1667 21.9165C25.0139 21.7637 24.9375 21.5728 24.9375 21.3436C24.9375 21.1144 25.0208 20.9165 25.1875 20.7498C25.3403 20.5971 25.5347 20.5207 25.7708 20.5207C26.0069 20.5207 26.2014 20.5971 26.3542 20.7498L31 25.4165C31.0833 25.4998 31.1458 25.5901 31.1875 25.6873C31.2292 25.7846 31.25 25.8887 31.25 25.9998ZM20.7708 25.9998C20.7708 26.2359 20.691 26.4339 20.5312 26.5936C20.3715 26.7533 20.1736 26.8332 19.9375 26.8332H19.1042C18.8681 26.8332 18.6701 26.7533 18.5104 26.5936C18.3507 26.4339 18.2708 26.2359 18.2708 25.9998C18.2708 25.7637 18.3507 25.5658 18.5104 25.4061C18.6701 25.2464 18.8681 25.1665 19.1042 25.1665H19.9375C20.1736 25.1665 20.3715 25.2464 20.5312 25.4061C20.691 25.5658 20.7708 25.7637 20.7708 25.9998ZM16.6042 25.9998C16.6042 26.2359 16.5243 26.4339 16.3646 26.5936C16.2049 26.7533 16.0069 26.8332 15.7708 26.8332C15.5347 26.8332 15.3368 26.7533 15.1771 26.5936C15.0174 26.4339 14.9375 26.2359 14.9375 25.9998C14.9375 25.7637 15.0174 25.5658 15.1771 25.4061C15.3368 25.2464 15.5347 25.1665 15.7708 25.1665C16.0069 25.1665 16.2049 25.2464 16.3646 25.4061C16.5243 25.5658 16.6042 25.7637 16.6042 25.9998Z" fill="#525252"/>
</g>
</svg>
