<svg width="28" height="29" viewBox="0 0 28 29" fill="none" xmlns="http://www.w3.org/2000/svg">
<mask id="mask0_3327_33038" style="mask-type:alpha" maskUnits="userSpaceOnUse" x="0" y="0" width="28" height="29">
<rect y="0.5" width="28" height="28" fill="#D9D9D9"/>
</mask>
<g mask="url(#mask0_3327_33038)">
<path d="M10.2083 19.9832L9.04159 21.9957C8.88603 22.2679 8.64784 22.4478 8.327 22.5353C8.00617 22.6228 7.70964 22.5887 7.43742 22.4332C7.1652 22.2776 6.98534 22.0394 6.89784 21.7186C6.81034 21.3978 6.84436 21.1012 6.99992 20.829L12.4249 11.4665C11.686 10.7082 11.1319 9.84289 10.7624 8.87067C10.393 7.89845 10.2083 6.89706 10.2083 5.8665C10.2083 5.36095 10.252 4.85053 10.3395 4.33525C10.427 3.81998 10.5777 3.31928 10.7916 2.83317C10.9083 2.5415 11.1221 2.35192 11.4333 2.26442C11.7444 2.17692 12.036 2.21095 12.3083 2.3665C12.5805 2.52206 12.7603 2.75539 12.8478 3.0665C12.9353 3.37762 12.9305 3.68873 12.8333 3.99984C12.736 4.2915 12.6631 4.58803 12.6145 4.88942C12.5659 5.19081 12.5416 5.49706 12.5416 5.80817C12.5416 6.83873 12.7944 7.80609 13.2999 8.71025C13.8055 9.61442 14.5249 10.3387 15.4583 10.8832L18.0833 12.3998C19.2888 13.0998 20.1735 14.1061 20.7374 15.4186C21.3013 16.7311 21.5833 17.9609 21.5833 19.1082C21.5833 19.6332 21.5346 20.1533 21.4374 20.6686C21.3402 21.1839 21.1944 21.6846 20.9999 22.1707C20.8833 22.4818 20.6694 22.6811 20.3583 22.7686C20.0471 22.8561 19.7458 22.8221 19.4541 22.6665C19.1819 22.511 18.9971 22.2776 18.8999 21.9665C18.8027 21.6554 18.8027 21.3346 18.8999 21.004C18.9971 20.6929 19.0701 20.3866 19.1187 20.0853C19.1673 19.7839 19.1916 19.4776 19.1916 19.1665C19.1916 18.5443 19.1041 17.9415 18.9291 17.3582C18.7541 16.7748 18.4721 16.2304 18.0833 15.7248L11.3166 27.3623C11.161 27.6346 10.9228 27.8144 10.602 27.9019C10.2812 27.9894 9.98464 27.9554 9.71242 27.7998C9.4402 27.6443 9.26034 27.4061 9.17284 27.0853C9.08534 26.7644 9.11936 26.4679 9.27492 26.1957L12.1916 21.1498L10.2083 19.9832ZM18.6666 10.9998C18.0249 10.9998 17.4756 10.7714 17.0187 10.3144C16.5617 9.85748 16.3333 9.30817 16.3333 8.6665C16.3333 8.02484 16.5617 7.47553 17.0187 7.01859C17.4756 6.56164 18.0249 6.33317 18.6666 6.33317C19.3083 6.33317 19.8576 6.56164 20.3145 7.01859C20.7714 7.47553 20.9999 8.02484 20.9999 8.6665C20.9999 9.30817 20.7714 9.85748 20.3145 10.3144C19.8576 10.7714 19.3083 10.9998 18.6666 10.9998ZM15.7499 5.1665C15.2444 5.1665 14.8263 4.9915 14.4958 4.6415C14.1652 4.2915 13.9999 3.88317 13.9999 3.4165C13.9999 2.91095 14.1749 2.49289 14.5249 2.16234C14.8749 1.83178 15.2833 1.6665 15.7499 1.6665C16.2555 1.6665 16.6735 1.8415 17.0041 2.1915C17.3346 2.5415 17.4999 2.94984 17.4999 3.4165C17.4999 3.92206 17.3249 4.34012 16.9749 4.67067C16.6249 5.00123 16.2166 5.1665 15.7499 5.1665Z" fill="#171717"/>
</g>
</svg>
