<svg width="28" height="29" viewBox="0 0 28 29" fill="none" xmlns="http://www.w3.org/2000/svg">
<mask id="mask0_3327_30976" style="mask-type:alpha" maskUnits="userSpaceOnUse" x="0" y="0" width="28" height="29">
<rect y="0.5" width="28" height="28" fill="#D9D9D9"/>
</mask>
<g mask="url(#mask0_3327_30976)">
<path d="M22.1668 7.5C21.1946 7.5 20.3682 7.15972 19.6877 6.47917C19.0071 5.79861 18.6668 4.97222 18.6668 4C18.6668 3.02778 19.0071 2.20139 19.6877 1.52083C20.3682 0.840278 21.1946 0.5 22.1668 0.5C23.1391 0.5 23.9654 0.840278 24.646 1.52083C25.3266 2.20139 25.6668 3.02778 25.6668 4C25.6668 4.97222 25.3266 5.79861 24.646 6.47917C23.9654 7.15972 23.1391 7.5 22.1668 7.5ZM7.00016 21.5L4.31683 24.1833C3.94739 24.5528 3.52447 24.6354 3.04808 24.4312C2.57169 24.2271 2.3335 23.8625 2.3335 23.3375V5.16667C2.3335 4.525 2.56197 3.97569 3.01891 3.51875C3.47586 3.06181 4.02516 2.83333 4.66683 2.83333H16.4502C16.3724 3.22222 16.3335 3.61111 16.3335 4C16.3335 4.38889 16.3724 4.77778 16.4502 5.16667C16.5474 5.61389 16.6835 6.03194 16.8585 6.42083C17.0335 6.80972 17.2474 7.16944 17.5002 7.5H8.16683C7.83627 7.5 7.55919 7.61181 7.33558 7.83542C7.11197 8.05903 7.00016 8.33611 7.00016 8.66667C7.00016 8.99722 7.11197 9.27431 7.33558 9.49792C7.55919 9.72153 7.83627 9.83333 8.16683 9.83333H22.1668C22.7891 9.83333 23.4016 9.73611 24.0043 9.54167C24.6071 9.34722 25.1613 9.05556 25.6668 8.66667V19.1667C25.6668 19.8083 25.4384 20.3576 24.9814 20.8146C24.5245 21.2715 23.9752 21.5 23.3335 21.5H7.00016ZM8.16683 13.3333H19.8335C20.1641 13.3333 20.4411 13.2215 20.6647 12.9979C20.8884 12.7743 21.0002 12.4972 21.0002 12.1667C21.0002 11.8361 20.8884 11.559 20.6647 11.3354C20.4411 11.1118 20.1641 11 19.8335 11H8.16683C7.83627 11 7.55919 11.1118 7.33558 11.3354C7.11197 11.559 7.00016 11.8361 7.00016 12.1667C7.00016 12.4972 7.11197 12.7743 7.33558 12.9979C7.55919 13.2215 7.83627 13.3333 8.16683 13.3333ZM8.16683 16.8333H15.1668C15.4974 16.8333 15.7745 16.7215 15.9981 16.4979C16.2217 16.2743 16.3335 15.9972 16.3335 15.6667C16.3335 15.3361 16.2217 15.059 15.9981 14.8354C15.7745 14.6118 15.4974 14.5 15.1668 14.5H8.16683C7.83627 14.5 7.55919 14.6118 7.33558 14.8354C7.11197 15.059 7.00016 15.3361 7.00016 15.6667C7.00016 15.9972 7.11197 16.2743 7.33558 16.4979C7.55919 16.7215 7.83627 16.8333 8.16683 16.8333Z" fill="#10B981"/>
</g>
</svg>
