<svg width="29" height="29" viewBox="0 0 29 29" fill="none" xmlns="http://www.w3.org/2000/svg">
<mask id="mask0_3049_24030" style="mask-type:alpha" maskUnits="userSpaceOnUse" x="0" y="0" width="29" height="29">
<rect x="0.5" y="0.5" width="28" height="28" fill="#D9D9D9"/>
</mask>
<g mask="url(#mask0_3049_24030)">
<path d="M1.66667 21.5C1.33611 21.5 1.05903 21.3882 0.835417 21.1646C0.611806 20.941 0.5 20.6639 0.5 20.3333V19.6625C0.5 18.8264 0.927778 18.1458 1.78333 17.6208C2.63889 17.0958 3.76667 16.8333 5.16667 16.8333C5.41944 16.8333 5.6625 16.8382 5.89583 16.8479C6.12917 16.8576 6.35278 16.8819 6.56667 16.9208C6.29444 17.3292 6.09028 17.7569 5.95417 18.2042C5.81806 18.6514 5.75 19.1181 5.75 19.6042V21.5H1.66667ZM8.66667 21.5C8.33611 21.5 8.05903 21.3882 7.83542 21.1646C7.61181 20.941 7.5 20.6639 7.5 20.3333V19.6042C7.5 18.9819 7.67014 18.4132 8.01042 17.8979C8.35069 17.3826 8.83194 16.9306 9.45417 16.5417C10.0764 16.1528 10.8201 15.8611 11.6854 15.6667C12.5507 15.4722 13.4889 15.375 14.5 15.375C15.5306 15.375 16.4785 15.4722 17.3438 15.6667C18.209 15.8611 18.9528 16.1528 19.575 16.5417C20.1972 16.9306 20.6736 17.3826 21.0042 17.8979C21.3347 18.4132 21.5 18.9819 21.5 19.6042V20.3333C21.5 20.6639 21.3882 20.941 21.1646 21.1646C20.941 21.3882 20.6639 21.5 20.3333 21.5H8.66667ZM23.25 21.5V19.6042C23.25 19.0986 23.1868 18.6222 23.0604 18.175C22.934 17.7278 22.7444 17.3097 22.4917 16.9208C22.7056 16.8819 22.9243 16.8576 23.1479 16.8479C23.3715 16.8382 23.6 16.8333 23.8333 16.8333C25.2333 16.8333 26.3611 17.091 27.2167 17.6062C28.0722 18.1215 28.5 18.8069 28.5 19.6625V20.3333C28.5 20.6639 28.3882 20.941 28.1646 21.1646C27.941 21.3882 27.6639 21.5 27.3333 21.5H23.25ZM5.16667 15.6667C4.525 15.6667 3.97569 15.4382 3.51875 14.9812C3.06181 14.5243 2.83333 13.975 2.83333 13.3333C2.83333 12.6722 3.06181 12.1181 3.51875 11.6708C3.97569 11.2236 4.525 11 5.16667 11C5.82778 11 6.38194 11.2236 6.82917 11.6708C7.27639 12.1181 7.5 12.6722 7.5 13.3333C7.5 13.975 7.27639 14.5243 6.82917 14.9812C6.38194 15.4382 5.82778 15.6667 5.16667 15.6667ZM23.8333 15.6667C23.1917 15.6667 22.6424 15.4382 22.1854 14.9812C21.7285 14.5243 21.5 13.975 21.5 13.3333C21.5 12.6722 21.7285 12.1181 22.1854 11.6708C22.6424 11.2236 23.1917 11 23.8333 11C24.4944 11 25.0486 11.2236 25.4958 11.6708C25.9431 12.1181 26.1667 12.6722 26.1667 13.3333C26.1667 13.975 25.9431 14.5243 25.4958 14.9812C25.0486 15.4382 24.4944 15.6667 23.8333 15.6667ZM14.5 14.5C13.5278 14.5 12.7014 14.1597 12.0208 13.4792C11.3403 12.7986 11 11.9722 11 11C11 10.0083 11.3403 9.17708 12.0208 8.50625C12.7014 7.83542 13.5278 7.5 14.5 7.5C15.4917 7.5 16.3229 7.83542 16.9937 8.50625C17.6646 9.17708 18 10.0083 18 11C18 11.9722 17.6646 12.7986 16.9937 13.4792C16.3229 14.1597 15.4917 14.5 14.5 14.5Z" fill="#10B981"/>
</g>
</svg>
