<svg width="78" height="53" viewBox="0 0 78 53" fill="none" xmlns="http://www.w3.org/2000/svg">
<g filter="url(#filter0_d_1871_37374)">
<rect x="2" y="1" width="74" height="49" rx="24.5" fill="#10B981" shape-rendering="crispEdges"/>
<path d="M24.75 24.75V19.5H23.25V24.75H18V26.25H23.25V31.5H24.75V26.25H30V24.75H24.75Z" fill="#FAFAFA"/>
<path d="M38.828 21.866H40.228V22.202C40.228 24.89 39.444 27.592 37.372 28.782L36.322 27.382C38.17 26.304 38.828 24.19 38.828 22.202V21.866ZM39.192 21.866H40.592V22.202C40.592 24.148 41.264 26.122 43.098 27.102L42.09 28.474C39.99 27.382 39.192 24.848 39.192 22.202V21.866ZM36.756 20.466H42.65V21.964H36.756V20.466ZM38.828 18.716H40.592V21.67H38.828V18.716ZM46.024 18.282H47.788V31.246H46.024V18.282ZM44.47 23.252H46.626V24.764H44.47V23.252ZM43.238 18.478H44.974V30.658H43.238V18.478ZM50.1529 24.092H51.2589C53.9329 24.092 55.4869 24.064 57.2649 23.784L57.4469 25.226C55.6269 25.534 53.9889 25.562 51.2589 25.562H50.1529V24.092ZM50.1529 19.178H56.3829V20.648H52.0009V24.694H50.1529V19.178ZM51.4269 21.642H56.0049V23.07H51.4269V21.642ZM58.3429 18.296H60.2189V26.122H58.3429V18.296ZM55.8369 26.318C58.5669 26.318 60.2749 27.228 60.2749 28.782C60.2749 30.35 58.5669 31.246 55.8369 31.246C53.0929 31.246 51.3989 30.35 51.3989 28.782C51.3989 27.228 53.0929 26.318 55.8369 26.318ZM55.8369 27.746C54.1429 27.746 53.2609 28.082 53.2609 28.782C53.2609 29.496 54.1429 29.832 55.8369 29.832C57.5169 29.832 58.4129 29.496 58.4129 28.782C58.4129 28.082 57.5169 27.746 55.8369 27.746Z" fill="#FAFAFA"/>
</g>
<defs>
<filter id="filter0_d_1871_37374" x="0.59" y="0.59" width="76.82" height="51.82" filterUnits="userSpaceOnUse" color-interpolation-filters="sRGB">
<feFlood flood-opacity="0" result="BackgroundImageFix"/>
<feColorMatrix in="SourceAlpha" type="matrix" values="0 0 0 0 0 0 0 0 0 0 0 0 0 0 0 0 0 0 127 0" result="hardAlpha"/>
<feOffset dy="1"/>
<feGaussianBlur stdDeviation="0.705"/>
<feComposite in2="hardAlpha" operator="out"/>
<feColorMatrix type="matrix" values="0 0 0 0 0 0 0 0 0 0 0 0 0 0 0 0 0 0 0.2 0"/>
<feBlend mode="normal" in2="BackgroundImageFix" result="effect1_dropShadow_1871_37374"/>
<feBlend mode="normal" in="SourceGraphic" in2="effect1_dropShadow_1871_37374" result="shape"/>
</filter>
</defs>
</svg>
