<svg width="25" height="24" viewBox="0 0 25 24" fill="none" xmlns="http://www.w3.org/2000/svg">
<mask id="mask0_1579_25222" style="mask-type:alpha" maskUnits="userSpaceOnUse" x="0" y="0" width="25" height="24">
<rect x="0.5" width="24" height="24" fill="#D9D9D9"/>
</mask>
<g mask="url(#mask0_1579_25222)">
<path d="M12.5002 21.5C11.3207 21.5 10.2156 21.2769 9.1848 20.8307C8.15403 20.3846 7.25531 19.7782 6.48865 19.0115C5.722 18.2449 5.1156 17.3461 4.66945 16.3154C4.22328 15.2846 4.0002 14.1795 4.0002 13C4.0002 11.8205 4.22328 10.7154 4.66945 9.68463C5.1156 8.65386 5.722 7.75515 6.48865 6.98848C7.25531 6.22183 8.15403 5.61543 9.1848 5.16928C10.2156 4.72311 11.3207 4.50003 12.5002 4.50003C13.6797 4.50003 14.7848 4.72311 15.8155 5.16928C16.8463 5.61543 17.745 6.22183 18.5117 6.98848C19.2783 7.75515 19.8847 8.65386 20.3309 9.68463C20.7771 10.7154 21.0001 11.8205 21.0001 13C21.0001 14.1795 20.7771 15.2846 20.3309 16.3154C19.8847 17.3461 19.2783 18.2449 18.5117 19.0115C17.745 19.7782 16.8463 20.3846 15.8155 20.8307C14.7848 21.2769 13.6797 21.5 12.5002 21.5ZM15.4733 17.0269L16.5271 15.9731L13.2501 12.6962V8H11.7502V13.3039L15.4733 17.0269ZM6.25402 2.8885L7.30785 3.94233L3.4425 7.80768L2.38867 6.75385L6.25402 2.8885ZM18.7463 2.8885L22.6117 6.75385L21.5578 7.80768L17.6925 3.94233L18.7463 2.8885ZM12.5002 20C14.4438 20 16.0963 19.3192 17.4579 17.9577C18.8194 16.5962 19.5002 14.9436 19.5002 13C19.5002 11.0564 18.8194 9.40386 17.4579 8.0423C16.0963 6.68077 14.4438 6 12.5002 6C10.5566 6 8.90402 6.68077 7.54247 8.0423C6.18094 9.40386 5.50017 11.0564 5.50017 13C5.50017 14.9436 6.18094 16.5962 7.54247 17.9577C8.90402 19.3192 10.5566 20 12.5002 20Z" fill="#1C1B1F"/>
</g>
</svg>
