<svg width="24" height="25" viewBox="0 0 24 25" fill="none" xmlns="http://www.w3.org/2000/svg">
<mask id="mask0_2167_29248" style="mask-type:alpha" maskUnits="userSpaceOnUse" x="0" y="0" width="24" height="25">
<rect y="0.5" width="24" height="24" fill="#D9D9D9"/>
</mask>
<g mask="url(#mask0_2167_29248)">
<path d="M12 22.5C10.6167 22.5 9.31667 22.2375 8.1 21.7125C6.88333 21.1875 5.825 20.475 4.925 19.575C4.025 18.675 3.3125 17.6167 2.7875 16.4C2.2625 15.1833 2 13.8833 2 12.5C2 11.1167 2.2625 9.81667 2.7875 8.6C3.3125 7.38333 4.025 6.325 4.925 5.425C5.825 4.525 6.88333 3.8125 8.1 3.2875C9.31667 2.7625 10.6167 2.5 12 2.5C13.0833 2.5 14.1083 2.65833 15.075 2.975C16.0417 3.29167 16.9333 3.73333 17.75 4.3L16.3 5.775C15.6667 5.375 14.9917 5.0625 14.275 4.8375C13.5583 4.6125 12.8 4.5 12 4.5C9.78333 4.5 7.89583 5.27917 6.3375 6.8375C4.77917 8.39583 4 10.2833 4 12.5C4 14.7167 4.77917 16.6042 6.3375 18.1625C7.89583 19.7208 9.78333 20.5 12 20.5C14.2167 20.5 16.1042 19.7208 17.6625 18.1625C19.2208 16.6042 20 14.7167 20 12.5C20 12.2 19.9833 11.9 19.95 11.6C19.9167 11.3 19.8667 11.0083 19.8 10.725L21.425 9.1C21.6083 9.63333 21.75 10.1833 21.85 10.75C21.95 11.3167 22 11.9 22 12.5C22 13.8833 21.7375 15.1833 21.2125 16.4C20.6875 17.6167 19.975 18.675 19.075 19.575C18.175 20.475 17.1167 21.1875 15.9 21.7125C14.6833 22.2375 13.3833 22.5 12 22.5ZM10.6 17.1L6.35 12.85L7.75 11.45L10.6 14.3L20.6 4.275L22 5.675L10.6 17.1Z" fill="#10B981"/>
</g>
</svg>
