<svg width="21" height="20" viewBox="0 0 21 20" fill="none" xmlns="http://www.w3.org/2000/svg">
<g id="Icon-setting">
<mask id="mask0_3333_9487" style="mask-type:alpha" maskUnits="userSpaceOnUse" x="0" y="0" width="21" height="20">
<rect id="Bounding box" x="0.5" width="20" height="20" fill="#D9D9D9"/>
</mask>
<g mask="url(#mask0_3333_9487)">
<path id="call" d="M16.3961 16.9792C14.7155 16.8542 13.1218 16.441 11.6148 15.7396C10.1079 15.0382 8.75718 14.0903 7.56273 12.8958C6.36829 11.7014 5.42732 10.3542 4.73982 8.85417C4.05232 7.35417 3.63912 5.76389 3.50023 4.08333C3.47246 3.79167 3.55778 3.53819 3.75619 3.32292C3.9546 3.10764 4.20261 3 4.50023 3H7.33357C7.56968 3 7.77454 3.07292 7.94815 3.21875C8.12176 3.36458 8.23635 3.54861 8.2919 3.77083L8.7919 5.97917C8.81968 6.15972 8.80926 6.33333 8.76065 6.5C8.71204 6.66667 8.63218 6.80556 8.52107 6.91667L6.50023 8.95833C6.77801 9.48611 7.09746 9.99306 7.45857 10.4792C7.81968 10.9653 8.22224 11.4235 8.66625 11.8538C9.08335 12.2707 9.52801 12.6562 10.0002 13.0104C10.4725 13.3646 10.9725 13.6806 11.5002 13.9583L13.5627 11.9583C13.6738 11.8472 13.8127 11.7674 13.9794 11.7188C14.1461 11.6701 14.3197 11.6597 14.5002 11.6875L16.7294 12.1667C16.9655 12.2361 17.153 12.3576 17.2919 12.5312C17.4308 12.7049 17.5002 12.9097 17.5002 13.1458V15.9792C17.5002 16.2768 17.3891 16.5248 17.1669 16.7232C16.9447 16.9216 16.6877 17.0069 16.3961 16.9792ZM5.81273 7.5L7.27107 6.04167L6.91357 4.5H5.0419C5.11135 5.02778 5.20857 5.53819 5.33357 6.03125C5.45857 6.52431 5.61829 7.01389 5.81273 7.5ZM12.9794 14.6667C13.4669 14.8645 13.9638 15.0216 14.47 15.138C14.9763 15.2543 15.4863 15.3472 16.0002 15.4167V13.5417L14.4377 13.2083L12.9794 14.6667Z" fill="#1C1B1F"/>
</g>
</g>
</svg>
