<svg width="21" height="20" viewBox="0 0 21 20" fill="none" xmlns="http://www.w3.org/2000/svg">
<g id="Icon-setting">
<mask id="mask0_3333_9477" style="mask-type:alpha" maskUnits="userSpaceOnUse" x="0" y="0" width="21" height="20">
<rect id="Bounding box" x="0.5" width="20" height="20" fill="#D9D9D9"/>
</mask>
<g mask="url(#mask0_3333_9477)">
<path id="admin_panel_settings" d="M14.5 14C14.9167 14 15.2708 13.8542 15.5625 13.5625C15.8542 13.2708 16 12.9167 16 12.5C16 12.0833 15.8542 11.7292 15.5625 11.4375C15.2708 11.1458 14.9167 11 14.5 11C14.0833 11 13.7292 11.1458 13.4375 11.4375C13.1458 11.7292 13 12.0833 13 12.5C13 12.9167 13.1458 13.2708 13.4375 13.5625C13.7292 13.8542 14.0833 14 14.5 14ZM14.5 17C15.0278 17 15.5174 16.867 15.9688 16.601C16.4201 16.335 16.7847 15.9819 17.0625 15.5417C16.6736 15.2917 16.2655 15.0972 15.8381 14.9583C15.4108 14.8194 14.9664 14.75 14.5048 14.75C14.0433 14.75 13.5972 14.8194 13.1667 14.9583C12.7361 15.0972 12.3264 15.2917 11.9375 15.5417C12.2153 15.9819 12.5799 16.335 13.0312 16.601C13.4826 16.867 13.9722 17 14.5 17ZM10.5 18C8.65278 17.5833 7.10764 16.5382 5.86458 14.8646C4.62153 13.191 4 11.3264 4 9.27083V4.5L10.5 2L17 4.5V9.10417C16.6944 8.96528 16.4236 8.85417 16.1875 8.77083C15.9514 8.6875 15.7222 8.63194 15.5 8.60417V5.52083L10.5 3.60417L5.5 5.52083V9.27083C5.5 9.95139 5.58681 10.6181 5.76042 11.2708C5.93403 11.9236 6.1875 12.5382 6.52083 13.1146C6.85417 13.691 7.26042 14.2188 7.73958 14.6979C8.21875 15.1771 8.75694 15.5972 9.35417 15.9583C9.46528 16.2778 9.64236 16.6146 9.88542 16.9688C10.1285 17.3229 10.3958 17.6528 10.6875 17.9583L10.5 18ZM14.4953 18C13.3873 18 12.4444 17.6095 11.6667 16.8286C10.8889 16.0477 10.5 15.1033 10.5 13.9953C10.5 12.8873 10.8905 11.9444 11.6714 11.1667C12.4523 10.3889 13.3967 10 14.5047 10C15.6127 10 16.5556 10.3905 17.3333 11.1714C18.1111 11.9523 18.5 12.8967 18.5 14.0047C18.5 15.1127 18.1095 16.0556 17.3286 16.8333C16.5477 17.6111 15.6033 18 14.4953 18Z" fill="#1C1B1F"/>
</g>
</g>
</svg>
