<svg width="21" height="20" viewBox="0 0 21 20" fill="none" xmlns="http://www.w3.org/2000/svg">
<g id="Icon-setting">
<mask id="mask0_3333_9500" style="mask-type:alpha" maskUnits="userSpaceOnUse" x="0" y="0" width="21" height="20">
<rect id="Bounding box" x="0.5" width="20" height="20" fill="#D9D9D9"/>
</mask>
<g mask="url(#mask0_3333_9500)">
<path id="guardian" d="M10.5 19C7.96364 19 5.82955 18.5347 4.09773 17.6042C2.36591 16.6736 1.5 15.5152 1.5 14.1289C1.5 13.1819 1.94444 12.3194 2.83333 11.5417C3.72222 10.7639 4.94444 10.1667 6.5 9.75V11.3125C5.43056 11.6319 4.57986 12.0474 3.94792 12.559C3.31597 13.0706 3 13.5892 3 14.115C3 15.0244 3.74653 15.816 5.23958 16.4896C6.73264 17.1632 8.48611 17.5 10.5 17.5C12.5139 17.5 14.2674 17.1616 15.7604 16.4848C17.2535 15.808 18 15.0183 18 14.1159C18 13.5942 17.684 13.0764 17.0521 12.5625C16.4201 12.0486 15.5694 11.6319 14.5 11.3125V9.75C16.0417 10.1528 17.2604 10.7479 18.1562 11.5353C19.0521 12.3227 19.5 13.1888 19.5 14.1337C19.5 15.5168 18.6341 16.6736 16.9023 17.6042C15.1705 18.5347 13.0364 19 10.5 19ZM8 16V7.5H4.5V6H16.5V7.5H13V16H11.5V12H9.5V16H8ZM10.4948 4.75C10.0122 4.75 9.60069 4.57814 9.26042 4.23442C8.92014 3.89069 8.75 3.4775 8.75 2.99483C8.75 2.51217 8.92186 2.10069 9.26558 1.76042C9.60931 1.42014 10.0225 1.25 10.5052 1.25C10.9878 1.25 11.3993 1.42186 11.7396 1.76558C12.0799 2.10931 12.25 2.5225 12.25 3.00517C12.25 3.48783 12.0781 3.89931 11.7344 4.23958C11.3907 4.57986 10.9775 4.75 10.4948 4.75Z" fill="#1C1B1F"/>
</g>
</g>
</svg>
