<svg width="21" height="20" viewBox="0 0 21 20" fill="none" xmlns="http://www.w3.org/2000/svg">
<g id="Icon-setting">
<mask id="mask0_3333_9505" style="mask-type:alpha" maskUnits="userSpaceOnUse" x="0" y="0" width="21" height="20">
<rect id="Bounding box" x="0.5" width="20" height="20" fill="#D9D9D9"/>
</mask>
<g mask="url(#mask0_3333_9505)">
<path id="assignment" d="M5 17C4.5875 17 4.23437 16.8531 3.94062 16.5594C3.64687 16.2656 3.5 15.9125 3.5 15.5V4.5C3.5 4.0875 3.64687 3.73438 3.94062 3.44063C4.23437 3.14688 4.5875 3 5 3H8.5625C8.67361 2.56944 8.90625 2.21181 9.26042 1.92708C9.61458 1.64236 10.0278 1.5 10.5 1.5C10.9722 1.5 11.3854 1.64236 11.7396 1.92708C12.0938 2.21181 12.3264 2.56944 12.4375 3H16C16.4125 3 16.7656 3.14688 17.0594 3.44063C17.3531 3.73438 17.5 4.0875 17.5 4.5V15.5C17.5 15.9125 17.3531 16.2656 17.0594 16.5594C16.7656 16.8531 16.4125 17 16 17H5ZM5 15.5H16V4.5H5V15.5ZM6.5 14H12.5V12.5H6.5V14ZM6.5 10.75H14.5V9.25H6.5V10.75ZM6.5 7.5H14.5V6H6.5V7.5ZM10.5 4C10.6444 4 10.7639 3.95278 10.8583 3.85833C10.9528 3.76389 11 3.64444 11 3.5C11 3.35556 10.9528 3.23611 10.8583 3.14167C10.7639 3.04722 10.6444 3 10.5 3C10.3556 3 10.2361 3.04722 10.1417 3.14167C10.0472 3.23611 10 3.35556 10 3.5C10 3.64444 10.0472 3.76389 10.1417 3.85833C10.2361 3.95278 10.3556 4 10.5 4Z" fill="#1C1B1F"/>
</g>
</g>
</svg>
