<svg width="21" height="20" viewBox="0 0 21 20" fill="none" xmlns="http://www.w3.org/2000/svg">
<g id="Icon-setting">
<mask id="mask0_3333_9482" style="mask-type:alpha" maskUnits="userSpaceOnUse" x="0" y="0" width="21" height="20">
<rect id="Bounding box" x="0.5" width="20" height="20" fill="#D9D9D9"/>
</mask>
<g mask="url(#mask0_3333_9482)">
<path id="alternate_email" d="M10.5082 18C9.40375 18 8.36587 17.7917 7.39452 17.375C6.42317 16.9583 5.57292 16.3854 4.84375 15.6562C4.11458 14.9271 3.54167 14.0767 3.125 13.105C2.70833 12.1334 2.5 11.0952 2.5 9.99046C2.5 8.88571 2.70833 7.85069 3.125 6.88542C3.54167 5.92014 4.11458 5.07292 4.84375 4.34375C5.57292 3.61458 6.42332 3.04167 7.39496 2.625C8.36661 2.20833 9.40481 2 10.5095 2C11.6143 2 12.6493 2.20833 13.6146 2.625C14.5799 3.04167 15.4271 3.61458 16.1562 4.34375C16.8854 5.07292 17.4583 5.92014 17.875 6.88542C18.2917 7.85069 18.5 8.88889 18.5 10V11.25C18.5 12.0117 18.2326 12.6605 17.6979 13.1963C17.1632 13.7321 16.5139 14 15.75 14C15.2778 14 14.8438 13.8819 14.4479 13.6458C14.0521 13.4097 13.7142 13.0972 13.4342 12.7083C13.0475 13.1111 12.6007 13.4271 12.0938 13.6562C11.5868 13.8854 11.0556 14 10.5 14C9.39333 14 8.45 13.6095 7.67 12.8286C6.89 12.0477 6.5 11.1033 6.5 9.99529C6.5 8.88732 6.89046 7.94444 7.67138 7.16667C8.45229 6.38889 9.39674 6 10.5047 6C11.6127 6 12.5556 6.39 13.3333 7.17C14.1111 7.95 14.5 8.89333 14.5 10V11.25C14.5 11.5995 14.6215 11.8952 14.8646 12.1371C15.1076 12.379 15.4028 12.5 15.75 12.5C16.0972 12.5 16.3924 12.379 16.6354 12.1371C16.8785 11.8952 17 11.5995 17 11.25V10C17 8.19444 16.3681 6.65972 15.1042 5.39583C13.8403 4.13194 12.3056 3.5 10.5 3.5C8.69444 3.5 7.15972 4.13194 5.89583 5.39583C4.63194 6.65972 4 8.19444 4 10C4 11.8056 4.63194 13.3403 5.89583 14.6042C7.15972 15.8681 8.69444 16.5 10.5 16.5H14.5V18H10.5082ZM10.5 12.5C11.1944 12.5 11.7847 12.2569 12.2708 11.7708C12.7569 11.2847 13 10.6944 13 10C13 9.30556 12.7569 8.71528 12.2708 8.22917C11.7847 7.74306 11.1944 7.5 10.5 7.5C9.80556 7.5 9.21528 7.74306 8.72917 8.22917C8.24306 8.71528 8 9.30556 8 10C8 10.6944 8.24306 11.2847 8.72917 11.7708C9.21528 12.2569 9.80556 12.5 10.5 12.5Z" fill="#1C1B1F"/>
</g>
</g>
</svg>
