<svg width="21" height="21" viewBox="0 0 21 21" fill="none" xmlns="http://www.w3.org/2000/svg">
<mask id="mask0_2578_42150" style="mask-type:alpha" maskUnits="userSpaceOnUse" x="0" y="0" width="21" height="21">
<rect x="0.5" y="0.619141" width="20" height="20" fill="#D9D9D9"/>
</mask>
<g mask="url(#mask0_2578_42150)">
<path d="M16.75 9.43471L15.4392 10.7249C15.3238 10.8402 15.1808 10.9013 15.0104 10.9083C14.84 10.9152 14.6896 10.8535 14.5592 10.723C14.4396 10.6035 14.3798 10.4577 14.3798 10.2858C14.3798 10.1138 14.4401 9.96742 14.5608 9.84659L15.859 8.53576L14.5608 7.24576C14.4401 7.13173 14.3798 6.98916 14.3798 6.81805C14.3798 6.64694 14.4396 6.49673 14.5592 6.36742C14.6896 6.23825 14.8387 6.17367 15.0065 6.17367C15.1741 6.17367 15.3226 6.23825 15.4519 6.36742L16.75 7.66555L18.04 6.35471C18.154 6.22541 18.2966 6.16076 18.4677 6.16076C18.6388 6.16076 18.789 6.22541 18.9183 6.35471C19.0475 6.48402 19.1121 6.63249 19.1121 6.80013C19.1121 6.96791 19.0475 7.11645 18.9183 7.24576L17.6281 8.53576L18.931 9.84659C19.0549 9.97062 19.1161 10.1157 19.1146 10.2818C19.1129 10.4479 19.0475 10.5962 18.9183 10.7266C18.789 10.8462 18.6426 10.9081 18.4792 10.9124C18.3157 10.9166 18.1693 10.8541 18.04 10.7249L16.75 9.43471ZM8 10.3626C7.19792 10.3626 6.51132 10.0771 5.94021 9.50596C5.36896 8.93471 5.08333 8.24805 5.08333 7.44596C5.08333 6.64388 5.36896 5.95728 5.94021 5.38617C6.51132 4.81492 7.19792 4.5293 8 4.5293C8.80208 4.5293 9.48868 4.81492 10.0598 5.38617C10.631 5.95728 10.9167 6.64388 10.9167 7.44596C10.9167 8.24805 10.631 8.93471 10.0598 9.50596C9.48868 10.0771 8.80208 10.3626 8 10.3626ZM1.75 15.4428V14.8562C1.75 14.4481 1.86083 14.0702 2.0825 13.7224C2.30417 13.3746 2.60042 13.1073 2.97125 12.9203C3.79486 12.5166 4.62576 12.2137 5.46396 12.0118C6.30215 11.8099 7.1475 11.7089 8 11.7089C8.8525 11.7089 9.69785 11.8099 10.536 12.0118C11.3742 12.2137 12.2051 12.5166 13.0288 12.9203C13.3996 13.1073 13.6958 13.3746 13.9175 13.7224C14.1392 14.0702 14.25 14.4481 14.25 14.8562V15.4428C14.25 15.7942 14.1269 16.0931 13.8806 16.3395C13.6344 16.5858 13.3355 16.7089 12.984 16.7089H3.01604C2.66451 16.7089 2.36563 16.5858 2.11938 16.3395C1.87313 16.0931 1.75 15.7942 1.75 15.4428ZM3 15.4589H13V14.8562C13 14.6874 12.9511 14.5312 12.8533 14.3874C12.7556 14.2438 12.6228 14.1266 12.4552 14.0358C11.7372 13.6821 11.0051 13.4142 10.259 13.232C9.51271 13.0499 8.75972 12.9589 8 12.9589C7.24028 12.9589 6.48729 13.0499 5.74104 13.232C4.99493 13.4142 4.26285 13.6821 3.54479 14.0358C3.37715 14.1266 3.24444 14.2438 3.14667 14.3874C3.04889 14.5312 3 14.6874 3 14.8562V15.4589ZM8 9.11263C8.45833 9.11263 8.8507 8.94944 9.17708 8.62305C9.50347 8.29666 9.66667 7.9043 9.66667 7.44596C9.66667 6.98763 9.50347 6.59527 9.17708 6.26888C8.8507 5.94249 8.45833 5.7793 8 5.7793C7.54167 5.7793 7.14931 5.94249 6.82292 6.26888C6.49653 6.59527 6.33333 6.98763 6.33333 7.44596C6.33333 7.9043 6.49653 8.29666 6.82292 8.62305C7.14931 8.94944 7.54167 9.11263 8 9.11263Z" fill="#1C1B1F"/>
</g>
</svg>
