<svg width="21" height="20" viewBox="0 0 21 20" fill="none" xmlns="http://www.w3.org/2000/svg">
<g id="Icon-setting">
<mask id="mask0_3333_9464" style="mask-type:alpha" maskUnits="userSpaceOnUse" x="0" y="0" width="21" height="20">
<rect id="Bounding box" x="0.5" width="20" height="20" fill="#D9D9D9"/>
</mask>
<g mask="url(#mask0_3333_9464)">
<path id="sticky_note_2" d="M4.92341 15.8336H12.167V11.667H16.3336V4.42341C16.3336 4.34862 16.3096 4.28718 16.2615 4.2391C16.2134 4.19101 16.152 4.16697 16.0772 4.16697H4.92341C4.84862 4.16697 4.78718 4.19101 4.7391 4.2391C4.69101 4.28718 4.66697 4.34862 4.66697 4.42341V15.5772C4.66697 15.652 4.69101 15.7134 4.7391 15.7615C4.78718 15.8096 4.84862 15.8336 4.92341 15.8336ZM4.92341 17.0836C4.50781 17.0836 4.15285 16.9364 3.85851 16.6421C3.56417 16.3478 3.41699 15.9928 3.41699 15.5772V4.42341C3.41699 4.00781 3.56417 3.65285 3.85851 3.35851C4.15285 3.06417 4.50781 2.91699 4.92341 2.91699H16.0772C16.4928 2.91699 16.8478 3.06417 17.1421 3.35851C17.4364 3.65285 17.5836 4.00781 17.5836 4.42341V12.2038L12.7038 17.0836H4.92341ZM6.70226 11.4426V10.1926H10.5003V11.4426H6.70226ZM6.70226 8.12529V6.87533H14.2983V8.12529H6.70226Z" fill="#1C1B1F"/>
</g>
</g>
</svg>
