<svg width="16" height="16" viewBox="0 0 16 16" fill="none" xmlns="http://www.w3.org/2000/svg">
<mask id="mask0_4078_24813" style="mask-type:alpha" maskUnits="userSpaceOnUse" x="0" y="0" width="16" height="16">
<rect width="16" height="16" fill="#D9D9D9"/>
</mask>
<g mask="url(#mask0_4078_24813)">
<path d="M14.0002 5.33356C14.3557 5.33356 14.6668 5.46689 14.9335 5.73356C15.2002 6.00023 15.3335 6.31134 15.3335 6.6669V8.00023C15.3335 8.07801 15.3224 8.16134 15.3002 8.25023C15.2779 8.33912 15.2557 8.42245 15.2335 8.50023L13.2335 13.2002C13.1335 13.4225 12.9668 13.6113 12.7335 13.7669C12.5002 13.9225 12.2557 14.0002 12.0002 14.0002H4.66683V5.33356L8.66683 1.36689C8.8335 1.20023 9.03072 1.10301 9.2585 1.07523C9.48627 1.04745 9.70572 1.08912 9.91683 1.20023C10.1279 1.31134 10.2835 1.46689 10.3835 1.66689C10.4835 1.86689 10.5057 2.07245 10.4502 2.28356L9.70016 5.33356H14.0002ZM6.00016 5.90023V12.6669H12.0002L14.0002 8.00023V6.6669H8.00016L8.90016 3.00023L6.00016 5.90023ZM2.66683 14.0002C2.30016 14.0002 1.98627 13.8697 1.72516 13.6086C1.46405 13.3475 1.3335 13.0336 1.3335 12.6669V6.6669C1.3335 6.30023 1.46405 5.98634 1.72516 5.72523C1.98627 5.46412 2.30016 5.33356 2.66683 5.33356H4.66683V6.6669H2.66683V12.6669H4.66683V14.0002H2.66683Z" fill="#525252"/>
</g>
</svg>
