<svg width="21" height="20" viewBox="0 0 21 20" fill="none" xmlns="http://www.w3.org/2000/svg">
<g id="visibility">
<mask id="mask0_3192_35368" style="mask-type:alpha" maskUnits="userSpaceOnUse" x="0" y="0" width="21" height="20">
<rect id="Bounding box" x="0.538574" width="20" height="20" fill="#D9D9D9"/>
</mask>
<g mask="url(#mask0_3192_35368)">
<path id="visibility_2" d="M10.5404 12.9808C11.4847 12.9808 12.2867 12.6503 12.9465 11.9894C13.6062 11.3284 13.936 10.5258 13.936 9.58146C13.936 8.63715 13.6056 7.83514 12.9446 7.17542C12.2836 6.51569 11.481 6.18583 10.5367 6.18583C9.59236 6.18583 8.79034 6.51632 8.13062 7.17729C7.4709 7.83826 7.14104 8.6409 7.14104 9.58521C7.14104 10.5295 7.47152 11.3315 8.1325 11.9913C8.79347 12.651 9.59611 12.9808 10.5404 12.9808ZM10.5385 11.8333C9.91354 11.8333 9.38229 11.6146 8.94479 11.1771C8.50729 10.7396 8.28854 10.2083 8.28854 9.58333C8.28854 8.95833 8.50729 8.42708 8.94479 7.98958C9.38229 7.55208 9.91354 7.33333 10.5385 7.33333C11.1635 7.33333 11.6948 7.55208 12.1323 7.98958C12.5698 8.42708 12.7885 8.95833 12.7885 9.58333C12.7885 10.2083 12.5698 10.7396 12.1323 11.1771C11.6948 11.6146 11.1635 11.8333 10.5385 11.8333ZM10.5385 15.4167C8.78423 15.4167 7.17979 14.9487 5.7252 14.0127C4.27062 13.0769 3.10958 11.8456 2.24208 10.319C2.17263 10.1992 2.12187 10.0786 2.08979 9.95708C2.05784 9.83556 2.04187 9.71083 2.04187 9.58292C2.04187 9.455 2.05784 9.33042 2.08979 9.20917C2.12187 9.08792 2.17263 8.96743 2.24208 8.84771C3.10958 7.32104 4.27062 6.08979 5.7252 5.15396C7.17979 4.21799 8.78423 3.75 10.5385 3.75C12.2928 3.75 13.8973 4.21799 15.3519 5.15396C16.8065 6.08979 17.9675 7.32104 18.835 8.84771C18.9044 8.96743 18.9552 9.08806 18.9873 9.20958C19.0192 9.33111 19.0352 9.45583 19.0352 9.58375C19.0352 9.71167 19.0192 9.83625 18.9873 9.9575C18.9552 10.0788 18.9044 10.1992 18.835 10.319C17.9675 11.8456 16.8065 13.0769 15.3519 14.0127C13.8973 14.9487 12.2928 15.4167 10.5385 15.4167ZM10.5385 14.1667C12.108 14.1667 13.549 13.7535 14.8615 12.9271C16.174 12.1007 17.1774 10.9861 17.8719 9.58333C17.1774 8.18056 16.174 7.06597 14.8615 6.23958C13.549 5.41319 12.108 5 10.5385 5C8.96909 5 7.52812 5.41319 6.21562 6.23958C4.90312 7.06597 3.89965 8.18056 3.2052 9.58333C3.89965 10.9861 4.90312 12.1007 6.21562 12.9271C7.52812 13.7535 8.96909 14.1667 10.5385 14.1667Z" fill="#171717"/>
</g>
</g>
</svg>
